<?xml version="1.0" encoding="UTF-8" standalone="no"?>
<!DOCTYPE svg PUBLIC "-//W3C//DTD SVG 1.1//EN"
 "http://www.w3.org/Graphics/SVG/1.1/DTD/svg11.dtd">
<!-- Generated by graphviz version 2.40.1 (0)
 -->
<!-- Title: Challenge11 Pages: 1 -->
<svg width="460pt" height="353pt"
 viewBox="0.00 0.00 460.00 353.00" xmlns="http://www.w3.org/2000/svg" xmlns:xlink="http://www.w3.org/1999/xlink">
<g id="graph0" class="graph" transform="scale(1 1) rotate(0) translate(4 349)">
<title>Challenge11</title>
<polygon fill="#ffffff" stroke="transparent" points="-4,4 -4,-349 455.9968,-349 455.9968,4 -4,4"/>
<text text-anchor="middle" x="225.9984" y="-331.4" font-family="Helvetica,sans-Serif" font-weight="bold" font-size="12.00" fill="#000000">Challenge #11: Selectivity</text>
<!-- start -->
<g id="node1" class="node">
<title>start</title>
<ellipse fill="#000000" stroke="#000000" cx="109.3827" cy="-306" rx="3.96" ry="3.96"/>
</g>
<!-- B_top -->
<g id="node2" class="node">
<title>B_top</title>
<ellipse fill="none" stroke="#000000" cx="109.3827" cy="-234" rx="18" ry="18"/>
<text text-anchor="middle" x="109.3827" y="-230.9" font-family="Helvetica,sans-Serif" font-size="12.00" fill="#0000ff">B</text>
</g>
<!-- start&#45;&gt;B_top -->
<g id="edge5" class="edge">
<title>start&#45;&gt;B_top</title>
<path fill="none" stroke="#000000" d="M109.3827,-301.7117C109.3827,-294.0623 109.3827,-277.4722 109.3827,-262.6289"/>
<polygon fill="#000000" stroke="#000000" points="112.8828,-262.2821 109.3827,-252.2821 105.8828,-262.2821 112.8828,-262.2821"/>
</g>
<!-- bit_T -->
<g id="node7" class="node">
<title>bit_T</title>
<polygon fill="none" stroke="#000000" points="163.3827,-180 136.3827,-162 163.3827,-144 190.3827,-162 163.3827,-180"/>
<text text-anchor="middle" x="163.3827" y="-157" font-family="Helvetica,sans-Serif" font-size="20.00" fill="#00bfff">&gt;</text>
</g>
<!-- B_top&#45;&gt;bit_T -->
<g id="edge6" class="edge">
<title>B_top&#45;&gt;bit_T:n</title>
<path fill="none" stroke="#000000" d="M125.8779,-226.1924C139.1529,-218.8405 156.4418,-206.5101 161.7574,-190.1156"/>
<polygon fill="#000000" stroke="#000000" points="165.2519,-190.4286 163.3827,-180 158.3405,-189.3181 165.2519,-190.4286"/>
</g>
<!-- B_bot -->
<g id="node3" class="node">
<title>B_bot</title>
<ellipse fill="none" stroke="#000000" cx="177.3827" cy="-18" rx="18" ry="18"/>
<text text-anchor="middle" x="177.3827" y="-14.9" font-family="Helvetica,sans-Serif" font-size="12.00" fill="#0000ff">%</text>
</g>
<!-- B_bot&#45;&gt;B_top -->
<g id="edge14" class="edge">
<title>B_bot:w&#45;&gt;B_top:w</title>
<path fill="none" stroke="#0000ff" stroke-dasharray="1,5" d="M159.3827,-18C126.0375,-18 38.2474,-44.5042 19.3827,-72 -25.1926,-136.9696 12.5918,-234 91.3827,-234"/>
</g>
<!-- R_bot -->
<g id="node5" class="node">
<title>R_bot</title>
<ellipse fill="none" stroke="#000000" cx="330.3827" cy="-18" rx="18" ry="18"/>
<text text-anchor="middle" x="330.3827" y="-14.9" font-family="Helvetica,sans-Serif" font-size="12.00" fill="#ff0000">%</text>
</g>
<!-- B_bot&#45;&gt;R_bot -->
<!-- R_top -->
<g id="node4" class="node">
<title>R_top</title>
<ellipse fill="none" stroke="#000000" cx="380.3827" cy="-234" rx="18" ry="18"/>
<text text-anchor="middle" x="380.3827" y="-230.9" font-family="Helvetica,sans-Serif" font-size="12.00" fill="#ff0000">R</text>
</g>
<!-- R_bot&#45;&gt;R_top -->
<g id="edge15" class="edge">
<title>R_bot:e&#45;&gt;R_top:e</title>
<path fill="none" stroke="#ff0000" stroke-dasharray="1,5" d="M348.3827,-18C446.9211,-18 496.9211,-234 398.3827,-234"/>
</g>
<!-- objective -->
<g id="node6" class="node">
<title>objective</title>
<text text-anchor="start" x="139.3827" y="-303" font-family="Times" font-size="10.00" fill="#000000">Flip bits 2 and 5 to the right.</text>
</g>
<!-- bit_1 -->
<g id="node8" class="node">
<title>bit_1</title>
<polygon fill="none" stroke="#c0c0c0" points="55.3827,-108 28.3827,-90 55.3827,-72 82.3827,-90 55.3827,-108"/>
<text text-anchor="middle" x="55.3827" y="-85" font-family="Helvetica,sans-Serif" font-size="20.00" fill="#00bfff">&lt;</text>
<text text-anchor="start" x="8.3827" y="-115" font-family="Helvetica,sans-Serif" font-size="20.00" fill="#00bfff"> </text>
<text text-anchor="start" x="15.3827" y="-115" font-family="Helvetica,sans-Serif" font-size="10.00" fill="#00bfff">1</text>
<text text-anchor="start" x="21.3827" y="-115" font-family="Helvetica,sans-Serif" font-size="20.00" fill="#00bfff"> </text>
</g>
<!-- bit_T&#45;&gt;bit_1 -->
<!-- bit_2 -->
<g id="node9" class="node">
<title>bit_2</title>
<polygon fill="none" stroke="#000000" points="127.3827,-108 100.3827,-90 127.3827,-72 154.3827,-90 127.3827,-108"/>
<text text-anchor="middle" x="127.3827" y="-85" font-family="Helvetica,sans-Serif" font-size="20.00" fill="#00bfff">&lt;</text>
<text text-anchor="start" x="80.3827" y="-115" font-family="Helvetica,sans-Serif" font-size="20.00" fill="#00bfff"> </text>
<text text-anchor="start" x="87.3827" y="-115" font-family="Helvetica,sans-Serif" font-size="10.00" fill="#00bfff">2</text>
<text text-anchor="start" x="93.3827" y="-115" font-family="Helvetica,sans-Serif" font-size="20.00" fill="#00bfff"> </text>
</g>
<!-- bit_T&#45;&gt;bit_2 -->
<g id="edge8" class="edge">
<title>bit_T&#45;&gt;bit_2:n</title>
<path fill="none" stroke="#000000" d="M151.1947,-151.7642C142.7907,-143.7335 132.4931,-131.6705 128.7911,-118.1061"/>
<polygon fill="#000000" stroke="#000000" points="132.2296,-117.4211 127.3827,-108 125.2966,-118.3874 132.2296,-117.4211"/>
</g>
<!-- bit_3 -->
<g id="node10" class="node">
<title>bit_3</title>
<polygon fill="none" stroke="#c0c0c0" points="199.3827,-108 172.3827,-90 199.3827,-72 226.3827,-90 199.3827,-108"/>
<text text-anchor="middle" x="199.3827" y="-85" font-family="Helvetica,sans-Serif" font-size="20.00" fill="#00bfff">&lt;</text>
<text text-anchor="start" x="152.3827" y="-115" font-family="Helvetica,sans-Serif" font-size="20.00" fill="#00bfff"> </text>
<text text-anchor="start" x="159.3827" y="-115" font-family="Helvetica,sans-Serif" font-size="10.00" fill="#00bfff">3</text>
<text text-anchor="start" x="165.3827" y="-115" font-family="Helvetica,sans-Serif" font-size="20.00" fill="#00bfff"> </text>
</g>
<!-- bit_T&#45;&gt;bit_3 -->
<!-- bit_4 -->
<g id="node11" class="node">
<title>bit_4</title>
<polygon fill="none" stroke="#c0c0c0" points="271.3827,-108 244.3827,-90 271.3827,-72 298.3827,-90 271.3827,-108"/>
<text text-anchor="middle" x="271.3827" y="-85" font-family="Helvetica,sans-Serif" font-size="20.00" fill="#00bfff">&lt;</text>
<text text-anchor="start" x="224.3827" y="-115" font-family="Helvetica,sans-Serif" font-size="20.00" fill="#00bfff"> </text>
<text text-anchor="start" x="231.3827" y="-115" font-family="Helvetica,sans-Serif" font-size="10.00" fill="#00bfff">4</text>
<text text-anchor="start" x="237.3827" y="-115" font-family="Helvetica,sans-Serif" font-size="20.00" fill="#00bfff"> </text>
</g>
<!-- bit_T&#45;&gt;bit_4 -->
<!-- bit_5 -->
<g id="node12" class="node">
<title>bit_5</title>
<polygon fill="none" stroke="#000000" points="343.3827,-108 316.3827,-90 343.3827,-72 370.3827,-90 343.3827,-108"/>
<text text-anchor="middle" x="343.3827" y="-85" font-family="Helvetica,sans-Serif" font-size="20.00" fill="#00bfff">&lt;</text>
<text text-anchor="start" x="296.3827" y="-115" font-family="Helvetica,sans-Serif" font-size="20.00" fill="#00bfff"> </text>
<text text-anchor="start" x="303.3827" y="-115" font-family="Helvetica,sans-Serif" font-size="10.00" fill="#00bfff">5</text>
<text text-anchor="start" x="309.3827" y="-115" font-family="Helvetica,sans-Serif" font-size="20.00" fill="#00bfff"> </text>
</g>
<!-- bit_T&#45;&gt;bit_5 -->
<g id="edge11" class="edge">
<title>bit_T&#45;&gt;bit_5:n</title>
<path fill="none" stroke="#000000" d="M187.2853,-159.8765C231.0847,-155.3934 321.4312,-143.2005 340.0014,-117.617"/>
<polygon fill="#000000" stroke="#000000" points="343.3676,-118.5948 343.3827,-108 336.7639,-116.273 343.3676,-118.5948"/>
</g>
<!-- bit_1&#45;&gt;bit_2 -->
<!-- bit_2&#45;&gt;B_bot -->
<g id="edge12" class="edge">
<title>bit_2&#45;&gt;B_bot</title>
<path fill="none" stroke="#000000" d="M136.092,-77.4586C143.0265,-67.4729 152.9228,-53.2222 161.2885,-41.1755"/>
<polygon fill="#000000" stroke="#000000" points="164.2162,-43.0958 167.0454,-32.8857 158.4666,-39.103 164.2162,-43.0958"/>
</g>
<!-- bit_2&#45;&gt;bit_3 -->
<!-- bit_3&#45;&gt;bit_4 -->
<!-- bit_4&#45;&gt;bit_5 -->
<!-- bit_5&#45;&gt;B_bot -->
<g id="edge13" class="edge">
<title>bit_5&#45;&gt;B_bot</title>
<path fill="none" stroke="#000000" d="M328.0806,-82.0531C321.7263,-78.8307 314.2466,-75.1369 307.3827,-72 271.905,-55.7861 230.1325,-38.7992 203.7055,-28.3059"/>
<polygon fill="#000000" stroke="#000000" points="204.96,-25.0383 194.3735,-24.6173 202.3868,-31.5482 204.96,-25.0383"/>
</g>
</g>
</svg>
