<?xml version="1.0" encoding="UTF-8" standalone="no"?>
<!DOCTYPE svg PUBLIC "-//W3C//DTD SVG 1.1//EN"
 "http://www.w3.org/Graphics/SVG/1.1/DTD/svg11.dtd">
<!-- Generated by graphviz version 2.40.1 (0)
 -->
<!-- Title: Challenge09 Pages: 1 -->
<svg width="241pt" height="281pt"
 viewBox="0.00 0.00 240.99 281.00" xmlns="http://www.w3.org/2000/svg" xmlns:xlink="http://www.w3.org/1999/xlink">
<g id="graph0" class="graph" transform="scale(1 1) rotate(0) translate(4 277)">
<title>Challenge09</title>
<polygon fill="#ffffff" stroke="transparent" points="-4,4 -4,-277 236.9942,-277 236.9942,4 -4,4"/>
<text text-anchor="middle" x="116.4971" y="-259.4" font-family="Helvetica,sans-Serif" font-weight="bold" font-size="12.00" fill="#000000">Challenge #9: Dimers</text>
<!-- start -->
<g id="node1" class="node">
<title>start</title>
<ellipse fill="#000000" stroke="#000000" cx="62.9942" cy="-234" rx="3.96" ry="3.96"/>
</g>
<!-- B_top -->
<g id="node2" class="node">
<title>B_top</title>
<ellipse fill="none" stroke="#000000" cx="62.9942" cy="-162" rx="18" ry="18"/>
<text text-anchor="middle" x="62.9942" y="-158.9" font-family="Helvetica,sans-Serif" font-size="12.00" fill="#0000ff">B</text>
</g>
<!-- start&#45;&gt;B_top -->
<g id="edge1" class="edge">
<title>start&#45;&gt;B_top</title>
<path fill="none" stroke="#000000" d="M62.9942,-229.7117C62.9942,-222.0623 62.9942,-205.4722 62.9942,-190.6289"/>
<polygon fill="#000000" stroke="#000000" points="66.4943,-190.2821 62.9942,-180.2821 59.4943,-190.2821 66.4943,-190.2821"/>
</g>
<!-- bit -->
<g id="node7" class="node">
<title>bit</title>
<polygon fill="none" stroke="#000000" points="80.9942,-108 53.9942,-90 80.9942,-72 107.9942,-90 80.9942,-108"/>
<text text-anchor="middle" x="80.9942" y="-85" font-family="Helvetica,sans-Serif" font-size="20.00" fill="#00bfff">&gt;</text>
</g>
<!-- B_top&#45;&gt;bit -->
<g id="edge2" class="edge">
<title>B_top&#45;&gt;bit:n</title>
<path fill="none" stroke="#000000" d="M71.3618,-145.9193C74.8873,-138.0423 78.5427,-128.0998 80.1501,-118.0344"/>
<polygon fill="#000000" stroke="#000000" points="83.6436,-118.2582 80.9942,-108 76.6682,-117.6714 83.6436,-118.2582"/>
</g>
<!-- B_bot -->
<g id="node3" class="node">
<title>B_bot</title>
<ellipse fill="none" stroke="#000000" cx="69.9942" cy="-18" rx="18" ry="18"/>
<text text-anchor="middle" x="69.9942" y="-14.9" font-family="Helvetica,sans-Serif" font-size="12.00" fill="#0000ff">%</text>
</g>
<!-- B_bot&#45;&gt;B_top -->
<g id="edge6" class="edge">
<title>B_bot:w&#45;&gt;B_top:w</title>
<path fill="none" stroke="#0000ff" stroke-dasharray="1,5" d="M51.9942,-18C-12.0814,-18 -19.0814,-162 44.9942,-162"/>
</g>
<!-- R_bot -->
<g id="node5" class="node">
<title>R_bot</title>
<ellipse fill="none" stroke="#000000" cx="123.9942" cy="-18" rx="18" ry="18"/>
<text text-anchor="middle" x="123.9942" y="-14.9" font-family="Helvetica,sans-Serif" font-size="12.00" fill="#ff0000">%</text>
</g>
<!-- B_bot&#45;&gt;R_bot -->
<!-- R_top -->
<g id="node4" class="node">
<title>R_top</title>
<ellipse fill="none" stroke="#000000" cx="145.9942" cy="-162" rx="18" ry="18"/>
<text text-anchor="middle" x="145.9942" y="-158.9" font-family="Helvetica,sans-Serif" font-size="12.00" fill="#ff0000">R</text>
</g>
<!-- R_top&#45;&gt;B_bot -->
<g id="edge3" class="edge">
<title>R_top&#45;&gt;B_bot:ne</title>
<path fill="none" stroke="#000000" d="M142.3911,-144.2839C138.1064,-125.5296 129.8703,-95.4566 116.9942,-72 107.4717,-54.6529 101.8079,-49.3547 90.4276,-38.305"/>
<polygon fill="#000000" stroke="#000000" points="92.5798,-35.5129 82.9942,-31 87.6734,-40.5056 92.5798,-35.5129"/>
</g>
<!-- R_bot&#45;&gt;R_top -->
<g id="edge7" class="edge">
<title>R_bot:e&#45;&gt;R_top:e</title>
<path fill="none" stroke="#ff0000" stroke-dasharray="1,5" d="M141.9942,-18C206.7368,-18 228.7368,-162 163.9942,-162"/>
</g>
<!-- objective -->
<g id="node6" class="node">
<title>objective</title>
<text text-anchor="start" x="92.9942" y="-237" font-family="Times" font-size="10.00" fill="#000000">Make the pattern blue, blue, red,</text>
<text text-anchor="start" x="92.9942" y="-226" font-family="Times" font-size="10.00" fill="#000000">blue, blue, red…</text>
</g>
<!-- bit&#45;&gt;B_bot -->
<g id="edge4" class="edge">
<title>bit:sw&#45;&gt;B_bot</title>
<path fill="none" stroke="#000000" d="M69.9942,-79C61.3643,-70.3701 60.5042,-57.1484 62.1673,-45.2179"/>
<polygon fill="#000000" stroke="#000000" points="65.6391,-45.7029 64.1464,-35.2138 58.7722,-44.3443 65.6391,-45.7029"/>
</g>
<!-- bit&#45;&gt;R_bot -->
<g id="edge5" class="edge">
<title>bit:se&#45;&gt;R_bot</title>
<path fill="none" stroke="#000000" d="M91.9942,-79C101.6397,-69.3545 109.0426,-56.1945 114.2865,-44.5666"/>
<polygon fill="#000000" stroke="#000000" points="117.5453,-45.8458 118.1854,-35.2703 111.0901,-43.1384 117.5453,-45.8458"/>
</g>
</g>
</svg>
