<?xml version="1.0" encoding="UTF-8" standalone="no"?>
<!DOCTYPE svg PUBLIC "-//W3C//DTD SVG 1.1//EN"
 "http://www.w3.org/Graphics/SVG/1.1/DTD/svg11.dtd">
<!-- Generated by graphviz version 2.40.1 (0)
 -->
<!-- Title: Challenge26 Pages: 1 -->
<svg width="303pt" height="353pt"
 viewBox="0.00 0.00 302.94 353.00" xmlns="http://www.w3.org/2000/svg" xmlns:xlink="http://www.w3.org/1999/xlink">
<g id="graph0" class="graph" transform="scale(1 1) rotate(0) translate(4 349)">
<title>Challenge26</title>
<polygon fill="#ffffff" stroke="transparent" points="-4,4 -4,-349 298.9386,-349 298.9386,4 -4,4"/>
<text text-anchor="middle" x="147.4693" y="-331.4" font-family="Helvetica,sans-Serif" font-weight="bold" font-size="12.00" fill="#000000">Challenge #26: Nucleus</text>
<g id="clust3" class="cluster">
<title>cluster_Register_A</title>
<polygon fill="none" stroke="#c0c0c0" points="77.0149,-64 77.0149,-188 147.0149,-188 147.0149,-64 77.0149,-64"/>
</g>
<!-- start -->
<g id="node1" class="node">
<title>start</title>
<ellipse fill="#000000" stroke="#000000" cx="75.0149" cy="-306" rx="3.96" ry="3.96"/>
</g>
<!-- B_top -->
<g id="node2" class="node">
<title>B_top</title>
<ellipse fill="none" stroke="#000000" cx="75.0149" cy="-234" rx="18" ry="18"/>
<text text-anchor="middle" x="75.0149" y="-230.9" font-family="Helvetica,sans-Serif" font-size="12.00" fill="#0000ff">B</text>
</g>
<!-- start&#45;&gt;B_top -->
<g id="edge1" class="edge">
<title>start&#45;&gt;B_top</title>
<path fill="none" stroke="#000000" d="M75.0149,-301.7117C75.0149,-294.0623 75.0149,-277.4722 75.0149,-262.6289"/>
<polygon fill="#000000" stroke="#000000" points="78.515,-262.2821 75.0149,-252.2821 71.515,-262.2821 78.515,-262.2821"/>
</g>
<!-- bit_A0 -->
<g id="node7" class="node">
<title>bit_A0</title>
<polygon fill="none" stroke="#000000" points="112.0149,-180 85.0149,-162 112.0149,-144 139.0149,-162 112.0149,-180"/>
<text text-anchor="middle" x="112.0149" y="-157" font-family="Helvetica,sans-Serif" font-size="20.00" fill="#00bfff">&gt;</text>
</g>
<!-- B_top&#45;&gt;bit_A0 -->
<g id="edge2" class="edge">
<title>B_top:s&#45;&gt;bit_A0:n</title>
<path fill="none" stroke="#000000" d="M75.0149,-216C75.0149,-197.1789 99.9127,-200.4505 108.8603,-189.569"/>
<polygon fill="#000000" stroke="#000000" points="112.208,-190.5931 112.0149,-180 105.5599,-188.4014 112.208,-190.5931"/>
</g>
<!-- B_bot -->
<g id="node3" class="node">
<title>B_bot</title>
<ellipse fill="none" stroke="#000000" cx="114.0149" cy="-18" rx="18" ry="18"/>
<text text-anchor="middle" x="114.0149" y="-14.9" font-family="Helvetica,sans-Serif" font-size="12.00" fill="#0000ff">%</text>
</g>
<!-- B_bot&#45;&gt;B_top -->
<g id="edge11" class="edge">
<title>B_bot:w&#45;&gt;B_top:w</title>
<path fill="none" stroke="#0000ff" stroke-dasharray="1,5" d="M96.0149,-18C-1.5373,-18 -40.5373,-234 57.0149,-234"/>
</g>
<!-- R_bot -->
<g id="node5" class="node">
<title>R_bot</title>
<ellipse fill="none" stroke="#000000" cx="189.0149" cy="-18" rx="18" ry="18"/>
<text text-anchor="middle" x="189.0149" y="-14.9" font-family="Helvetica,sans-Serif" font-size="12.00" fill="#ff0000">%</text>
</g>
<!-- B_bot&#45;&gt;R_bot -->
<!-- R_top -->
<g id="node4" class="node">
<title>R_top</title>
<ellipse fill="none" stroke="#000000" cx="216.0149" cy="-234" rx="18" ry="18"/>
<text text-anchor="middle" x="216.0149" y="-230.9" font-family="Helvetica,sans-Serif" font-size="12.00" fill="#ff0000">R</text>
</g>
<!-- bit_B0 -->
<g id="node9" class="node">
<title>bit_B0</title>
<polygon fill="none" stroke="#000000" points="198.0149,-180 171.0149,-162 198.0149,-144 225.0149,-162 198.0149,-180"/>
<text text-anchor="middle" x="198.0149" y="-157" font-family="Helvetica,sans-Serif" font-size="20.00" fill="#00bfff">&gt;</text>
</g>
<!-- R_top&#45;&gt;bit_B0 -->
<g id="edge7" class="edge">
<title>R_top:s&#45;&gt;bit_B0:n</title>
<path fill="none" stroke="#000000" d="M216.0149,-216C216.0149,-202.1643 205.2472,-198.8963 200.3681,-189.8491"/>
<polygon fill="#000000" stroke="#000000" points="203.743,-188.9129 198.0149,-180 196.9347,-190.5396 203.743,-188.9129"/>
</g>
<!-- R_bot&#45;&gt;R_top -->
<g id="edge12" class="edge">
<title>R_bot:e&#45;&gt;R_top:e</title>
<path fill="none" stroke="#ff0000" stroke-dasharray="1,5" d="M207.0149,-18C303.762,-18 330.762,-234 234.0149,-234"/>
</g>
<!-- objective -->
<g id="node6" class="node">
<title>objective</title>
<text text-anchor="start" x="105.0149" y="-303" font-family="Times" font-size="10.00" fill="#000000">Generate the required pattern (4B1R4B).</text>
</g>
<!-- bit_A0&#45;&gt;B_bot -->
<g id="edge3" class="edge">
<title>bit_A0:sw&#45;&gt;B_bot:nw</title>
<path fill="none" stroke="#000000" d="M101.0149,-151C72.567,-122.5521 63.2005,-102.136 76.0149,-64 80.5937,-50.3735 85.3357,-45.8381 93.3953,-38.3017"/>
<polygon fill="#000000" stroke="#000000" points="96.2165,-40.4459 101.0149,-31 91.3732,-35.3919 96.2165,-40.4459"/>
</g>
<!-- bit_A1 -->
<g id="node8" class="node">
<title>bit_A1</title>
<polygon fill="none" stroke="#000000" points="112.0149,-108 85.0149,-90 112.0149,-72 139.0149,-90 112.0149,-108"/>
<text text-anchor="middle" x="112.0149" y="-85" font-family="Helvetica,sans-Serif" font-size="20.00" fill="#00bfff">&gt;</text>
</g>
<!-- bit_A0&#45;&gt;bit_A1 -->
<g id="edge4" class="edge">
<title>bit_A0:se&#45;&gt;bit_A1:ne</title>
<path fill="none" stroke="#000000" d="M123.0149,-151C136.1504,-137.8645 138.3055,-122.7308 129.4801,-108.9396"/>
<polygon fill="#000000" stroke="#000000" points="132.0433,-106.5444 123.0149,-101 126.6152,-110.9644 132.0433,-106.5444"/>
</g>
<!-- bit_A1&#45;&gt;B_bot -->
<g id="edge5" class="edge">
<title>bit_A1:sw&#45;&gt;B_bot:nw</title>
<path fill="none" stroke="#000000" d="M101.0149,-79C88.5227,-66.5078 86.3756,-52.133 94.5736,-38.9936"/>
<polygon fill="#000000" stroke="#000000" points="97.4657,-40.9827 101.0149,-31 92.0151,-36.5905 97.4657,-40.9827"/>
</g>
<!-- bit_A1&#45;&gt;R_bot -->
<g id="edge6" class="edge">
<title>bit_A1:se&#45;&gt;R_bot</title>
<path fill="none" stroke="#000000" d="M123.0149,-79C137.5421,-64.4728 154.5856,-48.7521 167.7138,-36.9087"/>
<polygon fill="#000000" stroke="#000000" points="170.2181,-39.3641 175.3244,-30.0809 165.5436,-34.1536 170.2181,-39.3641"/>
</g>
<!-- bit_B0&#45;&gt;B_bot -->
<g id="edge8" class="edge">
<title>bit_B0:sw&#45;&gt;B_bot</title>
<path fill="none" stroke="#000000" d="M187.0149,-151C157.4252,-121.4102 172.345,-100.002 151.0149,-64 145.8741,-55.323 139.2183,-46.5197 132.9719,-38.9695"/>
<polygon fill="#000000" stroke="#000000" points="135.6034,-36.6614 126.4455,-31.3337 130.2821,-41.2095 135.6034,-36.6614"/>
</g>
<!-- halt -->
<g id="node10" class="node">
<title>halt</title>
<ellipse fill="none" stroke="#000000" cx="210.0149" cy="-90" rx="11" ry="11"/>
<ellipse fill="none" stroke="#000000" cx="210.0149" cy="-90" rx="15" ry="15"/>
</g>
<!-- bit_B0&#45;&gt;halt -->
<g id="edge9" class="edge">
<title>bit_B0:se&#45;&gt;halt</title>
<path fill="none" stroke="#000000" d="M209.0149,-151C218.3768,-141.6382 218.8346,-126.8752 216.8517,-114.2177"/>
<polygon fill="#000000" stroke="#000000" points="220.2376,-113.3107 214.7539,-104.2454 213.3875,-114.7517 220.2376,-113.3107"/>
</g>
<!-- halt&#45;&gt;R_bot -->
</g>
</svg>
