<?xml version="1.0" encoding="UTF-8" standalone="no"?>
<!DOCTYPE svg PUBLIC "-//W3C//DTD SVG 1.1//EN"
 "http://www.w3.org/Graphics/SVG/1.1/DTD/svg11.dtd">
<!-- Generated by graphviz version 2.40.1 (0)
 -->
<!-- Title: Challenge28 Pages: 1 -->
<svg width="254pt" height="353pt"
 viewBox="0.00 0.00 254.15 353.00" xmlns="http://www.w3.org/2000/svg" xmlns:xlink="http://www.w3.org/1999/xlink">
<g id="graph0" class="graph" transform="scale(1 1) rotate(0) translate(4 349)">
<title>Challenge28</title>
<polygon fill="#ffffff" stroke="transparent" points="-4,4 -4,-349 250.152,-349 250.152,4 -4,4"/>
<text text-anchor="middle" x="123.076" y="-331.4" font-family="Helvetica,sans-Serif" font-weight="bold" font-size="12.00" fill="#000000">Challenge #28: Latch</text>
<!-- start -->
<g id="node1" class="node">
<title>start</title>
<ellipse fill="#000000" stroke="#000000" cx="81.152" cy="-306" rx="3.96" ry="3.96"/>
</g>
<!-- B_top -->
<g id="node2" class="node">
<title>B_top</title>
<ellipse fill="none" stroke="#000000" cx="81.152" cy="-234" rx="18" ry="18"/>
<text text-anchor="middle" x="81.152" y="-230.9" font-family="Helvetica,sans-Serif" font-size="12.00" fill="#0000ff">B</text>
</g>
<!-- start&#45;&gt;B_top -->
<g id="edge1" class="edge">
<title>start&#45;&gt;B_top</title>
<path fill="none" stroke="#000000" d="M81.152,-301.7117C81.152,-294.0623 81.152,-277.4722 81.152,-262.6289"/>
<polygon fill="#000000" stroke="#000000" points="84.6521,-262.2821 81.152,-252.2821 77.6521,-262.2821 84.6521,-262.2821"/>
</g>
<!-- gbit_U -->
<g id="node7" class="node">
<title>gbit_U</title>
<polygon fill="none" stroke="#000000" stroke-width="2" points="112.152,-180 85.152,-162 112.152,-144 139.152,-162 112.152,-180"/>
<text text-anchor="middle" x="112.152" y="-157" font-family="Helvetica,sans-Serif" font-size="20.00" fill="#1874cd">}</text>
</g>
<!-- B_top&#45;&gt;gbit_U -->
<g id="edge2" class="edge">
<title>B_top&#45;&gt;gbit_U:n</title>
<path fill="none" stroke="#000000" d="M93.7609,-220.9746C100.466,-212.9527 107.9194,-201.9571 110.8594,-190.1077"/>
<polygon fill="#000000" stroke="#000000" points="114.3552,-190.3632 112.152,-180 107.4117,-189.4752 114.3552,-190.3632"/>
</g>
<!-- B_bot -->
<g id="node3" class="node">
<title>B_bot</title>
<ellipse fill="none" stroke="#000000" cx="102.152" cy="-18" rx="18" ry="18"/>
<text text-anchor="middle" x="102.152" y="-14.9" font-family="Helvetica,sans-Serif" font-size="12.00" fill="#0000ff">%</text>
</g>
<!-- B_bot&#45;&gt;B_top -->
<g id="edge7" class="edge">
<title>B_bot:w&#45;&gt;B_top:w</title>
<path fill="none" stroke="#0000ff" stroke-dasharray="1,5" d="M84.152,-18C-12.3007,-18 -33.3007,-234 63.152,-234"/>
</g>
<!-- R_bot -->
<g id="node5" class="node">
<title>R_bot</title>
<ellipse fill="none" stroke="#000000" cx="156.152" cy="-18" rx="18" ry="18"/>
<text text-anchor="middle" x="156.152" y="-14.9" font-family="Helvetica,sans-Serif" font-size="12.00" fill="#ff0000">%</text>
</g>
<!-- B_bot&#45;&gt;R_bot -->
<!-- R_top -->
<g id="node4" class="node">
<title>R_top</title>
<ellipse fill="none" stroke="#000000" cx="156.152" cy="-234" rx="18" ry="18"/>
<text text-anchor="middle" x="156.152" y="-230.9" font-family="Helvetica,sans-Serif" font-size="12.00" fill="#ff0000">R</text>
</g>
<!-- R_bot&#45;&gt;R_top -->
<g id="edge8" class="edge">
<title>R_bot:e&#45;&gt;R_top:e</title>
<path fill="none" stroke="#ff0000" stroke-dasharray="1,5" d="M174.152,-18C270.152,-18 270.152,-234 174.152,-234"/>
</g>
<!-- objective -->
<g id="node6" class="node">
<title>objective</title>
<text text-anchor="start" x="111.152" y="-303" font-family="Times" font-size="10.00" fill="#000000">Release only the blue balls.</text>
</g>
<!-- gbit_D -->
<g id="node8" class="node">
<title>gbit_D</title>
<polygon fill="none" stroke="#000000" stroke-width="2" points="94.152,-108 67.152,-90 94.152,-72 121.152,-90 94.152,-108"/>
<text text-anchor="middle" x="94.152" y="-85" font-family="Helvetica,sans-Serif" font-size="20.00" fill="#1874cd">}</text>
</g>
<!-- gbit_U&#45;&gt;gbit_D -->
<g id="edge3" class="edge">
<title>gbit_U:w&#45;&gt;gbit_D:nw</title>
<path fill="none" stroke="#000000" d="M85.152,-162C61.311,-162 63.0164,-129.6956 76.8014,-108.8494"/>
<polygon fill="#000000" stroke="#000000" points="79.5832,-110.9757 83.152,-101 74.1412,-106.5729 79.5832,-110.9757"/>
</g>
<!-- gbit_U&#45;&gt;gbit_D -->
<g id="edge5" class="edge">
<title>gbit_U:sw&#45;&gt;gbit_D:ne</title>
<path fill="none" stroke="#000000" stroke-width="2" d="M101.152,-151C85.3883,-135.2363 120.9157,-116.7637 105.152,-101"/>
</g>
<!-- p -->
<!-- gbit_U&#45;&gt;p -->
<g id="edge4" class="edge">
<title>gbit_U:e&#45;&gt;p</title>
<path fill="none" stroke="#c0c0c0" d="M139.152,-162C163.1769,-162 152.2674,-121.4472 145.3277,-101.2105"/>
<polygon fill="#c0c0c0" stroke="#c0c0c0" points="148.5979,-99.9622 141.8675,-91.7798 142.0263,-102.3734 148.5979,-99.9622"/>
</g>
<!-- gbit_D&#45;&gt;B_bot -->
<g id="edge6" class="edge">
<title>gbit_D:se&#45;&gt;B_bot</title>
<path fill="none" stroke="#000000" d="M105.152,-79C113.9381,-70.2139 114.0517,-56.6893 111.5915,-44.6055"/>
<polygon fill="#000000" stroke="#000000" points="114.9763,-43.7144 109.0535,-34.9297 108.2053,-45.4905 114.9763,-43.7144"/>
</g>
</g>
</svg>
