<?xml version="1.0" encoding="UTF-8" standalone="no"?>
<!DOCTYPE svg PUBLIC "-//W3C//DTD SVG 1.1//EN"
 "http://www.w3.org/Graphics/SVG/1.1/DTD/svg11.dtd">
<!-- Generated by graphviz version 2.40.1 (0)
 -->
<!-- Title: Challenge11 Pages: 1 -->
<svg width="260pt" height="292pt"
 viewBox="0.00 0.00 260.00 291.92" xmlns="http://www.w3.org/2000/svg" xmlns:xlink="http://www.w3.org/1999/xlink">
<g id="graph0" class="graph" transform="scale(1 1) rotate(0) translate(4 287.92)">
<title>Challenge11</title>
<polygon fill="#ffffff" stroke="transparent" points="-4,4 -4,-287.92 256,-287.92 256,4 -4,4"/>
<!-- start -->
<g id="node1" class="node">
<title>start</title>
<ellipse fill="#000000" stroke="#000000" cx="126" cy="-279.96" rx="3.96" ry="3.96"/>
</g>
<!-- B_top -->
<g id="node2" class="node">
<title>B_top</title>
<ellipse fill="none" stroke="#000000" cx="126" cy="-222" rx="18" ry="18"/>
<text text-anchor="middle" x="126" y="-218.9" font-family="Helvetica,sans-Serif" font-size="12.00" fill="#0000ff">B</text>
</g>
<!-- start&#45;&gt;B_top -->
<g id="edge1" class="edge">
<title>start&#45;&gt;B_top</title>
<path fill="none" stroke="#000000" d="M126,-275.7917C126,-270.3205 126,-260.2374 126,-250.2669"/>
<polygon fill="#000000" stroke="#000000" points="129.5001,-250.1153 126,-240.1154 122.5001,-250.1154 129.5001,-250.1153"/>
</g>
<!-- bit_T -->
<g id="node6" class="node">
<title>bit_T</title>
<polygon fill="none" stroke="#000000" points="126,-168 99,-150 126,-132 153,-150 126,-168"/>
<text text-anchor="middle" x="126" y="-145" font-family="Helvetica,sans-Serif" font-size="20.00" fill="#00bfff">&gt;</text>
</g>
<!-- B_top&#45;&gt;bit_T -->
<g id="edge2" class="edge">
<title>B_top&#45;&gt;bit_T</title>
<path fill="none" stroke="#000000" d="M126,-203.8314C126,-196.131 126,-186.9743 126,-178.4166"/>
<polygon fill="#000000" stroke="#000000" points="129.5001,-178.4132 126,-168.4133 122.5001,-178.4133 129.5001,-178.4132"/>
</g>
<!-- B_bot -->
<g id="node3" class="node">
<title>B_bot</title>
<ellipse fill="none" stroke="#000000" cx="153" cy="-18" rx="18" ry="18"/>
<text text-anchor="middle" x="153" y="-14.9" font-family="Helvetica,sans-Serif" font-size="12.00" fill="#0000ff">B</text>
</g>
<!-- R_bot -->
<g id="node5" class="node">
<title>R_bot</title>
<ellipse fill="none" stroke="#000000" cx="207" cy="-18" rx="18" ry="18"/>
<text text-anchor="middle" x="207" y="-14.9" font-family="Helvetica,sans-Serif" font-size="12.00" fill="#ff0000">R</text>
</g>
<!-- B_bot&#45;&gt;R_bot -->
<!-- R_top -->
<g id="node4" class="node">
<title>R_top</title>
<ellipse fill="none" stroke="#000000" cx="180" cy="-222" rx="18" ry="18"/>
<text text-anchor="middle" x="180" y="-218.9" font-family="Helvetica,sans-Serif" font-size="12.00" fill="#ff0000">R</text>
</g>
<!-- bit_1 -->
<g id="node7" class="node">
<title>bit_1</title>
<polygon fill="none" stroke="#000000" points="18,-96 0,-84 18,-72 36,-84 18,-96"/>
<text text-anchor="middle" x="18" y="-79" font-family="Helvetica,sans-Serif" font-size="20.00" fill="#00bfff">^</text>
</g>
<!-- bit_T&#45;&gt;bit_1 -->
<!-- bit_2 -->
<g id="node8" class="node">
<title>bit_2</title>
<polygon fill="none" stroke="#000000" points="72,-96 54,-84 72,-72 90,-84 72,-96"/>
<text text-anchor="middle" x="72" y="-79" font-family="Helvetica,sans-Serif" font-size="20.00" fill="#00bfff">^</text>
</g>
<!-- bit_T&#45;&gt;bit_2 -->
<g id="edge4" class="edge">
<title>bit_T&#45;&gt;bit_2</title>
<path fill="none" stroke="#000000" d="M116.3459,-138.2005C107.5578,-127.4595 94.518,-111.522 84.851,-99.7068"/>
<polygon fill="#000000" stroke="#000000" points="87.5583,-97.4885 78.517,-91.9652 82.1406,-101.9212 87.5583,-97.4885"/>
</g>
<!-- bit_3 -->
<g id="node9" class="node">
<title>bit_3</title>
<polygon fill="none" stroke="#000000" points="126,-96 108,-84 126,-72 144,-84 126,-96"/>
<text text-anchor="middle" x="126" y="-79" font-family="Helvetica,sans-Serif" font-size="20.00" fill="#00bfff">^</text>
</g>
<!-- bit_T&#45;&gt;bit_3 -->
<!-- bit_4 -->
<g id="node10" class="node">
<title>bit_4</title>
<polygon fill="none" stroke="#000000" points="180,-96 162,-84 180,-72 198,-84 180,-96"/>
<text text-anchor="middle" x="180" y="-79" font-family="Helvetica,sans-Serif" font-size="20.00" fill="#00bfff">^</text>
</g>
<!-- bit_T&#45;&gt;bit_4 -->
<!-- bit_5 -->
<g id="node11" class="node">
<title>bit_5</title>
<polygon fill="none" stroke="#000000" points="234,-96 216,-84 234,-72 252,-84 234,-96"/>
<text text-anchor="middle" x="234" y="-79" font-family="Helvetica,sans-Serif" font-size="20.00" fill="#00bfff">^</text>
</g>
<!-- bit_T&#45;&gt;bit_5 -->
<g id="edge7" class="edge">
<title>bit_T&#45;&gt;bit_5</title>
<path fill="none" stroke="#000000" d="M140.1191,-141.3717C159.4566,-129.5543 194.2103,-108.3159 215.5762,-95.259"/>
<polygon fill="#000000" stroke="#000000" points="217.6397,-98.0998 224.3474,-89.8988 213.9895,-92.1268 217.6397,-98.0998"/>
</g>
<!-- bit_2&#45;&gt;B_bot -->
<g id="edge8" class="edge">
<title>bit_2&#45;&gt;B_bot</title>
<path fill="none" stroke="#000000" d="M80.3633,-77.1854C92.1352,-67.5935 114.0168,-49.7641 130.6981,-36.1719"/>
<polygon fill="#000000" stroke="#000000" points="133.3248,-38.5465 138.8663,-29.5164 128.903,-33.1198 133.3248,-38.5465"/>
</g>
<!-- bit_5&#45;&gt;B_bot -->
<g id="edge9" class="edge">
<title>bit_5&#45;&gt;B_bot</title>
<path fill="none" stroke="#000000" d="M225.6367,-77.1854C213.8648,-67.5935 191.9832,-49.7641 175.3019,-36.1719"/>
<polygon fill="#000000" stroke="#000000" points="177.097,-33.1198 167.1337,-29.5164 172.6752,-38.5465 177.097,-33.1198"/>
</g>
</g>
</svg>
