<?xml version="1.0" encoding="UTF-8" standalone="no"?>
<!DOCTYPE svg PUBLIC "-//W3C//DTD SVG 1.1//EN"
 "http://www.w3.org/Graphics/SVG/1.1/DTD/svg11.dtd">
<!-- Generated by graphviz version 2.40.1 (0)
 -->
<!-- Title: Challenge24 Pages: 1 -->
<svg width="227pt" height="563pt"
 viewBox="0.00 0.00 227.12 563.00" xmlns="http://www.w3.org/2000/svg" xmlns:xlink="http://www.w3.org/1999/xlink">
<g id="graph0" class="graph" transform="scale(1 1) rotate(0) translate(4 559)">
<title>Challenge24</title>
<polygon fill="#ffffff" stroke="transparent" points="-4,4 -4,-559 223.1155,-559 223.1155,4 -4,4"/>
<text text-anchor="middle" x="109.5578" y="-541.4" font-family="Helvetica,sans-Serif" font-weight="bold" font-size="12.00" fill="#000000">Challenge #24: Ennead</text>
<g id="clust3" class="cluster">
<title>cluster_Register_A</title>
<polygon fill="none" stroke="#c0c0c0" points="65.1155,-130 65.1155,-398 135.1155,-398 135.1155,-130 65.1155,-130"/>
</g>
<!-- start -->
<g id="node1" class="node">
<title>start</title>
<ellipse fill="#000000" stroke="#000000" cx="61.1155" cy="-516" rx="3.96" ry="3.96"/>
</g>
<!-- B_top -->
<g id="node2" class="node">
<title>B_top</title>
<ellipse fill="none" stroke="#000000" cx="61.1155" cy="-444" rx="18" ry="18"/>
<text text-anchor="middle" x="61.1155" y="-440.9" font-family="Helvetica,sans-Serif" font-size="12.00" fill="#0000ff">B</text>
</g>
<!-- start&#45;&gt;B_top -->
<g id="edge1" class="edge">
<title>start&#45;&gt;B_top</title>
<path fill="none" stroke="#000000" d="M61.1155,-511.7117C61.1155,-504.0623 61.1155,-487.4722 61.1155,-472.6289"/>
<polygon fill="#000000" stroke="#000000" points="64.6156,-472.2821 61.1155,-462.2821 57.6156,-472.2821 64.6156,-472.2821"/>
</g>
<!-- bit_0 -->
<g id="node7" class="node">
<title>bit_0</title>
<polygon fill="none" stroke="#000000" points="100.1155,-390 73.1155,-372 100.1155,-354 127.1155,-372 100.1155,-390"/>
<text text-anchor="middle" x="100.1155" y="-367" font-family="Helvetica,sans-Serif" font-size="20.00" fill="#00bfff">&gt;</text>
</g>
<!-- B_top&#45;&gt;bit_0 -->
<g id="edge2" class="edge">
<title>B_top&#45;&gt;bit_0:n</title>
<path fill="none" stroke="#000000" d="M75.6377,-432.8145C84.5603,-424.8401 94.973,-413.2084 98.7001,-399.9306"/>
<polygon fill="#000000" stroke="#000000" points="102.1694,-400.3938 100.1155,-390 95.2394,-399.4061 102.1694,-400.3938"/>
</g>
<!-- B_bot -->
<g id="node3" class="node">
<title>B_bot</title>
<ellipse fill="none" stroke="#000000" cx="64.1155" cy="-18" rx="18" ry="18"/>
<text text-anchor="middle" x="64.1155" y="-14.9" font-family="Helvetica,sans-Serif" font-size="12.00" fill="#0000ff">%</text>
</g>
<!-- B_bot&#45;&gt;B_top -->
<g id="edge12" class="edge">
<title>B_bot:w&#45;&gt;B_top:w</title>
<path fill="none" stroke="#0000ff" stroke-dasharray="1,5" d="M46.1155,-18C-17.62,-18 7.1155,-92.2644 7.1155,-156 7.1155,-300 7.1155,-300 7.1155,-300 7.1155,-365.9697 -22.8542,-444 43.1155,-444"/>
</g>
<!-- R_bot -->
<g id="node5" class="node">
<title>R_bot</title>
<ellipse fill="none" stroke="#000000" cx="126.1155" cy="-18" rx="18" ry="18"/>
<text text-anchor="middle" x="126.1155" y="-14.9" font-family="Helvetica,sans-Serif" font-size="12.00" fill="#ff0000">%</text>
</g>
<!-- B_bot&#45;&gt;R_bot -->
<!-- R_top -->
<g id="node4" class="node">
<title>R_top</title>
<ellipse fill="none" stroke="#000000" cx="151.1155" cy="-444" rx="18" ry="18"/>
<text text-anchor="middle" x="151.1155" y="-440.9" font-family="Helvetica,sans-Serif" font-size="12.00" fill="#ff0000">R</text>
</g>
<!-- R_bot&#45;&gt;R_top -->
<g id="edge13" class="edge">
<title>R_bot:e&#45;&gt;R_top:e</title>
<path fill="none" stroke="#ff0000" stroke-dasharray="1,5" d="M144.1155,-18C206.4472,-18 169.1155,-93.6684 169.1155,-156 169.1155,-300 169.1155,-300 169.1155,-300 169.1155,-364 233.1155,-444 169.1155,-444"/>
</g>
<!-- objective -->
<g id="node6" class="node">
<title>objective</title>
<text text-anchor="start" x="91.1155" y="-519" font-family="Times" font-size="10.00" fill="#000000">Let exactly 9 blue balls reach</text>
<text text-anchor="start" x="91.1155" y="-508" font-family="Times" font-size="10.00" fill="#000000">the end. (Intercept the 10th.)</text>
</g>
<!-- bit_0&#45;&gt;B_bot -->
<g id="edge7" class="edge">
<title>bit_0:sw&#45;&gt;B_bot:nw</title>
<path fill="none" stroke="#000000" d="M89.1155,-361C45.0897,-316.9742 56.4106,-289.2288 45.1155,-228"/>
<path fill="none" stroke="#000000" d="M45.1155,-228C38.3821,-196.7164 50.9207,-187.469 45.1155,-156"/>
<path fill="none" stroke="#000000" d="M45.1155,-156C35.6955,-104.9356 14.815,-74.5473 44.086,-38.7339"/>
<polygon fill="#000000" stroke="#000000" points="46.9795,-40.7542 51.1155,-31 41.7994,-36.0459 46.9795,-40.7542"/>
</g>
<!-- bit_1 -->
<g id="node8" class="node">
<title>bit_1</title>
<polygon fill="none" stroke="#000000" points="100.1155,-318 73.1155,-300 100.1155,-282 127.1155,-300 100.1155,-318"/>
<text text-anchor="middle" x="100.1155" y="-295" font-family="Helvetica,sans-Serif" font-size="20.00" fill="#00bfff">&lt;</text>
</g>
<!-- bit_0&#45;&gt;bit_1 -->
<g id="edge3" class="edge">
<title>bit_0:se&#45;&gt;bit_1:ne</title>
<path fill="none" stroke="#000000" d="M111.1155,-361C124.251,-347.8645 126.4061,-332.7308 117.5807,-318.9396"/>
<polygon fill="#000000" stroke="#000000" points="120.1439,-316.5444 111.1155,-311 114.7158,-320.9644 120.1439,-316.5444"/>
</g>
<!-- bit_1&#45;&gt;B_bot -->
<g id="edge8" class="edge">
<title>bit_1:sw&#45;&gt;B_bot:nw</title>
<path fill="none" stroke="#000000" d="M89.1155,-289C65.4784,-265.3628 51.1798,-260.8733 45.1155,-228"/>
</g>
<!-- bit_2 -->
<g id="node9" class="node">
<title>bit_2</title>
<polygon fill="none" stroke="#000000" points="100.1155,-246 73.1155,-228 100.1155,-210 127.1155,-228 100.1155,-246"/>
<text text-anchor="middle" x="100.1155" y="-223" font-family="Helvetica,sans-Serif" font-size="20.00" fill="#00bfff">&lt;</text>
</g>
<!-- bit_1&#45;&gt;bit_2 -->
<g id="edge4" class="edge">
<title>bit_1:se&#45;&gt;bit_2:ne</title>
<path fill="none" stroke="#000000" d="M111.1155,-289C124.251,-275.8645 126.4061,-260.7308 117.5807,-246.9396"/>
<polygon fill="#000000" stroke="#000000" points="120.1439,-244.5444 111.1155,-239 114.7158,-248.9644 120.1439,-244.5444"/>
</g>
<!-- bit_2&#45;&gt;B_bot -->
<g id="edge9" class="edge">
<title>bit_2:sw&#45;&gt;B_bot:nw</title>
<path fill="none" stroke="#000000" d="M89.1155,-217C65.4784,-193.3628 51.1798,-188.8733 45.1155,-156"/>
</g>
<!-- bit_3 -->
<g id="node10" class="node">
<title>bit_3</title>
<polygon fill="none" stroke="#000000" points="100.1155,-174 73.1155,-156 100.1155,-138 127.1155,-156 100.1155,-174"/>
<text text-anchor="middle" x="100.1155" y="-151" font-family="Helvetica,sans-Serif" font-size="20.00" fill="#00bfff">&gt;</text>
</g>
<!-- bit_2&#45;&gt;bit_3 -->
<g id="edge5" class="edge">
<title>bit_2:se&#45;&gt;bit_3:ne</title>
<path fill="none" stroke="#000000" d="M111.1155,-217C124.251,-203.8645 126.4061,-188.7308 117.5807,-174.9396"/>
<polygon fill="#000000" stroke="#000000" points="120.1439,-172.5444 111.1155,-167 114.7158,-176.9644 120.1439,-172.5444"/>
</g>
<!-- bit_3&#45;&gt;B_bot -->
<g id="edge6" class="edge">
<title>bit_3:sw&#45;&gt;B_bot:ne</title>
<path fill="none" stroke="#000000" d="M89.1155,-145C55.7646,-111.649 104.7558,-73.2191 83.6276,-39.1142"/>
<polygon fill="#000000" stroke="#000000" points="86.1043,-36.6083 77.1155,-31 80.645,-40.9897 86.1043,-36.6083"/>
</g>
<!-- halt -->
<g id="node11" class="node">
<title>halt</title>
<ellipse fill="none" stroke="#000000" cx="126.1155" cy="-87" rx="11" ry="11"/>
<ellipse fill="none" stroke="#000000" cx="126.1155" cy="-87" rx="15" ry="15"/>
</g>
<!-- bit_3&#45;&gt;halt -->
<g id="edge10" class="edge">
<title>bit_3:se&#45;&gt;halt</title>
<path fill="none" stroke="#000000" d="M111.1155,-145C119.6426,-136.4729 123.5226,-123.7724 125.2158,-112.4279"/>
<polygon fill="#000000" stroke="#000000" points="128.7314,-112.4474 126.2494,-102.1474 121.7665,-111.747 128.7314,-112.4474"/>
</g>
<!-- halt&#45;&gt;R_bot -->
</g>
</svg>
