<?xml version="1.0" encoding="UTF-8" standalone="no"?>
<!DOCTYPE svg PUBLIC "-//W3C//DTD SVG 1.1//EN"
 "http://www.w3.org/Graphics/SVG/1.1/DTD/svg11.dtd">
<!-- Generated by graphviz version 2.40.1 (0)
 -->
<!-- Title: Challenge27 Pages: 1 -->
<svg width="285pt" height="574pt"
 viewBox="0.00 0.00 284.88 574.00" xmlns="http://www.w3.org/2000/svg" xmlns:xlink="http://www.w3.org/1999/xlink">
<g id="graph0" class="graph" transform="scale(1 1) rotate(0) translate(4 570)">
<title>Challenge27</title>
<polygon fill="#ffffff" stroke="transparent" points="-4,4 -4,-570 280.8793,-570 280.8793,4 -4,4"/>
<text text-anchor="middle" x="138.4397" y="-552.4" font-family="Helvetica,sans-Serif" font-weight="bold" font-size="12.00" fill="#000000">Challenge #27: Reflection</text>
<!-- start -->
<g id="node1" class="node">
<title>start</title>
<ellipse fill="#000000" stroke="#000000" cx="54.8793" cy="-524.5" rx="3.96" ry="3.96"/>
</g>
<!-- B_top -->
<g id="node2" class="node">
<title>B_top</title>
<ellipse fill="none" stroke="#000000" cx="54.8793" cy="-450" rx="18" ry="18"/>
<text text-anchor="middle" x="54.8793" y="-446.9" font-family="Helvetica,sans-Serif" font-size="12.00" fill="#0000ff">B</text>
</g>
<!-- start&#45;&gt;B_top -->
<g id="edge1" class="edge">
<title>start&#45;&gt;B_top</title>
<path fill="none" stroke="#000000" d="M54.8793,-520.4946C54.8793,-512.5609 54.8793,-494.2324 54.8793,-478.2532"/>
<polygon fill="#000000" stroke="#000000" points="58.3794,-478.2247 54.8793,-468.2248 51.3794,-478.2248 58.3794,-478.2247"/>
</g>
<!-- bit_T -->
<g id="node7" class="node">
<title>bit_T</title>
<polygon fill="none" stroke="#000000" points="78.8793,-396 51.8793,-378 78.8793,-360 105.8793,-378 78.8793,-396"/>
<text text-anchor="middle" x="78.8793" y="-373" font-family="Helvetica,sans-Serif" font-size="20.00" fill="#00bfff">&gt;</text>
</g>
<!-- B_top&#45;&gt;bit_T -->
<g id="edge2" class="edge">
<title>B_top&#45;&gt;bit_T:n</title>
<path fill="none" stroke="#000000" d="M65.4759,-435.1816C70.3983,-427.1899 75.6401,-416.767 77.8268,-405.9663"/>
<polygon fill="#000000" stroke="#000000" points="81.3097,-406.3123 78.8793,-396 74.3484,-405.5771 81.3097,-406.3123"/>
</g>
<!-- B_bot -->
<g id="node3" class="node">
<title>B_bot</title>
<ellipse fill="none" stroke="#000000" cx="65.8793" cy="-18" rx="18" ry="18"/>
<text text-anchor="middle" x="65.8793" y="-14.9" font-family="Helvetica,sans-Serif" font-size="12.00" fill="#0000ff">%</text>
</g>
<!-- B_bot&#45;&gt;B_top -->
<g id="edge28" class="edge">
<title>B_bot:w&#45;&gt;B_top:w</title>
<path fill="none" stroke="#0000ff" stroke-dasharray="1,5" d="M47.8793,-18C-17.984,-18 12.8793,-96.1367 12.8793,-162 12.8793,-306 12.8793,-306 12.8793,-306 12.8793,-370.8828 -28.0035,-450 36.8793,-450"/>
</g>
<!-- R_bot -->
<g id="node5" class="node">
<title>R_bot</title>
<ellipse fill="none" stroke="#000000" cx="139.8793" cy="-18" rx="18" ry="18"/>
<text text-anchor="middle" x="139.8793" y="-14.9" font-family="Helvetica,sans-Serif" font-size="12.00" fill="#ff0000">%</text>
</g>
<!-- B_bot&#45;&gt;R_bot -->
<!-- R_top -->
<g id="node4" class="node">
<title>R_top</title>
<ellipse fill="none" stroke="#000000" cx="212.8793" cy="-450" rx="18" ry="18"/>
<text text-anchor="middle" x="212.8793" y="-446.9" font-family="Helvetica,sans-Serif" font-size="12.00" fill="#ff0000">R</text>
</g>
<!-- bit_R -->
<g id="node16" class="node">
<title>bit_R</title>
<polygon fill="none" stroke="#000000" points="249.8793,-396 222.8793,-378 249.8793,-360 276.8793,-378 249.8793,-396"/>
<text text-anchor="middle" x="249.8793" y="-373" font-family="Helvetica,sans-Serif" font-size="20.00" fill="#00bfff">^</text>
</g>
<!-- R_top&#45;&gt;bit_R -->
<g id="edge21" class="edge">
<title>R_top&#45;&gt;bit_R:n</title>
<path fill="none" stroke="#000000" d="M227.0787,-438.2572C235.3934,-430.2746 244.9352,-418.8611 248.4685,-406.0427"/>
<polygon fill="#000000" stroke="#000000" points="251.954,-406.3897 249.8793,-396 245.0221,-405.4158 251.954,-406.3897"/>
</g>
<!-- R_bot&#45;&gt;R_top -->
<g id="edge29" class="edge">
<title>R_bot:e&#45;&gt;R_top:e</title>
<path fill="none" stroke="#ff0000" stroke-dasharray="1,5" d="M157.8793,-18C223.9582,-18 194.8793,-95.9211 194.8793,-162 194.8793,-306 194.8793,-306 194.8793,-306 194.8793,-346.8816 200.8403,-357.2535 213.8793,-396 219.5228,-412.7701 227.0077,-414.7345 230.8793,-432 232.6298,-439.8061 238.8793,-450 230.8793,-450"/>
</g>
<!-- objective -->
<g id="node6" class="node">
<title>objective</title>
<text text-anchor="start" x="84.8793" y="-532.5" font-family="Times" font-size="10.00" fill="#000000">Reverse the direction of each of</text>
<text text-anchor="start" x="84.8793" y="-521.5" font-family="Times" font-size="10.00" fill="#000000">the 9 starting bits, regardless of</text>
<text text-anchor="start" x="84.8793" y="-510.5" font-family="Times" font-size="10.00" fill="#000000">of the direction they point to start</text>
</g>
<!-- bit_A0 -->
<g id="node8" class="node">
<title>bit_A0</title>
<polygon fill="none" stroke="#000000" points="67.8793,-324 40.8793,-306 67.8793,-288 94.8793,-306 67.8793,-324"/>
<text text-anchor="middle" x="67.8793" y="-301" font-family="Helvetica,sans-Serif" font-size="20.00" fill="#00bfff">^</text>
</g>
<!-- bit_T&#45;&gt;bit_A0 -->
<g id="edge3" class="edge">
<title>bit_T:sw&#45;&gt;bit_A0:n</title>
<path fill="none" stroke="#000000" d="M67.8793,-367C57.0051,-356.1258 63.6316,-347.2837 66.6349,-334.2867"/>
<polygon fill="#000000" stroke="#000000" points="70.1529,-334.348 67.8793,-324 63.2036,-333.5072 70.1529,-334.348"/>
</g>
<!-- bit_B0 -->
<g id="node12" class="node">
<title>bit_B0</title>
<polygon fill="none" stroke="#000000" points="139.8793,-324 112.8793,-306 139.8793,-288 166.8793,-306 139.8793,-324"/>
<text text-anchor="middle" x="139.8793" y="-301" font-family="Helvetica,sans-Serif" font-size="20.00" fill="#00bfff">^</text>
</g>
<!-- bit_T&#45;&gt;bit_B0 -->
<g id="edge4" class="edge">
<title>bit_T:se&#45;&gt;bit_B0:n</title>
<path fill="none" stroke="#000000" d="M89.8793,-367C107.8519,-349.0274 132.254,-351.9308 138.4188,-333.905"/>
<polygon fill="#000000" stroke="#000000" points="141.883,-334.4036 139.8793,-324 134.9579,-333.3824 141.883,-334.4036"/>
</g>
<!-- bit_A1 -->
<g id="node9" class="node">
<title>bit_A1</title>
<polygon fill="none" stroke="#000000" points="67.8793,-252 40.8793,-234 67.8793,-216 94.8793,-234 67.8793,-252"/>
<text text-anchor="middle" x="67.8793" y="-229" font-family="Helvetica,sans-Serif" font-size="20.00" fill="#00bfff">^</text>
</g>
<!-- bit_A0&#45;&gt;bit_A1 -->
<g id="edge5" class="edge">
<title>bit_A0:sw&#45;&gt;bit_A1:nw</title>
<path fill="none" stroke="#000000" d="M56.8793,-295C43.7438,-281.8645 41.5888,-266.7308 50.4142,-252.9396"/>
<polygon fill="#000000" stroke="#000000" points="53.2791,-254.9644 56.8793,-245 47.851,-250.5444 53.2791,-254.9644"/>
</g>
<!-- bit_A0&#45;&gt;bit_A1 -->
<g id="edge6" class="edge">
<title>bit_A0:se&#45;&gt;bit_A1:ne</title>
<path fill="none" stroke="#000000" d="M78.8793,-295C92.0148,-281.8645 94.1699,-266.7308 85.3445,-252.9396"/>
<polygon fill="#000000" stroke="#000000" points="87.9077,-250.5444 78.8793,-245 82.4796,-254.9644 87.9077,-250.5444"/>
</g>
<!-- bit_A0&#45;&gt;bit_B0 -->
<!-- bit_A2 -->
<g id="node10" class="node">
<title>bit_A2</title>
<polygon fill="none" stroke="#000000" points="67.8793,-180 40.8793,-162 67.8793,-144 94.8793,-162 67.8793,-180"/>
<text text-anchor="middle" x="67.8793" y="-157" font-family="Helvetica,sans-Serif" font-size="20.00" fill="#00bfff">^</text>
</g>
<!-- bit_A1&#45;&gt;bit_A2 -->
<g id="edge7" class="edge">
<title>bit_A1:sw&#45;&gt;bit_A2:nw</title>
<path fill="none" stroke="#000000" d="M56.8793,-223C43.7438,-209.8645 41.5888,-194.7308 50.4142,-180.9396"/>
<polygon fill="#000000" stroke="#000000" points="53.2791,-182.9644 56.8793,-173 47.851,-178.5444 53.2791,-182.9644"/>
</g>
<!-- bit_A1&#45;&gt;bit_A2 -->
<g id="edge8" class="edge">
<title>bit_A1:se&#45;&gt;bit_A2:ne</title>
<path fill="none" stroke="#000000" d="M78.8793,-223C92.0148,-209.8645 94.1699,-194.7308 85.3445,-180.9396"/>
<polygon fill="#000000" stroke="#000000" points="87.9077,-178.5444 78.8793,-173 82.4796,-182.9644 87.9077,-178.5444"/>
</g>
<!-- bit_B1 -->
<g id="node13" class="node">
<title>bit_B1</title>
<polygon fill="none" stroke="#000000" points="139.8793,-252 112.8793,-234 139.8793,-216 166.8793,-234 139.8793,-252"/>
<text text-anchor="middle" x="139.8793" y="-229" font-family="Helvetica,sans-Serif" font-size="20.00" fill="#00bfff">^</text>
</g>
<!-- bit_A1&#45;&gt;bit_B1 -->
<!-- bit_A3 -->
<g id="node11" class="node">
<title>bit_A3</title>
<polygon fill="none" stroke="#000000" points="67.8793,-108 40.8793,-90 67.8793,-72 94.8793,-90 67.8793,-108"/>
<text text-anchor="middle" x="67.8793" y="-85" font-family="Helvetica,sans-Serif" font-size="20.00" fill="#00bfff">^</text>
</g>
<!-- bit_A2&#45;&gt;bit_A3 -->
<g id="edge9" class="edge">
<title>bit_A2:sw&#45;&gt;bit_A3:nw</title>
<path fill="none" stroke="#000000" d="M56.8793,-151C43.7438,-137.8645 41.5888,-122.7308 50.4142,-108.9396"/>
<polygon fill="#000000" stroke="#000000" points="53.2791,-110.9644 56.8793,-101 47.851,-106.5444 53.2791,-110.9644"/>
</g>
<!-- bit_A2&#45;&gt;bit_A3 -->
<g id="edge10" class="edge">
<title>bit_A2:se&#45;&gt;bit_A3:ne</title>
<path fill="none" stroke="#000000" d="M78.8793,-151C92.0148,-137.8645 94.1699,-122.7308 85.3445,-108.9396"/>
<polygon fill="#000000" stroke="#000000" points="87.9077,-106.5444 78.8793,-101 82.4796,-110.9644 87.9077,-106.5444"/>
</g>
<!-- bit_B2 -->
<g id="node14" class="node">
<title>bit_B2</title>
<polygon fill="none" stroke="#000000" points="139.8793,-180 112.8793,-162 139.8793,-144 166.8793,-162 139.8793,-180"/>
<text text-anchor="middle" x="139.8793" y="-157" font-family="Helvetica,sans-Serif" font-size="20.00" fill="#00bfff">^</text>
</g>
<!-- bit_A2&#45;&gt;bit_B2 -->
<!-- bit_A3&#45;&gt;B_bot -->
<g id="edge11" class="edge">
<title>bit_A3:sw&#45;&gt;B_bot</title>
<path fill="none" stroke="#000000" d="M56.8793,-79C47.6812,-69.8018 49.243,-55.5918 53.4224,-43.2004"/>
<polygon fill="#000000" stroke="#000000" points="56.7247,-44.3681 57.1798,-33.7831 50.2231,-41.774 56.7247,-44.3681"/>
</g>
<!-- bit_A3&#45;&gt;B_bot -->
<g id="edge12" class="edge">
<title>bit_A3:se&#45;&gt;B_bot</title>
<path fill="none" stroke="#000000" d="M78.8793,-79C88.3975,-69.4819 85.6062,-54.8237 80.216,-42.2618"/>
<polygon fill="#000000" stroke="#000000" points="83.3044,-40.6108 75.7482,-33.1841 77.0238,-43.7019 83.3044,-40.6108"/>
</g>
<!-- bit_B3 -->
<g id="node15" class="node">
<title>bit_B3</title>
<polygon fill="none" stroke="#000000" points="139.8793,-108 112.8793,-90 139.8793,-72 166.8793,-90 139.8793,-108"/>
<text text-anchor="middle" x="139.8793" y="-85" font-family="Helvetica,sans-Serif" font-size="20.00" fill="#00bfff">^</text>
</g>
<!-- bit_A3&#45;&gt;bit_B3 -->
<!-- bit_B0&#45;&gt;bit_B1 -->
<g id="edge13" class="edge">
<title>bit_B0:sw&#45;&gt;bit_B1:nw</title>
<path fill="none" stroke="#000000" d="M128.8793,-295C115.7438,-281.8645 113.5888,-266.7308 122.4142,-252.9396"/>
<polygon fill="#000000" stroke="#000000" points="125.2791,-254.9644 128.8793,-245 119.851,-250.5444 125.2791,-254.9644"/>
</g>
<!-- bit_B0&#45;&gt;bit_B1 -->
<g id="edge14" class="edge">
<title>bit_B0:se&#45;&gt;bit_B1:ne</title>
<path fill="none" stroke="#000000" d="M150.8793,-295C164.0148,-281.8645 166.1699,-266.7308 157.3445,-252.9396"/>
<polygon fill="#000000" stroke="#000000" points="159.9077,-250.5444 150.8793,-245 154.4796,-254.9644 159.9077,-250.5444"/>
</g>
<!-- bit_B1&#45;&gt;bit_B2 -->
<g id="edge15" class="edge">
<title>bit_B1:sw&#45;&gt;bit_B2:nw</title>
<path fill="none" stroke="#000000" d="M128.8793,-223C115.7438,-209.8645 113.5888,-194.7308 122.4142,-180.9396"/>
<polygon fill="#000000" stroke="#000000" points="125.2791,-182.9644 128.8793,-173 119.851,-178.5444 125.2791,-182.9644"/>
</g>
<!-- bit_B1&#45;&gt;bit_B2 -->
<g id="edge16" class="edge">
<title>bit_B1:se&#45;&gt;bit_B2:ne</title>
<path fill="none" stroke="#000000" d="M150.8793,-223C164.0148,-209.8645 166.1699,-194.7308 157.3445,-180.9396"/>
<polygon fill="#000000" stroke="#000000" points="159.9077,-178.5444 150.8793,-173 154.4796,-182.9644 159.9077,-178.5444"/>
</g>
<!-- bit_B2&#45;&gt;bit_B3 -->
<g id="edge17" class="edge">
<title>bit_B2:sw&#45;&gt;bit_B3:nw</title>
<path fill="none" stroke="#000000" d="M128.8793,-151C115.7438,-137.8645 113.5888,-122.7308 122.4142,-108.9396"/>
<polygon fill="#000000" stroke="#000000" points="125.2791,-110.9644 128.8793,-101 119.851,-106.5444 125.2791,-110.9644"/>
</g>
<!-- bit_B2&#45;&gt;bit_B3 -->
<g id="edge18" class="edge">
<title>bit_B2:se&#45;&gt;bit_B3:ne</title>
<path fill="none" stroke="#000000" d="M150.8793,-151C164.0148,-137.8645 166.1699,-122.7308 157.3445,-108.9396"/>
<polygon fill="#000000" stroke="#000000" points="159.9077,-106.5444 150.8793,-101 154.4796,-110.9644 159.9077,-106.5444"/>
</g>
<!-- bit_B3&#45;&gt;R_bot -->
<g id="edge19" class="edge">
<title>bit_B3:sw&#45;&gt;R_bot</title>
<path fill="none" stroke="#000000" d="M128.8793,-79C119.5729,-69.6935 121.6695,-55.3564 126.3977,-42.9195"/>
<polygon fill="#000000" stroke="#000000" points="129.7273,-44.0452 130.5862,-33.4852 123.3295,-41.2047 129.7273,-44.0452"/>
</g>
<!-- bit_B3&#45;&gt;R_bot -->
<g id="edge20" class="edge">
<title>bit_B3:se&#45;&gt;R_bot</title>
<path fill="none" stroke="#000000" d="M150.8793,-79C160.1858,-69.6935 158.0891,-55.3564 153.361,-42.9195"/>
<polygon fill="#000000" stroke="#000000" points="156.4292,-41.2047 149.1724,-33.4852 150.0313,-44.0452 156.4292,-41.2047"/>
</g>
<!-- halt -->
<g id="node17" class="node">
<title>halt</title>
<ellipse fill="none" stroke="#000000" cx="249.8793" cy="-306" rx="11" ry="11"/>
<ellipse fill="none" stroke="#000000" cx="249.8793" cy="-306" rx="15" ry="15"/>
</g>
<!-- bit_R&#45;&gt;halt -->
<g id="edge22" class="edge">
<title>bit_R:sw&#45;&gt;halt</title>
<path fill="none" stroke="#000000" d="M238.8793,-367C228.8744,-356.995 232.0485,-341.1758 237.5031,-328.1542"/>
<polygon fill="#000000" stroke="#000000" points="240.7795,-329.4156 241.9383,-318.8844 234.465,-326.3944 240.7795,-329.4156"/>
</g>
<!-- bit_R&#45;&gt;halt -->
<g id="edge23" class="edge">
<title>bit_R:se&#45;&gt;halt</title>
<path fill="none" stroke="#000000" d="M260.8793,-367C270.8843,-356.995 267.7102,-341.1758 262.2556,-328.1542"/>
<polygon fill="#000000" stroke="#000000" points="265.2936,-326.3944 257.8204,-318.8844 258.9792,-329.4156 265.2936,-326.3944"/>
</g>
</g>
</svg>
