<?xml version="1.0" encoding="UTF-8" standalone="no"?>
<!DOCTYPE svg PUBLIC "-//W3C//DTD SVG 1.1//EN"
 "http://www.w3.org/Graphics/SVG/1.1/DTD/svg11.dtd">
<!-- Generated by graphviz version 2.40.1 (0)
 -->
<!-- Title: Challenge17 Pages: 1 -->
<svg width="405pt" height="419pt"
 viewBox="0.00 0.00 405.21 419.00" xmlns="http://www.w3.org/2000/svg" xmlns:xlink="http://www.w3.org/1999/xlink">
<g id="graph0" class="graph" transform="scale(1 1) rotate(0) translate(4 415)">
<title>Challenge17</title>
<polygon fill="#ffffff" stroke="transparent" points="-4,4 -4,-415 401.2073,-415 401.2073,4 -4,4"/>
<text text-anchor="middle" x="198.6037" y="-397.4" font-family="Helvetica,sans-Serif" font-weight="bold" font-size="12.00" fill="#000000">Challenge #17: Fixed Ratio</text>
<!-- start -->
<g id="node1" class="node">
<title>start</title>
<ellipse fill="#000000" stroke="#000000" cx="102.5818" cy="-372" rx="3.96" ry="3.96"/>
</g>
<!-- B_top -->
<g id="node2" class="node">
<title>B_top</title>
<ellipse fill="none" stroke="#000000" cx="102.5818" cy="-300" rx="18" ry="18"/>
<text text-anchor="middle" x="102.5818" y="-296.9" font-family="Helvetica,sans-Serif" font-size="12.00" fill="#0000ff">B</text>
</g>
<!-- start&#45;&gt;B_top -->
<g id="edge1" class="edge">
<title>start&#45;&gt;B_top</title>
<path fill="none" stroke="#000000" d="M102.5818,-367.7117C102.5818,-360.0623 102.5818,-343.4722 102.5818,-328.6289"/>
<polygon fill="#000000" stroke="#000000" points="106.0819,-328.2821 102.5818,-318.2821 99.0819,-328.2821 106.0819,-328.2821"/>
</g>
<!-- bit_left_0 -->
<g id="node7" class="node">
<title>bit_left_0</title>
<polygon fill="none" stroke="#000000" points="121.5818,-246 94.5818,-228 121.5818,-210 148.5818,-228 121.5818,-246"/>
<text text-anchor="middle" x="121.5818" y="-223" font-family="Helvetica,sans-Serif" font-size="20.00" fill="#00bfff">&lt;</text>
</g>
<!-- B_top&#45;&gt;bit_left_0 -->
<g id="edge2" class="edge">
<title>B_top&#45;&gt;bit_left_0:n</title>
<path fill="none" stroke="#000000" d="M111.4144,-283.9707C115.1357,-276.109 118.9942,-266.1724 120.6909,-256.0771"/>
<polygon fill="#000000" stroke="#000000" points="124.1875,-256.2694 121.5818,-246 117.2147,-255.6529 124.1875,-256.2694"/>
</g>
<!-- B_bot -->
<g id="node3" class="node">
<title>B_bot</title>
<ellipse fill="none" stroke="#000000" cx="123.5818" cy="-18" rx="18" ry="18"/>
<text text-anchor="middle" x="123.5818" y="-14.9" font-family="Helvetica,sans-Serif" font-size="12.00" fill="#0000ff">%</text>
</g>
<!-- B_bot&#45;&gt;B_top -->
<g id="edge13" class="edge">
<title>B_bot:w&#45;&gt;B_top:w</title>
<path fill="none" stroke="#0000ff" stroke-dasharray="1,5" d="M105.5818,-18C-20.0985,-18 -41.0985,-300 84.5818,-300"/>
</g>
<!-- R_bot -->
<g id="node5" class="node">
<title>R_bot</title>
<ellipse fill="none" stroke="#000000" cx="253.5818" cy="-18" rx="18" ry="18"/>
<text text-anchor="middle" x="253.5818" y="-14.9" font-family="Helvetica,sans-Serif" font-size="12.00" fill="#ff0000">%</text>
</g>
<!-- B_bot&#45;&gt;R_bot -->
<!-- R_top -->
<g id="node4" class="node">
<title>R_top</title>
<ellipse fill="none" stroke="#000000" cx="305.5818" cy="-300" rx="18" ry="18"/>
<text text-anchor="middle" x="305.5818" y="-296.9" font-family="Helvetica,sans-Serif" font-size="12.00" fill="#ff0000">R</text>
</g>
<!-- bit_right_0 -->
<g id="node8" class="node">
<title>bit_right_0</title>
<polygon fill="none" stroke="#000000" points="287.5818,-246 260.5818,-228 287.5818,-210 314.5818,-228 287.5818,-246"/>
<text text-anchor="middle" x="287.5818" y="-223" font-family="Helvetica,sans-Serif" font-size="20.00" fill="#00bfff">&lt;</text>
</g>
<!-- R_top&#45;&gt;bit_right_0 -->
<g id="edge7" class="edge">
<title>R_top&#45;&gt;bit_right_0:n</title>
<path fill="none" stroke="#000000" d="M297.2142,-283.9193C293.6887,-276.0423 290.0333,-266.0998 288.4259,-256.0344"/>
<polygon fill="#000000" stroke="#000000" points="291.9078,-255.6714 287.5818,-246 284.9324,-256.2582 291.9078,-255.6714"/>
</g>
<!-- R_bot&#45;&gt;R_top -->
<g id="edge14" class="edge">
<title>R_bot:e&#45;&gt;R_top:e</title>
<path fill="none" stroke="#ff0000" stroke-dasharray="1,5" d="M271.5818,-18C399.0282,-18 451.0282,-300 323.5818,-300"/>
</g>
<!-- objective -->
<g id="node6" class="node">
<title>objective</title>
<text text-anchor="start" x="132.5818" y="-375" font-family="Times" font-size="10.00" fill="#000000">Make the pattern blue, blue, blue,</text>
<text text-anchor="start" x="132.5818" y="-364" font-family="Times" font-size="10.00" fill="#000000">red, red, red.</text>
</g>
<!-- bit_left_0&#45;&gt;B_bot -->
<g id="edge4" class="edge">
<title>bit_left_0:sw&#45;&gt;B_bot</title>
<path fill="none" stroke="#000000" d="M110.5818,-217C64.7993,-171.2174 92.8422,-86.1309 111.2825,-43.5944"/>
<polygon fill="#000000" stroke="#000000" points="114.5855,-44.7829 115.4894,-34.2267 108.1998,-41.9152 114.5855,-44.7829"/>
</g>
<!-- bit_left_1 -->
<g id="node9" class="node">
<title>bit_left_1</title>
<polygon fill="none" stroke="#000000" points="159.5818,-174 132.5818,-156 159.5818,-138 186.5818,-156 159.5818,-174"/>
<text text-anchor="middle" x="159.5818" y="-151" font-family="Helvetica,sans-Serif" font-size="20.00" fill="#00bfff">&gt;</text>
</g>
<!-- bit_left_0&#45;&gt;bit_left_1 -->
<g id="edge3" class="edge">
<title>bit_left_0:se&#45;&gt;bit_left_1:n</title>
<path fill="none" stroke="#000000" d="M132.5818,-217C145.796,-203.7858 155.6406,-198.4443 158.6343,-184.1827"/>
<polygon fill="#000000" stroke="#000000" points="162.1401,-184.2813 159.5818,-174 155.1702,-183.6327 162.1401,-184.2813"/>
</g>
<!-- bit_right_0&#45;&gt;R_bot -->
<g id="edge8" class="edge">
<title>bit_right_0:se&#45;&gt;R_bot</title>
<path fill="none" stroke="#000000" d="M298.5818,-217C346.417,-169.1649 297.8323,-81.9449 270.0701,-40.7294"/>
<polygon fill="#000000" stroke="#000000" points="272.9038,-38.6736 264.3415,-32.4336 267.1437,-42.6512 272.9038,-38.6736"/>
</g>
<!-- bit_right_1 -->
<g id="node10" class="node">
<title>bit_right_1</title>
<polygon fill="none" stroke="#000000" points="249.5818,-174 222.5818,-156 249.5818,-138 276.5818,-156 249.5818,-174"/>
<text text-anchor="middle" x="249.5818" y="-151" font-family="Helvetica,sans-Serif" font-size="20.00" fill="#00bfff">&lt;</text>
</g>
<!-- bit_right_0&#45;&gt;bit_right_1 -->
<g id="edge9" class="edge">
<title>bit_right_0:sw&#45;&gt;bit_right_1:n</title>
<path fill="none" stroke="#000000" d="M276.5818,-217C263.3677,-203.7858 253.5231,-198.4443 250.5294,-184.1827"/>
<polygon fill="#000000" stroke="#000000" points="253.9934,-183.6327 249.5818,-174 247.0235,-184.2813 253.9934,-183.6327"/>
</g>
<!-- bit_left_1&#45;&gt;B_bot -->
<g id="edge6" class="edge">
<title>bit_left_1:sw&#45;&gt;B_bot</title>
<path fill="none" stroke="#000000" d="M148.5818,-145C122.7973,-119.2155 119.656,-75.0921 120.8122,-46.2384"/>
<polygon fill="#000000" stroke="#000000" points="124.3214,-46.1896 121.4275,-35.9976 117.334,-45.7697 124.3214,-46.1896"/>
</g>
<!-- bit_left_1&#45;&gt;R_bot -->
<g id="edge5" class="edge">
<title>bit_left_1:se&#45;&gt;R_bot:nw</title>
<path fill="none" stroke="#000000" d="M170.5818,-145C195.2675,-120.3143 180.3982,-101.1677 199.5818,-72 211.6406,-53.6653 219.6793,-50.0394 233.0526,-38.1144"/>
<polygon fill="#000000" stroke="#000000" points="235.7171,-40.412 240.5818,-31 230.9095,-35.324 235.7171,-40.412"/>
</g>
<!-- bit_right_1&#45;&gt;R_bot -->
<g id="edge10" class="edge">
<title>bit_right_1:se&#45;&gt;R_bot:n</title>
<path fill="none" stroke="#000000" d="M260.5818,-145C292.4272,-113.1546 259.1597,-88.3636 254.1851,-46.1846"/>
<polygon fill="#000000" stroke="#000000" points="257.6671,-45.7755 253.5818,-36 250.6794,-46.1895 257.6671,-45.7755"/>
</g>
<!-- halt -->
<g id="node11" class="node">
<title>halt</title>
<ellipse fill="none" stroke="#000000" cx="223.5818" cy="-87" rx="11" ry="11"/>
<ellipse fill="none" stroke="#000000" cx="223.5818" cy="-87" rx="15" ry="15"/>
</g>
<!-- bit_right_1&#45;&gt;halt -->
<g id="edge11" class="edge">
<title>bit_right_1:sw&#45;&gt;halt</title>
<path fill="none" stroke="#000000" d="M238.5818,-145C230.0547,-136.4729 226.1747,-123.7724 224.4815,-112.4279"/>
<polygon fill="#000000" stroke="#000000" points="227.9308,-111.747 223.4479,-102.1474 220.9659,-112.4474 227.9308,-111.747"/>
</g>
<!-- halt&#45;&gt;R_bot -->
</g>
</svg>
