<?xml version="1.0" encoding="UTF-8" standalone="no"?>
<!DOCTYPE svg PUBLIC "-//W3C//DTD SVG 1.1//EN"
 "http://www.w3.org/Graphics/SVG/1.1/DTD/svg11.dtd">
<!-- Generated by graphviz version 2.40.1 (0)
 -->
<!-- Title: Challenge22 Pages: 1 -->
<svg width="261pt" height="502pt"
 viewBox="0.00 0.00 261.12 502.00" xmlns="http://www.w3.org/2000/svg" xmlns:xlink="http://www.w3.org/1999/xlink">
<g id="graph0" class="graph" transform="scale(1 1) rotate(0) translate(4 498)">
<title>Challenge22</title>
<polygon fill="#ffffff" stroke="transparent" points="-4,4 -4,-498 257.1155,-498 257.1155,4 -4,4"/>
<text text-anchor="middle" x="126.5578" y="-480.4" font-family="Helvetica,sans-Serif" font-weight="bold" font-size="12.00" fill="#000000">Challenge #22: Depletion</text>
<g id="clust3" class="cluster">
<title>cluster_Register_A</title>
<polygon fill="none" stroke="#c0c0c0" points="65.1155,-64 65.1155,-351 135.1155,-351 135.1155,-64 65.1155,-64"/>
<text text-anchor="middle" x="123.6155" y="-339" font-family="Helvetica,sans-Serif" font-size="10.00" fill="#000000">A</text>
</g>
<!-- start -->
<g id="node1" class="node">
<title>start</title>
<ellipse fill="#000000" stroke="#000000" cx="61.1155" cy="-452.5" rx="3.96" ry="3.96"/>
</g>
<!-- B_top -->
<g id="node2" class="node">
<title>B_top</title>
<ellipse fill="none" stroke="#000000" cx="61.1155" cy="-378" rx="18" ry="18"/>
<text text-anchor="middle" x="61.1155" y="-374.9" font-family="Helvetica,sans-Serif" font-size="12.00" fill="#0000ff">B</text>
</g>
<!-- start&#45;&gt;B_top -->
<g id="edge1" class="edge">
<title>start&#45;&gt;B_top</title>
<path fill="none" stroke="#000000" d="M61.1155,-448.4946C61.1155,-440.5609 61.1155,-422.2324 61.1155,-406.2532"/>
<polygon fill="#000000" stroke="#000000" points="64.6156,-406.2247 61.1155,-396.2248 57.6156,-406.2248 64.6156,-406.2247"/>
</g>
<!-- bit_0 -->
<g id="node7" class="node">
<title>bit_0</title>
<polygon fill="none" stroke="#000000" points="100.1155,-324 73.1155,-306 100.1155,-288 127.1155,-306 100.1155,-324"/>
<text text-anchor="middle" x="100.1155" y="-301" font-family="Helvetica,sans-Serif" font-size="20.00" fill="#00bfff">&gt;</text>
</g>
<!-- B_top&#45;&gt;bit_0 -->
<g id="edge2" class="edge">
<title>B_top&#45;&gt;bit_0:n</title>
<path fill="none" stroke="#000000" d="M75.6377,-366.8145C84.5603,-358.8401 94.973,-347.2084 98.7001,-333.9306"/>
<polygon fill="#000000" stroke="#000000" points="102.1694,-334.3938 100.1155,-324 95.2394,-333.4061 102.1694,-334.3938"/>
</g>
<!-- B_bot -->
<g id="node3" class="node">
<title>B_bot</title>
<ellipse fill="none" stroke="#000000" cx="90.1155" cy="-18" rx="18" ry="18"/>
<text text-anchor="middle" x="90.1155" y="-14.9" font-family="Helvetica,sans-Serif" font-size="12.00" fill="#0000ff">%</text>
</g>
<!-- B_bot&#45;&gt;B_top -->
<g id="edge11" class="edge">
<title>B_bot:w&#45;&gt;B_top:w</title>
<path fill="none" stroke="#0000ff" stroke-dasharray="1,5" d="M72.1155,-18C1.8975,-18 7.1155,-91.782 7.1155,-162 7.1155,-234 7.1155,-234 7.1155,-234 7.1155,-299.9697 -22.8542,-378 43.1155,-378"/>
</g>
<!-- R_bot -->
<g id="node5" class="node">
<title>R_bot</title>
<ellipse fill="none" stroke="#000000" cx="144.1155" cy="-18" rx="18" ry="18"/>
<text text-anchor="middle" x="144.1155" y="-14.9" font-family="Helvetica,sans-Serif" font-size="12.00" fill="#ff0000">%</text>
</g>
<!-- B_bot&#45;&gt;R_bot -->
<!-- R_top -->
<g id="node4" class="node">
<title>R_top</title>
<ellipse fill="none" stroke="#000000" cx="144.1155" cy="-378" rx="18" ry="18"/>
<text text-anchor="middle" x="144.1155" y="-374.9" font-family="Helvetica,sans-Serif" font-size="12.00" fill="#ff0000">R</text>
</g>
<!-- R_bot&#45;&gt;R_top -->
<g id="edge12" class="edge">
<title>R_bot:e&#45;&gt;R_top:e</title>
<path fill="none" stroke="#ff0000" stroke-dasharray="1,5" d="M162.1155,-18C226.1155,-18 162.1155,-98 162.1155,-162 162.1155,-234 162.1155,-234 162.1155,-234 162.1155,-298 226.1155,-378 162.1155,-378"/>
</g>
<!-- objective -->
<g id="node6" class="node">
<title>objective</title>
<text text-anchor="start" x="91.1155" y="-460.5" font-family="Times" font-size="10.00" fill="#000000">Register A starts at 15. Subtract the</text>
<text text-anchor="start" x="91.1155" y="-449.5" font-family="Times" font-size="10.00" fill="#000000">number of blue balls from the register.</text>
<text text-anchor="start" x="91.1155" y="-438.5" font-family="Times" font-size="10.00" fill="#000000">(Use 15 or fewer balls.)</text>
</g>
<!-- bit_0&#45;&gt;B_bot -->
<g id="edge3" class="edge">
<title>bit_0:sw&#45;&gt;B_bot:nw</title>
<path fill="none" stroke="#000000" d="M45.1155,-90C47.6403,-64.0204 54.097,-54.483 69.8027,-38.3735"/>
<polygon fill="#000000" stroke="#000000" points="72.5588,-40.5649 77.1155,-31 67.5886,-35.6356 72.5588,-40.5649"/>
<path fill="none" stroke="#000000" d="M89.1155,-295C45.0897,-250.9742 56.4106,-223.2288 45.1155,-162"/>
<path fill="none" stroke="#000000" d="M45.1155,-162C38.3821,-130.7164 42.0203,-121.85 45.1155,-90"/>
</g>
<!-- bit_1 -->
<g id="node8" class="node">
<title>bit_1</title>
<polygon fill="none" stroke="#000000" points="100.1155,-252 73.1155,-234 100.1155,-216 127.1155,-234 100.1155,-252"/>
<text text-anchor="middle" x="100.1155" y="-229" font-family="Helvetica,sans-Serif" font-size="20.00" fill="#00bfff">&gt;</text>
</g>
<!-- bit_0&#45;&gt;bit_1 -->
<g id="edge4" class="edge">
<title>bit_0:se&#45;&gt;bit_1:ne</title>
<path fill="none" stroke="#000000" d="M111.1155,-295C124.251,-281.8645 126.4061,-266.7308 117.5807,-252.9396"/>
<polygon fill="#000000" stroke="#000000" points="120.1439,-250.5444 111.1155,-245 114.7158,-254.9644 120.1439,-250.5444"/>
</g>
<!-- bit_1&#45;&gt;B_bot -->
<g id="edge5" class="edge">
<title>bit_1:sw&#45;&gt;B_bot:nw</title>
<path fill="none" stroke="#000000" d="M89.1155,-223C65.4784,-199.3628 51.1798,-194.8733 45.1155,-162"/>
</g>
<!-- bit_2 -->
<g id="node9" class="node">
<title>bit_2</title>
<polygon fill="none" stroke="#000000" points="100.1155,-180 73.1155,-162 100.1155,-144 127.1155,-162 100.1155,-180"/>
<text text-anchor="middle" x="100.1155" y="-157" font-family="Helvetica,sans-Serif" font-size="20.00" fill="#00bfff">&gt;</text>
</g>
<!-- bit_1&#45;&gt;bit_2 -->
<g id="edge6" class="edge">
<title>bit_1:se&#45;&gt;bit_2:ne</title>
<path fill="none" stroke="#000000" d="M111.1155,-223C124.251,-209.8645 126.4061,-194.7308 117.5807,-180.9396"/>
<polygon fill="#000000" stroke="#000000" points="120.1439,-178.5444 111.1155,-173 114.7158,-182.9644 120.1439,-178.5444"/>
</g>
<!-- bit_2&#45;&gt;B_bot -->
<g id="edge7" class="edge">
<title>bit_2:sw&#45;&gt;B_bot:nw</title>
<path fill="none" stroke="#000000" d="M89.1155,-151C65.4784,-127.3628 41.8822,-123.2713 45.1155,-90"/>
</g>
<!-- bit_3 -->
<g id="node10" class="node">
<title>bit_3</title>
<polygon fill="none" stroke="#000000" points="100.1155,-108 73.1155,-90 100.1155,-72 127.1155,-90 100.1155,-108"/>
<text text-anchor="middle" x="100.1155" y="-85" font-family="Helvetica,sans-Serif" font-size="20.00" fill="#00bfff">&gt;</text>
</g>
<!-- bit_2&#45;&gt;bit_3 -->
<g id="edge8" class="edge">
<title>bit_2:se&#45;&gt;bit_3:ne</title>
<path fill="none" stroke="#000000" d="M111.1155,-151C124.251,-137.8645 126.4061,-122.7308 117.5807,-108.9396"/>
<polygon fill="#000000" stroke="#000000" points="120.1439,-106.5444 111.1155,-101 114.7158,-110.9644 120.1439,-106.5444"/>
</g>
<!-- bit_3&#45;&gt;B_bot -->
<g id="edge9" class="edge">
<title>bit_3:sw&#45;&gt;B_bot:nw</title>
<path fill="none" stroke="#000000" d="M89.1155,-79C76.3603,-66.2448 65.9934,-52.5795 71.2628,-39.4973"/>
<polygon fill="#000000" stroke="#000000" points="74.3255,-41.2209 77.1155,-31 68.5606,-37.2502 74.3255,-41.2209"/>
</g>
<!-- bit_3&#45;&gt;B_bot -->
<g id="edge10" class="edge">
<title>bit_3:se&#45;&gt;B_bot:ne</title>
<path fill="none" stroke="#000000" d="M111.1155,-79C123.8995,-66.216 120.4066,-51.9499 109.983,-38.6796"/>
<polygon fill="#000000" stroke="#000000" points="112.3905,-36.1211 103.1155,-31 107.1725,-40.7873 112.3905,-36.1211"/>
</g>
</g>
</svg>
