<?xml version="1.0" encoding="UTF-8" standalone="no"?>
<!DOCTYPE svg PUBLIC "-//W3C//DTD SVG 1.1//EN"
 "http://www.w3.org/Graphics/SVG/1.1/DTD/svg11.dtd">
<!-- Generated by graphviz version 2.40.1 (0)
 -->
<!-- Title: Challenge04 Pages: 1 -->
<svg width="243pt" height="209pt"
 viewBox="0.00 0.00 242.50 209.00" xmlns="http://www.w3.org/2000/svg" xmlns:xlink="http://www.w3.org/1999/xlink">
<g id="graph0" class="graph" transform="scale(1 1) rotate(0) translate(4 205)">
<title>Challenge04</title>
<polygon fill="#ffffff" stroke="transparent" points="-4,4 -4,-205 238.5,-205 238.5,4 -4,4"/>
<text text-anchor="middle" x="117.25" y="-187.4" font-family="Helvetica,sans-Serif" font-weight="bold" font-size="12.00" fill="#000000">Challenge #4: Fusion</text>
<!-- start -->
<g id="node1" class="node">
<title>start</title>
<ellipse fill="#000000" stroke="#000000" cx="96" cy="-162" rx="3.96" ry="3.96"/>
</g>
<!-- R_top -->
<g id="node4" class="node">
<title>R_top</title>
<ellipse fill="none" stroke="#000000" cx="96" cy="-90" rx="18" ry="18"/>
<text text-anchor="middle" x="96" y="-86.9" font-family="Helvetica,sans-Serif" font-size="12.00" fill="#ff0000">R</text>
</g>
<!-- start&#45;&gt;R_top -->
<g id="edge1" class="edge">
<title>start&#45;&gt;R_top</title>
<path fill="none" stroke="#000000" d="M96,-157.7117C96,-150.0623 96,-133.4722 96,-118.6289"/>
<polygon fill="#000000" stroke="#000000" points="99.5001,-118.2821 96,-108.2821 92.5001,-118.2821 99.5001,-118.2821"/>
</g>
<!-- B_top -->
<g id="node2" class="node">
<title>B_top</title>
<ellipse fill="none" stroke="#000000" cx="42" cy="-90" rx="18" ry="18"/>
<text text-anchor="middle" x="42" y="-86.9" font-family="Helvetica,sans-Serif" font-size="12.00" fill="#0000ff">B</text>
</g>
<!-- B_bot -->
<g id="node3" class="node">
<title>B_bot</title>
<ellipse fill="none" stroke="#000000" cx="42" cy="-18" rx="18" ry="18"/>
<text text-anchor="middle" x="42" y="-14.9" font-family="Helvetica,sans-Serif" font-size="12.00" fill="#0000ff">B</text>
</g>
<!-- B_top&#45;&gt;B_bot -->
<g id="edge2" class="edge">
<title>B_top&#45;&gt;B_bot</title>
<path fill="none" stroke="#000000" d="M42,-71.8314C42,-64.131 42,-54.9743 42,-46.4166"/>
<polygon fill="#000000" stroke="#000000" points="45.5001,-46.4132 42,-36.4133 38.5001,-46.4133 45.5001,-46.4132"/>
</g>
<!-- B_bot&#45;&gt;B_top -->
<g id="edge4" class="edge">
<title>B_bot:w&#45;&gt;B_top:w</title>
<path fill="none" stroke="#0000ff" stroke-dasharray="1,5" d="M24,-18C-8,-18 -8,-90 24,-90"/>
</g>
<!-- R_bot -->
<g id="node5" class="node">
<title>R_bot</title>
<ellipse fill="none" stroke="#000000" cx="96" cy="-18" rx="18" ry="18"/>
<text text-anchor="middle" x="96" y="-14.9" font-family="Helvetica,sans-Serif" font-size="12.00" fill="#ff0000">R</text>
</g>
<!-- B_bot&#45;&gt;R_bot -->
<!-- R_top&#45;&gt;B_bot -->
<g id="edge3" class="edge">
<title>R_top&#45;&gt;B_bot</title>
<path fill="none" stroke="#000000" d="M85.0723,-75.4297C77.6066,-65.4754 67.5632,-52.0842 59.0526,-40.7368"/>
<polygon fill="#000000" stroke="#000000" points="61.7115,-38.4486 52.9115,-32.5486 56.1115,-42.6486 61.7115,-38.4486"/>
</g>
<!-- R_bot&#45;&gt;R_top -->
<g id="edge5" class="edge">
<title>R_bot:e&#45;&gt;R_top:e</title>
<path fill="none" stroke="#ff0000" stroke-dasharray="1,5" d="M114,-18C146,-18 146,-90 114,-90"/>
</g>
<!-- objective -->
<g id="node6" class="node">
<title>objective</title>
<text text-anchor="start" x="126" y="-165" font-family="Times" font-size="10.00" fill="#000000">Release one red ball and</text>
<text text-anchor="start" x="126" y="-154" font-family="Times" font-size="10.00" fill="#000000">then all of the blue balls.</text>
</g>
</g>
</svg>
