<?xml version="1.0" encoding="UTF-8" standalone="no"?>
<!DOCTYPE svg PUBLIC "-//W3C//DTD SVG 1.1//EN"
 "http://www.w3.org/Graphics/SVG/1.1/DTD/svg11.dtd">
<!-- Generated by graphviz version 2.40.1 (0)
 -->
<!-- Title: Challenge29 Pages: 1 -->
<svg width="280pt" height="353pt"
 viewBox="0.00 0.00 279.57 353.00" xmlns="http://www.w3.org/2000/svg" xmlns:xlink="http://www.w3.org/1999/xlink">
<g id="graph0" class="graph" transform="scale(1 1) rotate(0) translate(4 349)">
<title>Challenge29</title>
<polygon fill="#ffffff" stroke="transparent" points="-4,4 -4,-349 275.5728,-349 275.5728,4 -4,4"/>
<text text-anchor="middle" x="135.7864" y="-331.4" font-family="Helvetica,sans-Serif" font-weight="bold" font-size="12.00" fill="#000000">Challenge #29: One&#45;Shot Switch</text>
<!-- start -->
<g id="node1" class="node">
<title>start</title>
<ellipse fill="#000000" stroke="#000000" cx="73.4478" cy="-306" rx="3.96" ry="3.96"/>
</g>
<!-- B_top -->
<g id="node2" class="node">
<title>B_top</title>
<ellipse fill="none" stroke="#000000" cx="73.4478" cy="-234" rx="18" ry="18"/>
<text text-anchor="middle" x="73.4478" y="-230.9" font-family="Helvetica,sans-Serif" font-size="12.00" fill="#0000ff">B</text>
</g>
<!-- start&#45;&gt;B_top -->
<g id="edge1" class="edge">
<title>start&#45;&gt;B_top</title>
<path fill="none" stroke="#000000" d="M73.4478,-301.7117C73.4478,-294.0623 73.4478,-277.4722 73.4478,-262.6289"/>
<polygon fill="#000000" stroke="#000000" points="76.9479,-262.2821 73.4478,-252.2821 69.9479,-262.2821 76.9479,-262.2821"/>
</g>
<!-- gbit_U -->
<g id="node7" class="node">
<title>gbit_U</title>
<polygon fill="none" stroke="#000000" stroke-width="2" points="92.4478,-180 65.4478,-162 92.4478,-144 119.4478,-162 92.4478,-180"/>
<text text-anchor="middle" x="92.4478" y="-157" font-family="Helvetica,sans-Serif" font-size="20.00" fill="#1874cd">{</text>
</g>
<!-- B_top&#45;&gt;gbit_U -->
<g id="edge2" class="edge">
<title>B_top&#45;&gt;gbit_U:n</title>
<path fill="none" stroke="#000000" d="M82.2804,-217.9707C86.0017,-210.109 89.8602,-200.1724 91.5569,-190.0771"/>
<polygon fill="#000000" stroke="#000000" points="95.0535,-190.2694 92.4478,-180 88.0807,-189.6529 95.0535,-190.2694"/>
</g>
<!-- B_bot -->
<g id="node3" class="node">
<title>B_bot</title>
<ellipse fill="none" stroke="#000000" cx="117.4478" cy="-18" rx="18" ry="18"/>
<text text-anchor="middle" x="117.4478" y="-14.9" font-family="Helvetica,sans-Serif" font-size="12.00" fill="#0000ff">%</text>
</g>
<!-- B_bot&#45;&gt;B_top -->
<g id="edge8" class="edge">
<title>B_bot:w&#45;&gt;B_top:w</title>
<path fill="none" stroke="#0000ff" stroke-dasharray="1,5" d="M99.4478,-18C1.4763,-18 -42.5237,-234 55.4478,-234"/>
</g>
<!-- R_bot -->
<g id="node5" class="node">
<title>R_bot</title>
<ellipse fill="none" stroke="#000000" cx="185.4478" cy="-18" rx="18" ry="18"/>
<text text-anchor="middle" x="185.4478" y="-14.9" font-family="Helvetica,sans-Serif" font-size="12.00" fill="#ff0000">%</text>
</g>
<!-- B_bot&#45;&gt;R_bot -->
<!-- R_top -->
<g id="node4" class="node">
<title>R_top</title>
<ellipse fill="none" stroke="#000000" cx="176.4478" cy="-234" rx="18" ry="18"/>
<text text-anchor="middle" x="176.4478" y="-230.9" font-family="Helvetica,sans-Serif" font-size="12.00" fill="#ff0000">R</text>
</g>
<!-- R_top&#45;&gt;B_bot -->
<g id="edge7" class="edge">
<title>R_top&#45;&gt;B_bot:ne</title>
<path fill="none" stroke="#000000" d="M178.1846,-215.8526C180.7611,-178.1629 181.2537,-90.5842 137.2657,-38.428"/>
<polygon fill="#000000" stroke="#000000" points="139.7884,-36.0005 130.4478,-31 134.6314,-40.7339 139.7884,-36.0005"/>
</g>
<!-- R_bot&#45;&gt;R_top -->
<g id="edge9" class="edge">
<title>R_bot:e&#45;&gt;R_top:e</title>
<path fill="none" stroke="#ff0000" stroke-dasharray="1,5" d="M203.4478,-18C299.5311,-18 290.5311,-234 194.4478,-234"/>
</g>
<!-- objective -->
<g id="node6" class="node">
<title>objective</title>
<text text-anchor="start" x="103.4478" y="-309" font-family="Times" font-size="10.00" fill="#000000">Release a blue ball, a red ball,</text>
<text text-anchor="start" x="103.4478" y="-298" font-family="Times" font-size="10.00" fill="#000000">and then the rest of the blue balls.</text>
</g>
<!-- gbit_U&#45;&gt;R_bot -->
<g id="edge4" class="edge">
<title>gbit_U:e&#45;&gt;R_bot</title>
<path fill="none" stroke="#000000" d="M119.4478,-162C169.792,-162 181.8843,-88.3639 184.6881,-46.4054"/>
<polygon fill="#000000" stroke="#000000" points="188.1927,-46.4093 185.2282,-36.2377 181.2026,-46.0379 188.1927,-46.4093"/>
</g>
<!-- gbit_D -->
<g id="node8" class="node">
<title>gbit_D</title>
<polygon fill="none" stroke="#000000" stroke-width="2" points="92.4478,-108 65.4478,-90 92.4478,-72 119.4478,-90 92.4478,-108"/>
<text text-anchor="middle" x="92.4478" y="-85" font-family="Helvetica,sans-Serif" font-size="20.00" fill="#1874cd">{</text>
</g>
<!-- gbit_U&#45;&gt;gbit_D -->
<g id="edge3" class="edge">
<title>gbit_U:w&#45;&gt;gbit_D:nw</title>
<path fill="none" stroke="#000000" d="M65.4478,-162C52.6808,-162 56.2687,-132.2623 74.6495,-108.7015"/>
<polygon fill="#000000" stroke="#000000" points="77.454,-110.8132 81.4478,-101 72.2061,-106.1808 77.454,-110.8132"/>
</g>
<!-- gbit_U&#45;&gt;gbit_D -->
<g id="edge5" class="edge">
<title>gbit_U:sw&#45;&gt;gbit_D:ne</title>
<path fill="none" stroke="#dc143c" stroke-width="2" d="M81.4478,-151C64.2805,-133.8327 120.6151,-118.1673 103.4478,-101"/>
</g>
<!-- gbit_D&#45;&gt;B_bot -->
<g id="edge6" class="edge">
<title>gbit_D:se&#45;&gt;B_bot:n</title>
<path fill="none" stroke="#000000" d="M103.4478,-79C114.9949,-67.4529 117.0202,-59.5513 117.3737,-46.2137"/>
<polygon fill="#000000" stroke="#000000" points="120.8751,-46.0252 117.4478,-36 113.8753,-45.9743 120.8751,-46.0252"/>
</g>
</g>
</svg>
