<?xml version="1.0" encoding="UTF-8" standalone="no"?>
<!DOCTYPE svg PUBLIC "-//W3C//DTD SVG 1.1//EN"
 "http://www.w3.org/Graphics/SVG/1.1/DTD/svg11.dtd">
<!-- Generated by graphviz version 2.40.1 (0)
 -->
<!-- Title: Challenge08 Pages: 1 -->
<svg width="218pt" height="281pt"
 viewBox="0.00 0.00 218.34 281.00" xmlns="http://www.w3.org/2000/svg" xmlns:xlink="http://www.w3.org/1999/xlink">
<g id="graph0" class="graph" transform="scale(1 1) rotate(0) translate(4 277)">
<title>Challenge08</title>
<polygon fill="#ffffff" stroke="transparent" points="-4,4 -4,-277 214.3414,-277 214.3414,4 -4,4"/>
<text text-anchor="middle" x="105.1707" y="-259.4" font-family="Helvetica,sans-Serif" font-weight="bold" font-size="12.00" fill="#000000">Challenge #8: Depolarization</text>
<!-- start -->
<g id="node1" class="node">
<title>start</title>
<ellipse fill="#000000" stroke="#000000" cx="63.8414" cy="-234" rx="3.96" ry="3.96"/>
</g>
<!-- B_top -->
<g id="node2" class="node">
<title>B_top</title>
<ellipse fill="none" stroke="#000000" cx="63.8414" cy="-162" rx="18" ry="18"/>
<text text-anchor="middle" x="63.8414" y="-158.9" font-family="Helvetica,sans-Serif" font-size="12.00" fill="#0000ff">B</text>
</g>
<!-- start&#45;&gt;B_top -->
<g id="edge1" class="edge">
<title>start&#45;&gt;B_top</title>
<path fill="none" stroke="#000000" d="M63.8414,-229.7117C63.8414,-222.0623 63.8414,-205.4722 63.8414,-190.6289"/>
<polygon fill="#000000" stroke="#000000" points="67.3415,-190.2821 63.8414,-180.2821 60.3415,-190.2821 67.3415,-190.2821"/>
</g>
<!-- bit -->
<g id="node7" class="node">
<title>bit</title>
<polygon fill="none" stroke="#000000" points="95.8414,-108 68.8414,-90 95.8414,-72 122.8414,-90 95.8414,-108"/>
<text text-anchor="middle" x="95.8414" y="-85" font-family="Helvetica,sans-Serif" font-size="20.00" fill="#00bfff">&lt;</text>
</g>
<!-- B_top&#45;&gt;bit -->
<g id="edge2" class="edge">
<title>B_top&#45;&gt;bit:nw</title>
<path fill="none" stroke="#000000" d="M65.785,-144.0174C67.6478,-133.3736 71.2858,-119.8936 78.3795,-109.0385"/>
<polygon fill="#000000" stroke="#000000" points="81.3039,-110.9868 84.8414,-101 75.8481,-106.601 81.3039,-110.9868"/>
</g>
<!-- B_bot -->
<g id="node3" class="node">
<title>B_bot</title>
<ellipse fill="none" stroke="#000000" cx="68.8414" cy="-18" rx="18" ry="18"/>
<text text-anchor="middle" x="68.8414" y="-14.9" font-family="Helvetica,sans-Serif" font-size="12.00" fill="#0000ff">B</text>
</g>
<!-- B_bot&#45;&gt;B_top -->
<g id="edge6" class="edge">
<title>B_bot:w&#45;&gt;B_top:w</title>
<path fill="none" stroke="#0000ff" stroke-dasharray="1,5" d="M50.8414,-18C-13.1971,-18 -18.1971,-162 45.8414,-162"/>
</g>
<!-- R_bot -->
<g id="node5" class="node">
<title>R_bot</title>
<ellipse fill="none" stroke="#000000" cx="122.8414" cy="-18" rx="18" ry="18"/>
<text text-anchor="middle" x="122.8414" y="-14.9" font-family="Helvetica,sans-Serif" font-size="12.00" fill="#ff0000">R</text>
</g>
<!-- B_bot&#45;&gt;R_bot -->
<!-- R_top -->
<g id="node4" class="node">
<title>R_top</title>
<ellipse fill="none" stroke="#000000" cx="127.8414" cy="-162" rx="18" ry="18"/>
<text text-anchor="middle" x="127.8414" y="-158.9" font-family="Helvetica,sans-Serif" font-size="12.00" fill="#ff0000">R</text>
</g>
<!-- R_top&#45;&gt;bit -->
<g id="edge3" class="edge">
<title>R_top&#45;&gt;bit:ne</title>
<path fill="none" stroke="#000000" d="M125.8978,-144.0174C124.0351,-133.3736 120.3971,-119.8936 113.3034,-109.0385"/>
<polygon fill="#000000" stroke="#000000" points="115.8347,-106.601 106.8414,-101 110.379,-110.9868 115.8347,-106.601"/>
</g>
<!-- R_bot&#45;&gt;R_top -->
<g id="edge7" class="edge">
<title>R_bot:e&#45;&gt;R_top:e</title>
<path fill="none" stroke="#ff0000" stroke-dasharray="1,5" d="M140.8414,-18C204.88,-18 209.88,-162 145.8414,-162"/>
</g>
<!-- objective -->
<g id="node6" class="node">
<title>objective</title>
<text text-anchor="end" x="202.3414" y="-237" font-family="Times" font-size="10.00" fill="#000000">Make the pattern blue, red,</text>
<text text-anchor="middle" x="147.8414" y="-226" font-family="Times" font-size="10.00" fill="#000000">blue, red, blue, red…</text>
</g>
<!-- bit&#45;&gt;B_bot -->
<g id="edge4" class="edge">
<title>bit:sw&#45;&gt;B_bot</title>
<path fill="none" stroke="#000000" d="M84.8414,-79C76.2469,-70.4054 72.0975,-57.7936 70.1543,-46.2649"/>
<polygon fill="#000000" stroke="#000000" points="73.6036,-45.6344 68.9257,-36.1282 66.6545,-46.4767 73.6036,-45.6344"/>
</g>
<!-- bit&#45;&gt;R_bot -->
<g id="edge5" class="edge">
<title>bit:se&#45;&gt;R_bot</title>
<path fill="none" stroke="#000000" d="M106.8414,-79C115.436,-70.4054 119.5853,-57.7936 121.5285,-46.2649"/>
<polygon fill="#000000" stroke="#000000" points="125.0284,-46.4767 122.7571,-36.1282 118.0793,-45.6344 125.0284,-46.4767"/>
</g>
</g>
</svg>
