<?xml version="1.0" encoding="UTF-8" standalone="no"?>
<!DOCTYPE svg PUBLIC "-//W3C//DTD SVG 1.1//EN"
 "http://www.w3.org/Graphics/SVG/1.1/DTD/svg11.dtd">
<!-- Generated by graphviz version 2.40.1 (0)
 -->
<!-- Title: Challenge16 Pages: 1 -->
<svg width="313pt" height="424pt"
 viewBox="0.00 0.00 312.79 424.00" xmlns="http://www.w3.org/2000/svg" xmlns:xlink="http://www.w3.org/1999/xlink">
<g id="graph0" class="graph" transform="scale(1 1) rotate(0) translate(4 420)">
<title>Challenge16</title>
<polygon fill="#ffffff" stroke="transparent" points="-4,4 -4,-420 308.7915,-420 308.7915,4 -4,4"/>
<text text-anchor="middle" x="152.3957" y="-402.4" font-family="Helvetica,sans-Serif" font-weight="bold" font-size="12.00" fill="#000000">Challenge #16: Termination</text>
<!-- start -->
<g id="node1" class="node">
<title>start</title>
<ellipse fill="#000000" stroke="#000000" cx="93.7915" cy="-374.5" rx="3.96" ry="3.96"/>
</g>
<!-- B_top -->
<g id="node2" class="node">
<title>B_top</title>
<ellipse fill="none" stroke="#000000" cx="93.7915" cy="-300" rx="18" ry="18"/>
<text text-anchor="middle" x="93.7915" y="-296.9" font-family="Helvetica,sans-Serif" font-size="12.00" fill="#0000ff">B</text>
</g>
<!-- start&#45;&gt;B_top -->
<g id="edge1" class="edge">
<title>start&#45;&gt;B_top</title>
<path fill="none" stroke="#000000" d="M93.7915,-370.4946C93.7915,-362.5609 93.7915,-344.2324 93.7915,-328.2532"/>
<polygon fill="#000000" stroke="#000000" points="97.2916,-328.2247 93.7915,-318.2248 90.2916,-328.2248 97.2916,-328.2247"/>
</g>
<!-- bit_0 -->
<g id="node7" class="node">
<title>bit_0</title>
<polygon fill="none" stroke="#000000" points="117.7915,-246 90.7915,-228 117.7915,-210 144.7915,-228 117.7915,-246"/>
<text text-anchor="middle" x="117.7915" y="-223" font-family="Helvetica,sans-Serif" font-size="20.00" fill="#00bfff">&lt;</text>
</g>
<!-- B_top&#45;&gt;bit_0 -->
<g id="edge2" class="edge">
<title>B_top&#45;&gt;bit_0:n</title>
<path fill="none" stroke="#000000" d="M104.3881,-285.1816C109.3105,-277.1899 114.5523,-266.767 116.739,-255.9663"/>
<polygon fill="#000000" stroke="#000000" points="120.2218,-256.3123 117.7915,-246 113.2605,-255.5771 120.2218,-256.3123"/>
</g>
<!-- B_bot -->
<g id="node3" class="node">
<title>B_bot</title>
<ellipse fill="none" stroke="#000000" cx="138.7915" cy="-18" rx="18" ry="18"/>
<text text-anchor="middle" x="138.7915" y="-14.9" font-family="Helvetica,sans-Serif" font-size="12.00" fill="#0000ff">%</text>
</g>
<!-- B_bot&#45;&gt;B_top -->
<g id="edge8" class="edge">
<title>B_bot:w&#45;&gt;B_top:w</title>
<path fill="none" stroke="#0000ff" stroke-dasharray="1,5" d="M120.7915,-18C-6.1276,-18 -51.1276,-300 75.7915,-300"/>
</g>
<!-- R_bot -->
<g id="node5" class="node">
<title>R_bot</title>
<ellipse fill="none" stroke="#000000" cx="192.7915" cy="-18" rx="18" ry="18"/>
<text text-anchor="middle" x="192.7915" y="-14.9" font-family="Helvetica,sans-Serif" font-size="12.00" fill="#ff0000">%</text>
</g>
<!-- B_bot&#45;&gt;R_bot -->
<!-- R_top -->
<g id="node4" class="node">
<title>R_top</title>
<ellipse fill="none" stroke="#000000" cx="192.7915" cy="-300" rx="18" ry="18"/>
<text text-anchor="middle" x="192.7915" y="-296.9" font-family="Helvetica,sans-Serif" font-size="12.00" fill="#ff0000">R</text>
</g>
<!-- R_bot&#45;&gt;R_top -->
<g id="edge9" class="edge">
<title>R_bot:e&#45;&gt;R_top:e</title>
<path fill="none" stroke="#ff0000" stroke-dasharray="1,5" d="M210.7915,-18C336.1248,-18 336.1248,-300 210.7915,-300"/>
</g>
<!-- objective -->
<g id="node6" class="node">
<title>objective</title>
<text text-anchor="start" x="123.7915" y="-382.5" font-family="Times" font-size="10.00" fill="#000000">Let only 3 blue balls reach</text>
<text text-anchor="start" x="123.7915" y="-371.5" font-family="Times" font-size="10.00" fill="#000000">the bottom and catch the 4th</text>
<text text-anchor="start" x="123.7915" y="-360.5" font-family="Times" font-size="10.00" fill="#000000">ball in the interceptor.</text>
</g>
<!-- bit_0&#45;&gt;B_bot -->
<g id="edge3" class="edge">
<title>bit_0:se&#45;&gt;B_bot:ne</title>
<path fill="none" stroke="#000000" d="M128.7915,-217C168.0688,-177.7226 177.5557,-76.759 157.7906,-39.4017"/>
<polygon fill="#000000" stroke="#000000" points="160.4509,-37.1045 151.7915,-31 154.7541,-41.1722 160.4509,-37.1045"/>
</g>
<!-- bit_1 -->
<g id="node8" class="node">
<title>bit_1</title>
<polygon fill="none" stroke="#000000" points="106.7915,-174 79.7915,-156 106.7915,-138 133.7915,-156 106.7915,-174"/>
<text text-anchor="middle" x="106.7915" y="-151" font-family="Helvetica,sans-Serif" font-size="20.00" fill="#00bfff">&lt;</text>
</g>
<!-- bit_0&#45;&gt;bit_1 -->
<g id="edge4" class="edge">
<title>bit_0:sw&#45;&gt;bit_1:n</title>
<path fill="none" stroke="#000000" d="M106.7915,-217C95.9172,-206.1258 102.5437,-197.2837 105.547,-184.2867"/>
<polygon fill="#000000" stroke="#000000" points="109.065,-184.348 106.7915,-174 102.1157,-183.5072 109.065,-184.348"/>
</g>
<!-- bit_1&#45;&gt;B_bot -->
<g id="edge6" class="edge">
<title>bit_1:se&#45;&gt;B_bot:nw</title>
<path fill="none" stroke="#000000" d="M117.7915,-145C151.0407,-111.7507 98.8019,-73.14 119.3615,-39.0949"/>
<polygon fill="#000000" stroke="#000000" points="122.3123,-41.0073 125.7915,-31 116.831,-36.6534 122.3123,-41.0073"/>
</g>
<!-- halt -->
<g id="node9" class="node">
<title>halt</title>
<ellipse fill="none" stroke="#000000" cx="87.7915" cy="-87" rx="11" ry="11"/>
<ellipse fill="none" stroke="#000000" cx="87.7915" cy="-87" rx="15" ry="15"/>
</g>
<!-- bit_1&#45;&gt;halt -->
<g id="edge5" class="edge">
<title>bit_1:sw&#45;&gt;halt</title>
<path fill="none" stroke="#000000" d="M95.7915,-145C87.3168,-136.5254 84.9515,-123.5538 84.8657,-112.0253"/>
<polygon fill="#000000" stroke="#000000" points="88.363,-112.1617 85.3178,-102.014 81.3701,-111.8458 88.363,-112.1617"/>
</g>
<!-- halt&#45;&gt;B_bot -->
</g>
</svg>
