<?xml version="1.0" encoding="UTF-8" standalone="no"?>
<!DOCTYPE svg PUBLIC "-//W3C//DTD SVG 1.1//EN"
 "http://www.w3.org/Graphics/SVG/1.1/DTD/svg11.dtd">
<!-- Generated by graphviz version 2.40.1 (0)
 -->
<!-- Title: Challenge25 Pages: 1 -->
<svg width="367pt" height="425pt"
 viewBox="0.00 0.00 367.47 425.00" xmlns="http://www.w3.org/2000/svg" xmlns:xlink="http://www.w3.org/1999/xlink">
<g id="graph0" class="graph" transform="scale(1 1) rotate(0) translate(4 421)">
<title>Challenge25</title>
<polygon fill="#ffffff" stroke="transparent" points="-4,4 -4,-421 363.472,-421 363.472,4 -4,4"/>
<text text-anchor="middle" x="179.736" y="-403.4" font-family="Helvetica,sans-Serif" font-weight="bold" font-size="12.00" fill="#000000">Challenge #25: Regular Expression</text>
<g id="clust3" class="cluster">
<title>cluster_Register_A</title>
<polygon fill="none" stroke="#c0c0c0" points="108.648,-64 108.648,-260 178.648,-260 178.648,-64 108.648,-64"/>
</g>
<g id="clust4" class="cluster">
<title>cluster_Register_B</title>
<polygon fill="none" stroke="#c0c0c0" points="218.648,-136 218.648,-260 288.648,-260 288.648,-136 218.648,-136"/>
</g>
<!-- start -->
<g id="node1" class="node">
<title>start</title>
<ellipse fill="#000000" stroke="#000000" cx="106.648" cy="-378" rx="3.96" ry="3.96"/>
</g>
<!-- B_top -->
<g id="node2" class="node">
<title>B_top</title>
<ellipse fill="none" stroke="#000000" cx="106.648" cy="-306" rx="18" ry="18"/>
<text text-anchor="middle" x="106.648" y="-302.9" font-family="Helvetica,sans-Serif" font-size="12.00" fill="#0000ff">B</text>
</g>
<!-- start&#45;&gt;B_top -->
<g id="edge1" class="edge">
<title>start&#45;&gt;B_top</title>
<path fill="none" stroke="#000000" d="M106.648,-373.7117C106.648,-366.0623 106.648,-349.4722 106.648,-334.6289"/>
<polygon fill="#000000" stroke="#000000" points="110.1481,-334.2821 106.648,-324.2821 103.1481,-334.2821 110.1481,-334.2821"/>
</g>
<!-- A_bit_0 -->
<g id="node7" class="node">
<title>A_bit_0</title>
<polygon fill="none" stroke="#000000" points="143.648,-252 116.648,-234 143.648,-216 170.648,-234 143.648,-252"/>
<text text-anchor="middle" x="143.648" y="-229" font-family="Helvetica,sans-Serif" font-size="20.00" fill="#00bfff">&gt;</text>
</g>
<!-- B_top&#45;&gt;A_bit_0 -->
<g id="edge2" class="edge">
<title>B_top:s&#45;&gt;A_bit_0:n</title>
<path fill="none" stroke="#000000" d="M106.648,-288C106.648,-269.1789 131.5458,-272.4505 140.4934,-261.569"/>
<polygon fill="#000000" stroke="#000000" points="143.841,-262.5931 143.648,-252 137.193,-260.4014 143.841,-262.5931"/>
</g>
<!-- B_bot -->
<g id="node3" class="node">
<title>B_bot</title>
<ellipse fill="none" stroke="#000000" cx="122.648" cy="-18" rx="18" ry="18"/>
<text text-anchor="middle" x="122.648" y="-14.9" font-family="Helvetica,sans-Serif" font-size="12.00" fill="#0000ff">%</text>
</g>
<!-- B_bot&#45;&gt;B_top -->
<g id="edge15" class="edge">
<title>B_bot:w&#45;&gt;B_top:w</title>
<path fill="none" stroke="#0000ff" stroke-dasharray="1,5" d="M104.648,-18C-23.5493,-18 -39.5493,-306 88.648,-306"/>
</g>
<!-- R_bot -->
<g id="node5" class="node">
<title>R_bot</title>
<ellipse fill="none" stroke="#000000" cx="198.648" cy="-18" rx="18" ry="18"/>
<text text-anchor="middle" x="198.648" y="-14.9" font-family="Helvetica,sans-Serif" font-size="12.00" fill="#ff0000">%</text>
</g>
<!-- B_bot&#45;&gt;R_bot -->
<!-- R_top -->
<g id="node4" class="node">
<title>R_top</title>
<ellipse fill="none" stroke="#000000" cx="271.648" cy="-306" rx="18" ry="18"/>
<text text-anchor="middle" x="271.648" y="-302.9" font-family="Helvetica,sans-Serif" font-size="12.00" fill="#ff0000">R</text>
</g>
<!-- B_bit_0 -->
<g id="node10" class="node">
<title>B_bit_0</title>
<polygon fill="none" stroke="#000000" points="253.648,-252 226.648,-234 253.648,-216 280.648,-234 253.648,-252"/>
<text text-anchor="middle" x="253.648" y="-229" font-family="Helvetica,sans-Serif" font-size="20.00" fill="#00bfff">&gt;</text>
</g>
<!-- R_top&#45;&gt;B_bit_0 -->
<g id="edge3" class="edge">
<title>R_top:s&#45;&gt;B_bit_0:n</title>
<path fill="none" stroke="#000000" d="M271.648,-288C271.648,-274.1643 260.8803,-270.8963 256.0012,-261.8491"/>
<polygon fill="#000000" stroke="#000000" points="259.3761,-260.9129 253.648,-252 252.5677,-262.5396 259.3761,-260.9129"/>
</g>
<!-- R_bot&#45;&gt;R_top -->
<g id="edge16" class="edge">
<title>R_bot:e&#45;&gt;R_top:e</title>
<path fill="none" stroke="#ff0000" stroke-dasharray="1,5" d="M216.648,-18C348.6959,-18 421.6959,-306 289.648,-306"/>
</g>
<!-- objective -->
<g id="node6" class="node">
<title>objective</title>
<text text-anchor="start" x="136.648" y="-375" font-family="Times" font-size="10.00" fill="#000000">Generate the required pattern (3R6B).</text>
</g>
<!-- A_bit_0&#45;&gt;B_bot -->
<g id="edge4" class="edge">
<title>A_bit_0:sw&#45;&gt;B_bot:nw</title>
<path fill="none" stroke="#000000" d="M88.648,-90C89.5691,-65.8805 89.8843,-54.0251 102.7867,-38.4665"/>
<polygon fill="#000000" stroke="#000000" points="105.4588,-40.7314 109.648,-31 100.3045,-35.995 105.4588,-40.7314"/>
<path fill="none" stroke="#000000" d="M132.648,-223C88.6222,-178.9742 86.2722,-152.2165 88.648,-90"/>
</g>
<!-- A_bit_1 -->
<g id="node8" class="node">
<title>A_bit_1</title>
<polygon fill="none" stroke="#000000" points="143.648,-180 116.648,-162 143.648,-144 170.648,-162 143.648,-180"/>
<text text-anchor="middle" x="143.648" y="-157" font-family="Helvetica,sans-Serif" font-size="20.00" fill="#00bfff">&lt;</text>
</g>
<!-- A_bit_0&#45;&gt;A_bit_1 -->
<g id="edge5" class="edge">
<title>A_bit_0:se&#45;&gt;A_bit_1:ne</title>
<path fill="none" stroke="#000000" d="M154.648,-223C167.7835,-209.8645 169.9386,-194.7308 161.1132,-180.9396"/>
<polygon fill="#000000" stroke="#000000" points="163.6764,-178.5444 154.648,-173 158.2483,-182.9644 163.6764,-178.5444"/>
</g>
<!-- A_bit_1&#45;&gt;B_bot -->
<g id="edge6" class="edge">
<title>A_bit_1:sw&#45;&gt;B_bot:nw</title>
<path fill="none" stroke="#000000" d="M132.648,-151C109.0109,-127.3628 87.3725,-123.4037 88.648,-90"/>
</g>
<!-- A_bit_2 -->
<g id="node9" class="node">
<title>A_bit_2</title>
<polygon fill="none" stroke="#000000" points="143.648,-108 116.648,-90 143.648,-72 170.648,-90 143.648,-108"/>
<text text-anchor="middle" x="143.648" y="-85" font-family="Helvetica,sans-Serif" font-size="20.00" fill="#00bfff">&gt;</text>
</g>
<!-- A_bit_1&#45;&gt;A_bit_2 -->
<g id="edge7" class="edge">
<title>A_bit_1:se&#45;&gt;A_bit_2:ne</title>
<path fill="none" stroke="#000000" d="M154.648,-151C167.7835,-137.8645 169.9386,-122.7308 161.1132,-108.9396"/>
<polygon fill="#000000" stroke="#000000" points="163.6764,-106.5444 154.648,-101 158.2483,-110.9644 163.6764,-106.5444"/>
</g>
<!-- A_bit_2&#45;&gt;B_bot -->
<g id="edge9" class="edge">
<title>A_bit_2:sw&#45;&gt;B_bot:nw</title>
<path fill="none" stroke="#000000" d="M132.648,-79C118.9264,-65.2784 100.9838,-53.025 104.2122,-39.831"/>
<polygon fill="#000000" stroke="#000000" points="107.3867,-41.3507 109.648,-31 101.4255,-37.6813 107.3867,-41.3507"/>
</g>
<!-- A_bit_2&#45;&gt;R_bot -->
<g id="edge8" class="edge">
<title>A_bit_2:se&#45;&gt;R_bot</title>
<path fill="none" stroke="#000000" d="M154.648,-79C165.6847,-67.9634 176.0075,-53.9343 183.8769,-42.1135"/>
<polygon fill="#000000" stroke="#000000" points="186.8971,-43.8885 189.3877,-33.5905 181.0188,-40.0877 186.8971,-43.8885"/>
</g>
<!-- B_bit_0&#45;&gt;R_bot -->
<g id="edge10" class="edge">
<title>B_bit_0:sw&#45;&gt;R_bot:n</title>
<path fill="none" stroke="#000000" d="M198.648,-90C194.9744,-70.086 197.5,-62.4195 198.379,-46.0936"/>
<polygon fill="#000000" stroke="#000000" points="201.8802,-46.0897 198.648,-36 194.8827,-45.9031 201.8802,-46.0897"/>
<path fill="none" stroke="#000000" d="M242.648,-223C198.6222,-178.9742 209.9431,-151.2288 198.648,-90"/>
</g>
<!-- B_bit_1 -->
<g id="node11" class="node">
<title>B_bit_1</title>
<polygon fill="none" stroke="#000000" points="253.648,-180 226.648,-162 253.648,-144 280.648,-162 253.648,-180"/>
<text text-anchor="middle" x="253.648" y="-157" font-family="Helvetica,sans-Serif" font-size="20.00" fill="#00bfff">&lt;</text>
</g>
<!-- B_bit_0&#45;&gt;B_bit_1 -->
<g id="edge11" class="edge">
<title>B_bit_0:se&#45;&gt;B_bit_1:ne</title>
<path fill="none" stroke="#000000" d="M264.648,-223C277.7835,-209.8645 279.9386,-194.7308 271.1132,-180.9396"/>
<polygon fill="#000000" stroke="#000000" points="273.6764,-178.5444 264.648,-173 268.2483,-182.9644 273.6764,-178.5444"/>
</g>
<!-- B_bit_1&#45;&gt;R_bot -->
<g id="edge12" class="edge">
<title>B_bit_1:sw&#45;&gt;R_bot:n</title>
<path fill="none" stroke="#000000" d="M242.648,-151C219.0109,-127.3628 204.7123,-122.8733 198.648,-90"/>
</g>
<!-- halt -->
<g id="node12" class="node">
<title>halt</title>
<ellipse fill="none" stroke="#000000" cx="253.648" cy="-90" rx="11" ry="11"/>
<ellipse fill="none" stroke="#000000" cx="253.648" cy="-90" rx="15" ry="15"/>
</g>
<!-- B_bit_1&#45;&gt;halt -->
<g id="edge13" class="edge">
<title>B_bit_1:se&#45;&gt;halt</title>
<path fill="none" stroke="#000000" d="M264.648,-151C274.653,-140.995 271.4789,-125.1758 266.0243,-112.1542"/>
<polygon fill="#000000" stroke="#000000" points="269.0623,-110.3944 261.5891,-102.8844 262.7479,-113.4156 269.0623,-110.3944"/>
</g>
<!-- halt&#45;&gt;R_bot -->
</g>
</svg>
