<?xml version="1.0" encoding="UTF-8" standalone="no"?>
<!DOCTYPE svg PUBLIC "-//W3C//DTD SVG 1.1//EN"
 "http://www.w3.org/Graphics/SVG/1.1/DTD/svg11.dtd">
<!-- Generated by graphviz version 2.40.1 (0)
 -->
<!-- Title: Challenge20 Pages: 1 -->
<svg width="288pt" height="424pt"
 viewBox="0.00 0.00 288.26 424.00" xmlns="http://www.w3.org/2000/svg" xmlns:xlink="http://www.w3.org/1999/xlink">
<g id="graph0" class="graph" transform="scale(1 1) rotate(0) translate(4 420)">
<title>Challenge20</title>
<polygon fill="#ffffff" stroke="transparent" points="-4,4 -4,-420 284.2604,-420 284.2604,4 -4,4"/>
<text text-anchor="middle" x="140.1302" y="-402.4" font-family="Helvetica,sans-Serif" font-weight="bold" font-size="12.00" fill="#000000">Challenge #20: Symbiosis</text>
<!-- start -->
<g id="node1" class="node">
<title>start</title>
<ellipse fill="#000000" stroke="#000000" cx="95.7604" cy="-374.5" rx="3.96" ry="3.96"/>
</g>
<!-- B_top -->
<g id="node2" class="node">
<title>B_top</title>
<ellipse fill="none" stroke="#000000" cx="95.7604" cy="-300" rx="18" ry="18"/>
<text text-anchor="middle" x="95.7604" y="-296.9" font-family="Helvetica,sans-Serif" font-size="12.00" fill="#0000ff">B</text>
</g>
<!-- start&#45;&gt;B_top -->
<g id="edge1" class="edge">
<title>start&#45;&gt;B_top</title>
<path fill="none" stroke="#000000" d="M95.7604,-370.4946C95.7604,-362.5609 95.7604,-344.2324 95.7604,-328.2532"/>
<polygon fill="#000000" stroke="#000000" points="99.2605,-328.2247 95.7604,-318.2248 92.2605,-328.2248 99.2605,-328.2247"/>
</g>
<!-- bit_0 -->
<g id="node7" class="node">
<title>bit_0</title>
<polygon fill="none" stroke="#000000" points="114.7604,-246 87.7604,-228 114.7604,-210 141.7604,-228 114.7604,-246"/>
<text text-anchor="middle" x="114.7604" y="-223" font-family="Helvetica,sans-Serif" font-size="20.00" fill="#00bfff">^</text>
</g>
<!-- B_top&#45;&gt;bit_0 -->
<g id="edge2" class="edge">
<title>B_top&#45;&gt;bit_0:n</title>
<path fill="none" stroke="#000000" d="M104.5929,-283.9707C108.3142,-276.109 112.1728,-266.1724 113.8695,-256.0771"/>
<polygon fill="#000000" stroke="#000000" points="117.366,-256.2694 114.7604,-246 110.3932,-255.6529 117.366,-256.2694"/>
</g>
<!-- B_bot -->
<g id="node3" class="node">
<title>B_bot</title>
<ellipse fill="none" stroke="#000000" cx="134.7604" cy="-18" rx="18" ry="18"/>
<text text-anchor="middle" x="134.7604" y="-14.9" font-family="Helvetica,sans-Serif" font-size="12.00" fill="#0000ff">%</text>
</g>
<!-- B_bot&#45;&gt;B_top -->
<g id="edge9" class="edge">
<title>B_bot:w&#45;&gt;B_top:w</title>
<path fill="none" stroke="#0000ff" stroke-dasharray="1,5" d="M116.7604,-18C-9.7659,-18 -48.7659,-300 77.7604,-300"/>
</g>
<!-- R_bot -->
<g id="node5" class="node">
<title>R_bot</title>
<ellipse fill="none" stroke="#000000" cx="188.7604" cy="-18" rx="18" ry="18"/>
<text text-anchor="middle" x="188.7604" y="-14.9" font-family="Helvetica,sans-Serif" font-size="12.00" fill="#ff0000">%</text>
</g>
<!-- B_bot&#45;&gt;R_bot -->
<!-- R_top -->
<g id="node4" class="node">
<title>R_top</title>
<ellipse fill="none" stroke="#000000" cx="217.7604" cy="-300" rx="18" ry="18"/>
<text text-anchor="middle" x="217.7604" y="-296.9" font-family="Helvetica,sans-Serif" font-size="12.00" fill="#ff0000">R</text>
</g>
<!-- halt -->
<g id="node9" class="node">
<title>halt</title>
<ellipse fill="none" stroke="#000000" cx="126.7604" cy="-87" rx="11" ry="11"/>
<ellipse fill="none" stroke="#000000" cx="126.7604" cy="-87" rx="15" ry="15"/>
</g>
<!-- R_top&#45;&gt;halt -->
<g id="edge3" class="edge">
<title>R_top&#45;&gt;halt:ne</title>
<path fill="none" stroke="#000000" d="M218.5685,-281.5256C219.1065,-249.8228 216.4426,-184.0331 188.7604,-138 175.8865,-116.5919 162.3061,-117.551 145.6423,-104.8997"/>
<polygon fill="#000000" stroke="#000000" points="147.5901,-101.9532 137.7604,-98 142.9794,-107.2203 147.5901,-101.9532"/>
</g>
<!-- R_bot&#45;&gt;R_top -->
<g id="edge10" class="edge">
<title>R_bot:e&#45;&gt;R_top:e</title>
<path fill="none" stroke="#ff0000" stroke-dasharray="1,5" d="M206.7604,-18C292.6521,-18 219.7155,-124.5859 228.7604,-210 235.2041,-270.85 238.6212,-300 235.7604,-300"/>
</g>
<!-- objective -->
<g id="node6" class="node">
<title>objective</title>
<text text-anchor="start" x="125.7604" y="-382.5" font-family="Times" font-size="10.00" fill="#000000">If the top bit OR the bottom bit start</text>
<text text-anchor="start" x="125.7604" y="-371.5" font-family="Times" font-size="10.00" fill="#000000">pointed to the right, intercept a blue</text>
<text text-anchor="start" x="125.7604" y="-360.5" font-family="Times" font-size="10.00" fill="#000000">ball. Otherwise, intercept a red ball.</text>
</g>
<!-- bit_1 -->
<g id="node8" class="node">
<title>bit_1</title>
<polygon fill="none" stroke="#000000" points="152.7604,-174 125.7604,-156 152.7604,-138 179.7604,-156 152.7604,-174"/>
<text text-anchor="middle" x="152.7604" y="-151" font-family="Helvetica,sans-Serif" font-size="20.00" fill="#00bfff">^</text>
</g>
<!-- bit_0&#45;&gt;bit_1 -->
<g id="edge5" class="edge">
<title>bit_0:se&#45;&gt;bit_1:n</title>
<path fill="none" stroke="#000000" d="M125.7604,-217C138.9745,-203.7858 148.8191,-198.4443 151.8128,-184.1827"/>
<polygon fill="#000000" stroke="#000000" points="155.3187,-184.2813 152.7604,-174 148.3488,-183.6327 155.3187,-184.2813"/>
</g>
<!-- bit_0&#45;&gt;halt -->
<g id="edge4" class="edge">
<title>bit_0:sw&#45;&gt;halt</title>
<path fill="none" stroke="#000000" d="M103.7604,-217C75.2211,-188.4607 96.8269,-137.6731 113.0952,-108.7485"/>
<polygon fill="#000000" stroke="#000000" points="116.2804,-110.2364 118.3275,-99.8412 110.2447,-106.6909 116.2804,-110.2364"/>
</g>
<!-- bit_1&#45;&gt;R_bot -->
<g id="edge7" class="edge">
<title>bit_1:se&#45;&gt;R_bot:n</title>
<path fill="none" stroke="#000000" d="M163.7604,-145C196.4341,-112.3263 189.9631,-89.1532 188.8916,-46.1178"/>
<polygon fill="#000000" stroke="#000000" points="192.3898,-45.9537 188.7604,-36 185.3904,-46.0446 192.3898,-45.9537"/>
</g>
<!-- bit_1&#45;&gt;halt -->
<g id="edge6" class="edge">
<title>bit_1:sw&#45;&gt;halt</title>
<path fill="none" stroke="#000000" d="M141.7604,-145C133.2333,-136.4729 129.3533,-123.7724 127.6601,-112.4279"/>
<polygon fill="#000000" stroke="#000000" points="131.1094,-111.747 126.6265,-102.1474 124.1445,-112.4474 131.1094,-111.747"/>
</g>
<!-- halt&#45;&gt;B_bot -->
</g>
</svg>
