<?xml version="1.0" encoding="UTF-8" standalone="no"?>
<!DOCTYPE svg PUBLIC "-//W3C//DTD SVG 1.1//EN"
 "http://www.w3.org/Graphics/SVG/1.1/DTD/svg11.dtd">
<!-- Generated by graphviz version 2.40.1 (0)
 -->
<!-- Title: Challenge19 Pages: 1 -->
<svg width="304pt" height="435pt"
 viewBox="0.00 0.00 303.83 435.00" xmlns="http://www.w3.org/2000/svg" xmlns:xlink="http://www.w3.org/1999/xlink">
<g id="graph0" class="graph" transform="scale(1 1) rotate(0) translate(4 431)">
<title>Challenge19</title>
<polygon fill="#ffffff" stroke="transparent" points="-4,4 -4,-431 299.8257,-431 299.8257,4 -4,4"/>
<text text-anchor="middle" x="147.9129" y="-413.4" font-family="Helvetica,sans-Serif" font-weight="bold" font-size="12.00" fill="#000000">Challenge #19: Entanglement</text>
<!-- start -->
<g id="node1" class="node">
<title>start</title>
<ellipse fill="#000000" stroke="#000000" cx="121.8257" cy="-380" rx="3.96" ry="3.96"/>
</g>
<!-- B_top -->
<g id="node2" class="node">
<title>B_top</title>
<ellipse fill="none" stroke="#000000" cx="121.8257" cy="-300" rx="18" ry="18"/>
<text text-anchor="middle" x="121.8257" y="-296.9" font-family="Helvetica,sans-Serif" font-size="12.00" fill="#0000ff">B</text>
</g>
<!-- start&#45;&gt;B_top -->
<g id="edge1" class="edge">
<title>start&#45;&gt;B_top</title>
<path fill="none" stroke="#000000" d="M121.8257,-375.6989C121.8257,-366.8833 121.8257,-346.116 121.8257,-328.5593"/>
<polygon fill="#000000" stroke="#000000" points="125.3258,-328.1782 121.8257,-318.1782 118.3258,-328.1783 125.3258,-328.1782"/>
</g>
<!-- bit_0 -->
<g id="node7" class="node">
<title>bit_0</title>
<polygon fill="none" stroke="#000000" points="153.8257,-246 126.8257,-228 153.8257,-210 180.8257,-228 153.8257,-246"/>
<text text-anchor="middle" x="153.8257" y="-223" font-family="Helvetica,sans-Serif" font-size="20.00" fill="#00bfff">^</text>
</g>
<!-- B_top&#45;&gt;bit_0 -->
<g id="edge2" class="edge">
<title>B_top&#45;&gt;bit_0:nw</title>
<path fill="none" stroke="#000000" d="M123.7693,-282.0174C125.6321,-271.3736 129.2701,-257.8936 136.3638,-247.0385"/>
<polygon fill="#000000" stroke="#000000" points="139.2882,-248.9868 142.8257,-239 133.8324,-244.601 139.2882,-248.9868"/>
</g>
<!-- B_bot -->
<g id="node3" class="node">
<title>B_bot</title>
<ellipse fill="none" stroke="#000000" cx="103.8257" cy="-18" rx="18" ry="18"/>
<text text-anchor="middle" x="103.8257" y="-14.9" font-family="Helvetica,sans-Serif" font-size="12.00" fill="#0000ff">%</text>
</g>
<!-- B_bot&#45;&gt;B_top -->
<g id="edge9" class="edge">
<title>B_bot:w&#45;&gt;B_top:w</title>
<path fill="none" stroke="#0000ff" stroke-dasharray="1,5" d="M85.8257,-18C-39.7627,-18 -21.7627,-300 103.8257,-300"/>
</g>
<!-- R_bot -->
<g id="node5" class="node">
<title>R_bot</title>
<ellipse fill="none" stroke="#000000" cx="164.8257" cy="-18" rx="18" ry="18"/>
<text text-anchor="middle" x="164.8257" y="-14.9" font-family="Helvetica,sans-Serif" font-size="12.00" fill="#ff0000">%</text>
</g>
<!-- B_bot&#45;&gt;R_bot -->
<!-- R_top -->
<g id="node4" class="node">
<title>R_top</title>
<ellipse fill="none" stroke="#000000" cx="184.8257" cy="-300" rx="18" ry="18"/>
<text text-anchor="middle" x="184.8257" y="-296.9" font-family="Helvetica,sans-Serif" font-size="12.00" fill="#ff0000">R</text>
</g>
<!-- R_top&#45;&gt;bit_0 -->
<g id="edge7" class="edge">
<title>R_top&#45;&gt;bit_0:ne</title>
<path fill="none" stroke="#000000" d="M183.2511,-281.9854C181.5943,-271.3281 178.1948,-257.8405 171.2204,-247.0106"/>
<polygon fill="#000000" stroke="#000000" points="173.7998,-244.6317 164.8257,-239 168.3291,-248.9988 173.7998,-244.6317"/>
</g>
<!-- R_bot&#45;&gt;R_top -->
<g id="edge10" class="edge">
<title>R_bot:e&#45;&gt;R_top:e</title>
<path fill="none" stroke="#ff0000" stroke-dasharray="1,5" d="M182.8257,-18C308.4739,-18 328.4739,-300 202.8257,-300"/>
</g>
<!-- objective -->
<g id="node6" class="node">
<title>objective</title>
<text text-anchor="start" x="151.8257" y="-394" font-family="Times" font-size="10.00" fill="#000000">If the top bit AND the bottom bit</text>
<text text-anchor="start" x="151.8257" y="-383" font-family="Times" font-size="10.00" fill="#000000">start pointed to the right,</text>
<text text-anchor="start" x="151.8257" y="-372" font-family="Times" font-size="10.00" fill="#000000">intercept a blue ball. Otherwise,</text>
<text text-anchor="start" x="151.8257" y="-361" font-family="Times" font-size="10.00" fill="#000000">intercept a red ball.</text>
</g>
<!-- bit_0&#45;&gt;R_bot -->
<g id="edge4" class="edge">
<title>bit_0:se&#45;&gt;R_bot:ne</title>
<path fill="none" stroke="#000000" d="M164.8257,-217C191.8352,-189.9906 204.9934,-79.6064 183.9304,-39.5696"/>
<polygon fill="#000000" stroke="#000000" points="186.4784,-37.114 177.8257,-31 180.7771,-41.1755 186.4784,-37.114"/>
</g>
<!-- bit_1 -->
<g id="node8" class="node">
<title>bit_1</title>
<polygon fill="none" stroke="#000000" points="129.8257,-174 102.8257,-156 129.8257,-138 156.8257,-156 129.8257,-174"/>
<text text-anchor="middle" x="129.8257" y="-151" font-family="Helvetica,sans-Serif" font-size="20.00" fill="#00bfff">^</text>
</g>
<!-- bit_0&#45;&gt;bit_1 -->
<g id="edge3" class="edge">
<title>bit_0:sw&#45;&gt;bit_1:n</title>
<path fill="none" stroke="#000000" d="M142.8257,-217C131.3551,-205.5294 129.9422,-197.4921 129.8156,-184.1724"/>
<polygon fill="#000000" stroke="#000000" points="133.3157,-184.0035 129.8257,-174 126.3157,-183.9965 133.3157,-184.0035"/>
</g>
<!-- bit_1&#45;&gt;R_bot -->
<g id="edge6" class="edge">
<title>bit_1:se&#45;&gt;R_bot:n</title>
<path fill="none" stroke="#000000" d="M140.8257,-145C173.4354,-112.3903 166.1551,-89.0779 164.9701,-46.101"/>
<polygon fill="#000000" stroke="#000000" points="168.4684,-45.9489 164.8257,-36 161.4691,-46.049 168.4684,-45.9489"/>
</g>
<!-- halt -->
<g id="node9" class="node">
<title>halt</title>
<ellipse fill="none" stroke="#000000" cx="103.8257" cy="-87" rx="11" ry="11"/>
<ellipse fill="none" stroke="#000000" cx="103.8257" cy="-87" rx="15" ry="15"/>
</g>
<!-- bit_1&#45;&gt;halt -->
<g id="edge5" class="edge">
<title>bit_1:sw&#45;&gt;halt</title>
<path fill="none" stroke="#000000" d="M118.8257,-145C110.2986,-136.4729 106.4186,-123.7724 104.7254,-112.4279"/>
<polygon fill="#000000" stroke="#000000" points="108.1747,-111.747 103.6918,-102.1474 101.2098,-112.4474 108.1747,-111.747"/>
</g>
<!-- halt&#45;&gt;B_bot -->
</g>
</svg>
