<?xml version="1.0" encoding="UTF-8" standalone="no"?>
<!DOCTYPE svg PUBLIC "-//W3C//DTD SVG 1.1//EN"
 "http://www.w3.org/Graphics/SVG/1.1/DTD/svg11.dtd">
<!-- Generated by graphviz version 2.40.1 (20161225.0304)
 -->
<!-- Title: Challenge11 Pages: 1 -->
<svg width="350pt" height="353pt"
 viewBox="0.00 0.00 350.00 353.00" xmlns="http://www.w3.org/2000/svg" xmlns:xlink="http://www.w3.org/1999/xlink">
<g id="graph0" class="graph" transform="scale(1 1) rotate(0) translate(4 349)">
<title>Challenge11</title>
<polygon fill="#ffffff" stroke="transparent" points="-4,4 -4,-349 346,-349 346,4 -4,4"/>
<text text-anchor="middle" x="171" y="-331.4" font-family="Helvetica,sans-Serif" font-weight="bold" font-size="12.00" fill="#000000">Challenge #11: Selectivity</text>
<!-- start -->
<g id="node1" class="node">
<title>start</title>
<ellipse fill="#000000" stroke="#000000" cx="171" cy="-306" rx="3.96" ry="3.96"/>
</g>
<!-- B_top -->
<g id="node2" class="node">
<title>B_top</title>
<ellipse fill="none" stroke="#000000" cx="171" cy="-234" rx="18" ry="18"/>
<text text-anchor="middle" x="171" y="-230.9" font-family="Helvetica,sans-Serif" font-size="12.00" fill="#0000ff">B</text>
</g>
<!-- start&#45;&gt;B_top -->
<g id="edge1" class="edge">
<title>start&#45;&gt;B_top</title>
<path fill="none" stroke="#000000" d="M171,-301.7117C171,-294.0623 171,-277.4722 171,-262.6289"/>
<polygon fill="#000000" stroke="#000000" points="174.5001,-262.2821 171,-252.2821 167.5001,-262.2821 174.5001,-262.2821"/>
</g>
<!-- bit_T -->
<g id="node7" class="node">
<title>bit_T</title>
<polygon fill="none" stroke="#000000" points="171,-180 144,-162 171,-144 198,-162 171,-180"/>
<text text-anchor="middle" x="171" y="-157" font-family="Helvetica,sans-Serif" font-size="20.00" fill="#00bfff">&gt;</text>
</g>
<!-- B_top&#45;&gt;bit_T -->
<g id="edge2" class="edge">
<title>B_top&#45;&gt;bit_T</title>
<path fill="none" stroke="#000000" d="M171,-215.8314C171,-208.131 171,-198.9743 171,-190.4166"/>
<polygon fill="#000000" stroke="#000000" points="174.5001,-190.4132 171,-180.4133 167.5001,-190.4133 174.5001,-190.4132"/>
</g>
<!-- B_bot -->
<g id="node3" class="node">
<title>B_bot</title>
<ellipse fill="none" stroke="#000000" cx="207" cy="-18" rx="18" ry="18"/>
<text text-anchor="middle" x="207" y="-14.9" font-family="Helvetica,sans-Serif" font-size="12.00" fill="#0000ff">B</text>
</g>
<!-- R_top -->
<g id="node4" class="node">
<title>R_top</title>
<ellipse fill="none" stroke="#000000" cx="225" cy="-234" rx="18" ry="18"/>
<text text-anchor="middle" x="225" y="-230.9" font-family="Helvetica,sans-Serif" font-size="12.00" fill="#ff0000">R</text>
</g>
<!-- R_bot -->
<g id="node5" class="node">
<title>R_bot</title>
<ellipse fill="none" stroke="#000000" cx="261" cy="-18" rx="18" ry="18"/>
<text text-anchor="middle" x="261" y="-14.9" font-family="Helvetica,sans-Serif" font-size="12.00" fill="#ff0000">R</text>
</g>
<!-- objective -->
<g id="node6" class="node">
<title>objective</title>
<text text-anchor="middle" x="259" y="-303.5" font-family="Times" font-size="10.00" fill="#000000">Flip bits 2 and 5 to the right.</text>
</g>
<!-- bit_1 -->
<g id="node8" class="node">
<title>bit_1</title>
<polygon fill="none" stroke="#000000" points="27,-108 0,-90 27,-72 54,-90 27,-108"/>
<text text-anchor="middle" x="27" y="-85" font-family="Helvetica,sans-Serif" font-size="20.00" fill="#00bfff">^</text>
</g>
<!-- bit_T&#45;&gt;bit_1 -->
<!-- bit_2 -->
<g id="node9" class="node">
<title>bit_2</title>
<polygon fill="none" stroke="#000000" points="99,-108 72,-90 99,-72 126,-90 99,-108"/>
<text text-anchor="middle" x="99" y="-85" font-family="Helvetica,sans-Serif" font-size="20.00" fill="#00bfff">^</text>
</g>
<!-- bit_T&#45;&gt;bit_2 -->
<g id="edge4" class="edge">
<title>bit_T&#45;&gt;bit_2</title>
<path fill="none" stroke="#000000" d="M160.0647,-151.0647C148.7522,-139.7522 130.8843,-121.8843 117.3932,-108.3932"/>
<polygon fill="#000000" stroke="#000000" points="119.5841,-105.6344 110.0382,-101.0382 114.6344,-110.5841 119.5841,-105.6344"/>
</g>
<!-- bit_3 -->
<g id="node10" class="node">
<title>bit_3</title>
<polygon fill="none" stroke="#000000" points="171,-108 144,-90 171,-72 198,-90 171,-108"/>
<text text-anchor="middle" x="171" y="-85" font-family="Helvetica,sans-Serif" font-size="20.00" fill="#00bfff">^</text>
</g>
<!-- bit_T&#45;&gt;bit_3 -->
<!-- bit_4 -->
<g id="node11" class="node">
<title>bit_4</title>
<polygon fill="none" stroke="#000000" points="243,-108 216,-90 243,-72 270,-90 243,-108"/>
<text text-anchor="middle" x="243" y="-85" font-family="Helvetica,sans-Serif" font-size="20.00" fill="#00bfff">^</text>
</g>
<!-- bit_T&#45;&gt;bit_4 -->
<!-- bit_5 -->
<g id="node12" class="node">
<title>bit_5</title>
<polygon fill="none" stroke="#000000" points="315,-108 288,-90 315,-72 342,-90 315,-108"/>
<text text-anchor="middle" x="315" y="-85" font-family="Helvetica,sans-Serif" font-size="20.00" fill="#00bfff">^</text>
</g>
<!-- bit_T&#45;&gt;bit_5 -->
<g id="edge7" class="edge">
<title>bit_T&#45;&gt;bit_5</title>
<path fill="none" stroke="#000000" d="M186.6846,-154.1577C211.5711,-141.7145 260.3219,-117.339 290.0458,-102.4771"/>
<polygon fill="#000000" stroke="#000000" points="291.9557,-105.4353 299.3347,-97.8327 288.8251,-99.1743 291.9557,-105.4353"/>
</g>
<!-- bit_2&#45;&gt;B_bot -->
<g id="edge8" class="edge">
<title>bit_2&#45;&gt;B_bot</title>
<path fill="none" stroke="#000000" d="M112.6783,-80.8812C130.438,-69.0413 161.7168,-48.1888 183.3586,-33.7609"/>
<polygon fill="#000000" stroke="#000000" points="185.3155,-36.6628 191.6946,-28.2036 181.4326,-30.8385 185.3155,-36.6628"/>
</g>
<!-- bit_5&#45;&gt;B_bot -->
<g id="edge9" class="edge">
<title>bit_5&#45;&gt;B_bot</title>
<path fill="none" stroke="#000000" d="M301.3217,-80.8812C283.562,-69.0413 252.2832,-48.1888 230.6414,-33.7609"/>
<polygon fill="#000000" stroke="#000000" points="232.5674,-30.8385 222.3054,-28.2036 228.6845,-36.6628 232.5674,-30.8385"/>
</g>
</g>
</svg>
