<?xml version="1.0" encoding="UTF-8" standalone="no"?>
<!DOCTYPE svg PUBLIC "-//W3C//DTD SVG 1.1//EN"
 "http://www.w3.org/Graphics/SVG/1.1/DTD/svg11.dtd">
<!-- Generated by graphviz version 2.40.1 (0)
 -->
<!-- Title: Challenge25 Pages: 1 -->
<svg width="335pt" height="425pt"
 viewBox="0.00 0.00 334.60 425.00" xmlns="http://www.w3.org/2000/svg" xmlns:xlink="http://www.w3.org/1999/xlink">
<g id="graph0" class="graph" transform="scale(1 1) rotate(0) translate(4 421)">
<title>Challenge25</title>
<polygon fill="#ffffff" stroke="transparent" points="-4,4 -4,-421 330.599,-421 330.599,4 -4,4"/>
<text text-anchor="middle" x="163.2995" y="-403.4" font-family="Helvetica,sans-Serif" font-weight="bold" font-size="12.00" fill="#000000">Challenge #25: Regular Expression</text>
<g id="clust3" class="cluster">
<title>cluster_Register_A</title>
<polygon fill="none" stroke="#c0c0c0" points="100.599,-64 100.599,-260 170.599,-260 170.599,-64 100.599,-64"/>
</g>
<g id="clust4" class="cluster">
<title>cluster_Register_B</title>
<polygon fill="none" stroke="#c0c0c0" points="248.599,-136 248.599,-260 318.599,-260 318.599,-136 248.599,-136"/>
</g>
<!-- start -->
<g id="node1" class="node">
<title>start</title>
<ellipse fill="#000000" stroke="#000000" cx="112.599" cy="-378" rx="3.96" ry="3.96"/>
</g>
<!-- B_top -->
<g id="node2" class="node">
<title>B_top</title>
<ellipse fill="none" stroke="#000000" cx="112.599" cy="-306" rx="18" ry="18"/>
<text text-anchor="middle" x="112.599" y="-302.9" font-family="Helvetica,sans-Serif" font-size="12.00" fill="#0000ff">B</text>
</g>
<!-- start&#45;&gt;B_top -->
<g id="edge1" class="edge">
<title>start&#45;&gt;B_top</title>
<path fill="none" stroke="#000000" d="M112.599,-373.7117C112.599,-366.0623 112.599,-349.4722 112.599,-334.6289"/>
<polygon fill="#000000" stroke="#000000" points="116.0991,-334.2821 112.599,-324.2821 109.0991,-334.2821 116.0991,-334.2821"/>
</g>
<!-- A_bit_0 -->
<g id="node7" class="node">
<title>A_bit_0</title>
<polygon fill="none" stroke="#000000" points="135.599,-252 108.599,-234 135.599,-216 162.599,-234 135.599,-252"/>
<text text-anchor="middle" x="135.599" y="-229" font-family="Helvetica,sans-Serif" font-size="20.00" fill="#00bfff">&gt;</text>
</g>
<!-- B_top&#45;&gt;A_bit_0 -->
<g id="edge2" class="edge">
<title>B_top&#45;&gt;A_bit_0:n</title>
<path fill="none" stroke="#000000" d="M122.754,-291.1207C127.4232,-283.1899 132.3922,-272.8886 134.5253,-262.2443"/>
<polygon fill="#000000" stroke="#000000" points="138.0374,-262.3104 135.599,-252 131.0755,-261.5807 138.0374,-262.3104"/>
</g>
<!-- B_bot -->
<g id="node3" class="node">
<title>B_bot</title>
<ellipse fill="none" stroke="#000000" cx="115.599" cy="-18" rx="18" ry="18"/>
<text text-anchor="middle" x="115.599" y="-14.9" font-family="Helvetica,sans-Serif" font-size="12.00" fill="#0000ff">%</text>
</g>
<!-- B_bot&#45;&gt;B_top -->
<g id="edge15" class="edge">
<title>B_bot:w&#45;&gt;B_top:w</title>
<path fill="none" stroke="#0000ff" stroke-dasharray="1,5" d="M97.599,-18C-30.408,-18 -33.408,-306 94.599,-306"/>
</g>
<!-- R_bot -->
<g id="node5" class="node">
<title>R_bot</title>
<ellipse fill="none" stroke="#000000" cx="228.599" cy="-18" rx="18" ry="18"/>
<text text-anchor="middle" x="228.599" y="-14.9" font-family="Helvetica,sans-Serif" font-size="12.00" fill="#ff0000">%</text>
</g>
<!-- B_bot&#45;&gt;R_bot -->
<!-- R_top -->
<g id="node4" class="node">
<title>R_top</title>
<ellipse fill="none" stroke="#000000" cx="195.599" cy="-306" rx="18" ry="18"/>
<text text-anchor="middle" x="195.599" y="-302.9" font-family="Helvetica,sans-Serif" font-size="12.00" fill="#ff0000">R</text>
</g>
<!-- B_bit_0 -->
<g id="node10" class="node">
<title>B_bit_0</title>
<polygon fill="none" stroke="#000000" points="283.599,-252 256.599,-234 283.599,-216 310.599,-234 283.599,-252"/>
<text text-anchor="middle" x="283.599" y="-229" font-family="Helvetica,sans-Serif" font-size="20.00" fill="#00bfff">&gt;</text>
</g>
<!-- R_top&#45;&gt;B_bit_0 -->
<g id="edge3" class="edge">
<title>R_top:se&#45;&gt;B_bit_0:n</title>
<path fill="none" stroke="#000000" d="M208.599,-293C232.6281,-268.9709 273.6816,-285.522 282.074,-262.0883"/>
<polygon fill="#000000" stroke="#000000" points="285.5649,-262.4108 283.599,-252 278.6436,-261.3645 285.5649,-262.4108"/>
</g>
<!-- R_bot&#45;&gt;R_top -->
<g id="edge16" class="edge">
<title>R_bot:e&#45;&gt;R_top:e</title>
<path fill="none" stroke="#ff0000" stroke-dasharray="1,5" d="M246.599,-18C276.4695,-18 283.7339,-36.5871 295.599,-64 303.3668,-81.9466 305.5583,-91.1705 295.599,-108 282.4298,-130.2534 259.7188,-115.023 244.599,-136 199.6914,-198.3039 290.4004,-306 213.599,-306"/>
</g>
<!-- objective -->
<g id="node6" class="node">
<title>objective</title>
<text text-anchor="start" x="142.599" y="-375" font-family="Times" font-size="10.00" fill="#000000">Generate the required pattern (3R6B).</text>
</g>
<!-- A_bit_0&#45;&gt;B_bot -->
<g id="edge6" class="edge">
<title>A_bit_0:sw&#45;&gt;B_bot:nw</title>
<path fill="none" stroke="#000000" d="M80.599,-90C81.662,-65.7543 82.544,-54.0725 95.6647,-38.4921"/>
<polygon fill="#000000" stroke="#000000" points="98.375,-40.7164 102.599,-31 93.2377,-35.9616 98.375,-40.7164"/>
<path fill="none" stroke="#000000" d="M124.599,-223C80.5732,-178.9742 77.8718,-152.2021 80.599,-90"/>
</g>
<!-- A_bit_1 -->
<g id="node8" class="node">
<title>A_bit_1</title>
<polygon fill="none" stroke="#000000" points="135.599,-180 108.599,-162 135.599,-144 162.599,-162 135.599,-180"/>
<text text-anchor="middle" x="135.599" y="-157" font-family="Helvetica,sans-Serif" font-size="20.00" fill="#00bfff">&lt;</text>
</g>
<!-- A_bit_0&#45;&gt;A_bit_1 -->
<g id="edge4" class="edge">
<title>A_bit_0:se&#45;&gt;A_bit_1:ne</title>
<path fill="none" stroke="#000000" d="M146.599,-223C159.7344,-209.8645 161.8895,-194.7308 153.0641,-180.9396"/>
<polygon fill="#000000" stroke="#000000" points="155.6273,-178.5444 146.599,-173 150.1992,-182.9644 155.6273,-178.5444"/>
</g>
<!-- A_bit_1&#45;&gt;B_bot -->
<g id="edge7" class="edge">
<title>A_bit_1:sw&#45;&gt;B_bot:nw</title>
<path fill="none" stroke="#000000" d="M124.599,-151C100.9618,-127.3628 79.1348,-123.3959 80.599,-90"/>
</g>
<!-- A_bit_2 -->
<g id="node9" class="node">
<title>A_bit_2</title>
<polygon fill="none" stroke="#000000" points="135.599,-108 108.599,-90 135.599,-72 162.599,-90 135.599,-108"/>
<text text-anchor="middle" x="135.599" y="-85" font-family="Helvetica,sans-Serif" font-size="20.00" fill="#00bfff">&gt;</text>
</g>
<!-- A_bit_1&#45;&gt;A_bit_2 -->
<g id="edge5" class="edge">
<title>A_bit_1:se&#45;&gt;A_bit_2:ne</title>
<path fill="none" stroke="#000000" d="M146.599,-151C159.7344,-137.8645 161.8895,-122.7308 153.0641,-108.9396"/>
<polygon fill="#000000" stroke="#000000" points="155.6273,-106.5444 146.599,-101 150.1992,-110.9644 155.6273,-106.5444"/>
</g>
<!-- A_bit_2&#45;&gt;B_bot -->
<g id="edge8" class="edge">
<title>A_bit_2:sw&#45;&gt;B_bot:nw</title>
<path fill="none" stroke="#000000" d="M124.599,-79C110.9868,-65.3878 93.7367,-52.9746 97.1368,-39.7932"/>
<polygon fill="#000000" stroke="#000000" points="100.2954,-41.3414 102.599,-31 94.3492,-37.6478 100.2954,-41.3414"/>
</g>
<!-- A_bit_2&#45;&gt;R_bot -->
<g id="edge9" class="edge">
<title>A_bit_2:se&#45;&gt;R_bot</title>
<path fill="none" stroke="#000000" d="M146.599,-79C164.3344,-61.2646 187.4858,-44.5162 204.6643,-33.0725"/>
<polygon fill="#000000" stroke="#000000" points="206.5882,-35.9964 213.0428,-27.5946 202.7576,-30.1375 206.5882,-35.9964"/>
</g>
<!-- B_bit_0&#45;&gt;R_bot -->
<g id="edge11" class="edge">
<title>B_bit_0:sw&#45;&gt;R_bot:n</title>
<path fill="none" stroke="#000000" d="M228.599,-90C224.9254,-70.086 227.451,-62.4195 228.3299,-46.0936"/>
<polygon fill="#000000" stroke="#000000" points="231.8311,-46.0897 228.599,-36 224.8336,-45.9031 231.8311,-46.0897"/>
<path fill="none" stroke="#000000" d="M272.599,-223C228.5732,-178.9742 239.894,-151.2288 228.599,-90"/>
</g>
<!-- B_bit_1 -->
<g id="node11" class="node">
<title>B_bit_1</title>
<polygon fill="none" stroke="#000000" points="283.599,-180 256.599,-162 283.599,-144 310.599,-162 283.599,-180"/>
<text text-anchor="middle" x="283.599" y="-157" font-family="Helvetica,sans-Serif" font-size="20.00" fill="#00bfff">&lt;</text>
</g>
<!-- B_bit_0&#45;&gt;B_bit_1 -->
<g id="edge10" class="edge">
<title>B_bit_0:se&#45;&gt;B_bit_1:ne</title>
<path fill="none" stroke="#000000" d="M294.599,-223C307.7344,-209.8645 309.8895,-194.7308 301.0641,-180.9396"/>
<polygon fill="#000000" stroke="#000000" points="303.6273,-178.5444 294.599,-173 298.1992,-182.9644 303.6273,-178.5444"/>
</g>
<!-- B_bit_1&#45;&gt;R_bot -->
<g id="edge13" class="edge">
<title>B_bit_1:sw&#45;&gt;R_bot:n</title>
<path fill="none" stroke="#000000" d="M272.599,-151C248.9618,-127.3628 234.6632,-122.8733 228.599,-90"/>
</g>
<!-- halt -->
<g id="node12" class="node">
<title>halt</title>
<ellipse fill="none" stroke="#000000" cx="271.599" cy="-90" rx="11" ry="11"/>
<ellipse fill="none" stroke="#000000" cx="271.599" cy="-90" rx="15" ry="15"/>
</g>
<!-- B_bit_1&#45;&gt;halt -->
<g id="edge12" class="edge">
<title>B_bit_1:se&#45;&gt;halt</title>
<path fill="none" stroke="#000000" d="M294.599,-151C305.7595,-139.8395 297.9359,-122.7369 288.4991,-109.4778"/>
<polygon fill="#000000" stroke="#000000" points="291.1434,-107.1763 282.2482,-101.4208 285.6127,-111.4672 291.1434,-107.1763"/>
</g>
<!-- halt&#45;&gt;R_bot -->
</g>
</svg>
