<?xml version="1.0" encoding="UTF-8" standalone="no"?>
<!DOCTYPE svg PUBLIC "-//W3C//DTD SVG 1.1//EN"
 "http://www.w3.org/Graphics/SVG/1.1/DTD/svg11.dtd">
<!-- Generated by graphviz version 2.40.1 (0)
 -->
<!-- Title: Challenge03 Pages: 1 -->
<svg width="146pt" height="160pt"
 viewBox="0.00 0.00 146.00 159.92" xmlns="http://www.w3.org/2000/svg" xmlns:xlink="http://www.w3.org/1999/xlink">
<g id="graph0" class="graph" transform="scale(1 1) rotate(0) translate(4 155.92)">
<title>Challenge03</title>
<polygon fill="#ffffff" stroke="transparent" points="-4,4 -4,-155.92 142,-155.92 142,4 -4,4"/>
<!-- start -->
<g id="node1" class="node">
<title>start</title>
<ellipse fill="#000000" stroke="#000000" cx="42" cy="-147.96" rx="3.96" ry="3.96"/>
</g>
<!-- B_top -->
<g id="node2" class="node">
<title>B_top</title>
<ellipse fill="none" stroke="#000000" cx="42" cy="-90" rx="18" ry="18"/>
<text text-anchor="middle" x="42" y="-86.9" font-family="Helvetica,sans-Serif" font-size="12.00" fill="#0000ff">B</text>
</g>
<!-- start&#45;&gt;B_top -->
<g id="edge1" class="edge">
<title>start&#45;&gt;B_top</title>
<path fill="none" stroke="#000000" d="M42,-143.7917C42,-138.3205 42,-128.2374 42,-118.2669"/>
<polygon fill="#000000" stroke="#000000" points="45.5001,-118.1153 42,-108.1154 38.5001,-118.1154 45.5001,-118.1153"/>
</g>
<!-- R_bot -->
<g id="node5" class="node">
<title>R_bot</title>
<ellipse fill="none" stroke="#000000" cx="96" cy="-18" rx="18" ry="18"/>
<text text-anchor="middle" x="96" y="-14.9" font-family="Helvetica,sans-Serif" font-size="12.00" fill="#ff0000">R</text>
</g>
<!-- B_top&#45;&gt;R_bot -->
<g id="edge2" class="edge">
<title>B_top&#45;&gt;R_bot</title>
<path fill="none" stroke="#000000" d="M52.9277,-75.4297C60.3934,-65.4754 70.4368,-52.0842 78.9474,-40.7368"/>
<polygon fill="#000000" stroke="#000000" points="81.8885,-42.6486 85.0885,-32.5486 76.2885,-38.4486 81.8885,-42.6486"/>
</g>
<!-- B_bot -->
<g id="node3" class="node">
<title>B_bot</title>
<ellipse fill="none" stroke="#000000" cx="42" cy="-18" rx="18" ry="18"/>
<text text-anchor="middle" x="42" y="-14.9" font-family="Helvetica,sans-Serif" font-size="12.00" fill="#0000ff">B</text>
</g>
<!-- B_bot&#45;&gt;B_top -->
<g id="edge4" class="edge">
<title>B_bot:w&#45;&gt;B_top:w</title>
<path fill="none" stroke="#0000ff" stroke-dasharray="1,5" d="M24,-18C-8,-18 -8,-90 24,-90"/>
</g>
<!-- B_bot&#45;&gt;R_bot -->
<!-- R_top -->
<g id="node4" class="node">
<title>R_top</title>
<ellipse fill="none" stroke="#000000" cx="96" cy="-90" rx="18" ry="18"/>
<text text-anchor="middle" x="96" y="-86.9" font-family="Helvetica,sans-Serif" font-size="12.00" fill="#ff0000">R</text>
</g>
<!-- R_top&#45;&gt;R_bot -->
<g id="edge3" class="edge">
<title>R_top&#45;&gt;R_bot</title>
<path fill="none" stroke="#000000" d="M96,-71.8314C96,-64.131 96,-54.9743 96,-46.4166"/>
<polygon fill="#000000" stroke="#000000" points="99.5001,-46.4132 96,-36.4133 92.5001,-46.4133 99.5001,-46.4132"/>
</g>
<!-- R_bot&#45;&gt;R_top -->
<g id="edge5" class="edge">
<title>R_bot:e&#45;&gt;R_top:e</title>
<path fill="none" stroke="#ff0000" stroke-dasharray="1,5" d="M114,-18C146,-18 146,-90 114,-90"/>
</g>
</g>
</svg>
