<?xml version="1.0" encoding="UTF-8" standalone="no"?>
<!DOCTYPE svg PUBLIC "-//W3C//DTD SVG 1.1//EN"
 "http://www.w3.org/Graphics/SVG/1.1/DTD/svg11.dtd">
<!-- Generated by graphviz version 2.40.1 (0)
 -->
<!-- Title: Challenge01 Pages: 1 -->
<svg width="192pt" height="214pt"
 viewBox="0.00 0.00 192.00 214.00" xmlns="http://www.w3.org/2000/svg" xmlns:xlink="http://www.w3.org/1999/xlink">
<g id="graph0" class="graph" transform="scale(1 1) rotate(0) translate(4 210)">
<title>Challenge01</title>
<polygon fill="#ffffff" stroke="transparent" points="-4,4 -4,-210 188,-210 188,4 -4,4"/>
<text text-anchor="middle" x="92" y="-192.4" font-family="Helvetica,sans-Serif" font-weight="bold" font-size="12.00" fill="#000000">Challenge #1: Gravity</text>
<!-- start -->
<g id="node1" class="node">
<title>start</title>
<ellipse fill="#000000" stroke="#000000" cx="42" cy="-164.5" rx="3.96" ry="3.96"/>
</g>
<!-- B_top -->
<g id="node2" class="node">
<title>B_top</title>
<ellipse fill="none" stroke="#000000" cx="42" cy="-90" rx="18" ry="18"/>
<text text-anchor="middle" x="42" y="-86.9" font-family="Helvetica,sans-Serif" font-size="12.00" fill="#0000ff">B</text>
</g>
<!-- start&#45;&gt;B_top -->
<g id="edge1" class="edge">
<title>start&#45;&gt;B_top</title>
<path fill="none" stroke="#000000" d="M42,-160.4946C42,-152.5609 42,-134.2324 42,-118.2532"/>
<polygon fill="#000000" stroke="#000000" points="45.5001,-118.2247 42,-108.2248 38.5001,-118.2248 45.5001,-118.2247"/>
</g>
<!-- B_bot -->
<g id="node3" class="node">
<title>B_bot</title>
<ellipse fill="none" stroke="#000000" cx="42" cy="-18" rx="18" ry="18"/>
<text text-anchor="middle" x="42" y="-14.9" font-family="Helvetica,sans-Serif" font-size="12.00" fill="#0000ff">B</text>
</g>
<!-- B_top&#45;&gt;B_bot -->
<g id="edge2" class="edge">
<title>B_top&#45;&gt;B_bot</title>
<path fill="none" stroke="#000000" d="M42,-71.8314C42,-64.131 42,-54.9743 42,-46.4166"/>
<polygon fill="#000000" stroke="#000000" points="45.5001,-46.4132 42,-36.4133 38.5001,-46.4133 45.5001,-46.4132"/>
</g>
<!-- B_bot&#45;&gt;B_top -->
<g id="edge3" class="edge">
<title>B_bot:w&#45;&gt;B_top:w</title>
<path fill="none" stroke="#0000ff" stroke-dasharray="1,5" d="M24,-18C-8,-18 -8,-90 24,-90"/>
</g>
<!-- R_bot -->
<g id="node5" class="node">
<title>R_bot</title>
<ellipse fill="none" stroke="#000000" cx="96" cy="-18" rx="18" ry="18"/>
<text text-anchor="middle" x="96" y="-14.9" font-family="Helvetica,sans-Serif" font-size="12.00" fill="#ff0000">R</text>
</g>
<!-- B_bot&#45;&gt;R_bot -->
<!-- R_top -->
<g id="node4" class="node">
<title>R_top</title>
<ellipse fill="none" stroke="#000000" cx="96" cy="-90" rx="18" ry="18"/>
<text text-anchor="middle" x="96" y="-86.9" font-family="Helvetica,sans-Serif" font-size="12.00" fill="#ff0000">R</text>
</g>
<!-- R_bot&#45;&gt;R_top -->
<g id="edge4" class="edge">
<title>R_bot:e&#45;&gt;R_top:e</title>
<path fill="none" stroke="#ff0000" stroke-dasharray="1,5" d="M114,-18C146,-18 146,-90 114,-90"/>
</g>
<!-- objective -->
<g id="node6" class="node">
<title>objective</title>
<text text-anchor="start" x="72" y="-173" font-family="Times" font-size="10.00" fill="#000000">Make all of the blue balls</text>
<text text-anchor="start" x="72" y="-162" font-family="Times" font-size="10.00" fill="#000000">(and only the blue balls)</text>
<text text-anchor="middle" x="124" y="-151" font-family="Times" font-size="10.00" fill="#000000">reach the end</text>
</g>
</g>
</svg>
