<?xml version="1.0" encoding="UTF-8" standalone="no"?>
<!DOCTYPE svg PUBLIC "-//W3C//DTD SVG 1.1//EN"
 "http://www.w3.org/Graphics/SVG/1.1/DTD/svg11.dtd">
<!-- Generated by graphviz version 2.40.1 (0)
 -->
<!-- Title: Challenge10 Pages: 1 -->
<svg width="253pt" height="281pt"
 viewBox="0.00 0.00 253.12 281.00" xmlns="http://www.w3.org/2000/svg" xmlns:xlink="http://www.w3.org/1999/xlink">
<g id="graph0" class="graph" transform="scale(1 1) rotate(0) translate(4 277)">
<title>Challenge10</title>
<polygon fill="#ffffff" stroke="transparent" points="-4,4 -4,-277 249.1158,-277 249.1158,4 -4,4"/>
<text text-anchor="middle" x="122.5579" y="-259.4" font-family="Helvetica,sans-Serif" font-weight="bold" font-size="12.00" fill="#000000">Challenge #10: Double Bond</text>
<!-- start -->
<g id="node1" class="node">
<title>start</title>
<ellipse fill="#000000" stroke="#000000" cx="58.6158" cy="-234" rx="3.96" ry="3.96"/>
</g>
<!-- B_top -->
<g id="node2" class="node">
<title>B_top</title>
<ellipse fill="none" stroke="#000000" cx="58.6158" cy="-162" rx="18" ry="18"/>
<text text-anchor="middle" x="58.6158" y="-158.9" font-family="Helvetica,sans-Serif" font-size="12.00" fill="#0000ff">B</text>
</g>
<!-- start&#45;&gt;B_top -->
<g id="edge1" class="edge">
<title>start&#45;&gt;B_top</title>
<path fill="none" stroke="#000000" d="M58.6158,-229.7117C58.6158,-222.0623 58.6158,-205.4722 58.6158,-190.6289"/>
<polygon fill="#000000" stroke="#000000" points="62.1159,-190.2821 58.6158,-180.2821 55.1159,-190.2821 62.1159,-190.2821"/>
</g>
<!-- bit_a -->
<g id="node7" class="node">
<title>bit_a</title>
<polygon fill="none" stroke="#000000" points="77.6158,-108 50.6158,-90 77.6158,-72 104.6158,-90 77.6158,-108"/>
<text text-anchor="middle" x="77.6158" y="-85" font-family="Helvetica,sans-Serif" font-size="20.00" fill="#00bfff">&gt;</text>
</g>
<!-- B_top&#45;&gt;bit_a -->
<g id="edge2" class="edge">
<title>B_top&#45;&gt;bit_a</title>
<path fill="none" stroke="#000000" d="M63.2151,-144.5708C65.538,-135.7685 68.3991,-124.9265 70.9574,-115.2319"/>
<polygon fill="#000000" stroke="#000000" points="74.4073,-115.8755 73.5747,-105.3134 67.639,-114.0893 74.4073,-115.8755"/>
</g>
<!-- B_bot -->
<g id="node3" class="node">
<title>B_bot</title>
<ellipse fill="none" stroke="#000000" cx="76.6158" cy="-18" rx="18" ry="18"/>
<text text-anchor="middle" x="76.6158" y="-14.9" font-family="Helvetica,sans-Serif" font-size="12.00" fill="#0000ff">B</text>
</g>
<!-- B_bot&#45;&gt;B_top -->
<g id="edge8" class="edge">
<title>B_bot:w&#45;&gt;B_top:w</title>
<path fill="none" stroke="#0000ff" stroke-dasharray="1,5" d="M58.6158,-18C-5.8823,-18 -23.8823,-162 40.6158,-162"/>
</g>
<!-- R_bot -->
<g id="node5" class="node">
<title>R_bot</title>
<ellipse fill="none" stroke="#000000" cx="150.6158" cy="-18" rx="18" ry="18"/>
<text text-anchor="middle" x="150.6158" y="-14.9" font-family="Helvetica,sans-Serif" font-size="12.00" fill="#ff0000">R</text>
</g>
<!-- B_bot&#45;&gt;R_bot -->
<!-- R_top -->
<g id="node4" class="node">
<title>R_top</title>
<ellipse fill="none" stroke="#000000" cx="167.6158" cy="-162" rx="18" ry="18"/>
<text text-anchor="middle" x="167.6158" y="-158.9" font-family="Helvetica,sans-Serif" font-size="12.00" fill="#ff0000">R</text>
</g>
<!-- bit_b -->
<g id="node8" class="node">
<title>bit_b</title>
<polygon fill="none" stroke="#000000" points="149.6158,-108 122.6158,-90 149.6158,-72 176.6158,-90 149.6158,-108"/>
<text text-anchor="middle" x="149.6158" y="-85" font-family="Helvetica,sans-Serif" font-size="20.00" fill="#00bfff">&lt;</text>
</g>
<!-- R_top&#45;&gt;bit_b -->
<g id="edge3" class="edge">
<title>R_top&#45;&gt;bit_b</title>
<path fill="none" stroke="#000000" d="M163.1663,-144.2022C160.995,-135.5171 158.3442,-124.9137 155.9648,-115.3961"/>
<polygon fill="#000000" stroke="#000000" points="159.3459,-114.4893 153.525,-105.6368 152.5549,-116.1871 159.3459,-114.4893"/>
</g>
<!-- R_bot&#45;&gt;R_top -->
<g id="edge9" class="edge">
<title>R_bot:e&#45;&gt;R_top:e</title>
<path fill="none" stroke="#ff0000" stroke-dasharray="1,5" d="M168.6158,-18C233.0602,-18 250.0602,-162 185.6158,-162"/>
</g>
<!-- objective -->
<g id="node6" class="node">
<title>objective</title>
<text text-anchor="end" x="237.1158" y="-237" font-family="Times" font-size="10.00" fill="#000000">Make the pattern blue, blue, red, red,</text>
<text text-anchor="middle" x="162.6158" y="-226" font-family="Times" font-size="10.00" fill="#000000">blue, blue, red, red…</text>
</g>
<!-- bit_a&#45;&gt;B_bot -->
<g id="edge4" class="edge">
<title>bit_a:sw&#45;&gt;B_bot</title>
<path fill="none" stroke="#000000" d="M66.6158,-79C57.3947,-69.7789 59.1806,-55.5677 63.6019,-43.1814"/>
<polygon fill="#000000" stroke="#000000" points="66.9094,-44.3445 67.5526,-33.7692 60.455,-41.6352 66.9094,-44.3445"/>
</g>
<!-- bit_a&#45;&gt;R_bot -->
<g id="edge5" class="edge">
<title>bit_a:se&#45;&gt;R_bot</title>
<path fill="none" stroke="#000000" d="M88.6158,-79C102.2795,-65.3362 117.7753,-50.0903 129.8573,-38.2583"/>
<polygon fill="#000000" stroke="#000000" points="132.5488,-40.5215 137.2503,-31.0269 127.6541,-35.5174 132.5488,-40.5215"/>
</g>
<!-- bit_b&#45;&gt;B_bot -->
<g id="edge6" class="edge">
<title>bit_b:sw&#45;&gt;B_bot</title>
<path fill="none" stroke="#000000" d="M138.6158,-79C124.952,-65.3362 109.4562,-50.0903 97.3743,-38.2583"/>
<polygon fill="#000000" stroke="#000000" points="99.5774,-35.5174 89.9813,-31.0269 94.6827,-40.5215 99.5774,-35.5174"/>
</g>
<!-- bit_b&#45;&gt;R_bot -->
<g id="edge7" class="edge">
<title>bit_b:se&#45;&gt;R_bot</title>
<path fill="none" stroke="#000000" d="M160.6158,-79C169.8369,-69.7789 168.0509,-55.5677 163.6297,-43.1814"/>
<polygon fill="#000000" stroke="#000000" points="166.7766,-41.6352 159.6789,-33.7692 160.3221,-44.3445 166.7766,-41.6352"/>
</g>
</g>
</svg>
