<?xml version="1.0" encoding="UTF-8" standalone="no"?>
<!DOCTYPE svg PUBLIC "-//W3C//DTD SVG 1.1//EN"
 "http://www.w3.org/Graphics/SVG/1.1/DTD/svg11.dtd">
<!-- Generated by graphviz version 2.40.1 (0)
 -->
<!-- Title: Challenge09 Pages: 1 -->
<svg width="239pt" height="281pt"
 viewBox="0.00 0.00 238.51 281.00" xmlns="http://www.w3.org/2000/svg" xmlns:xlink="http://www.w3.org/1999/xlink">
<g id="graph0" class="graph" transform="scale(1 1) rotate(0) translate(4 277)">
<title>Challenge09</title>
<polygon fill="#ffffff" stroke="transparent" points="-4,4 -4,-277 234.5077,-277 234.5077,4 -4,4"/>
<text text-anchor="middle" x="115.2539" y="-259.4" font-family="Helvetica,sans-Serif" font-weight="bold" font-size="12.00" fill="#000000">Challenge #9: Dimers</text>
<!-- start -->
<g id="node1" class="node">
<title>start</title>
<ellipse fill="#000000" stroke="#000000" cx="60.5077" cy="-234" rx="3.96" ry="3.96"/>
</g>
<!-- B_top -->
<g id="node2" class="node">
<title>B_top</title>
<ellipse fill="none" stroke="#000000" cx="60.5077" cy="-162" rx="18" ry="18"/>
<text text-anchor="middle" x="60.5077" y="-158.9" font-family="Helvetica,sans-Serif" font-size="12.00" fill="#0000ff">B</text>
</g>
<!-- start&#45;&gt;B_top -->
<g id="edge4" class="edge">
<title>start&#45;&gt;B_top</title>
<path fill="none" stroke="#000000" d="M60.5077,-229.7117C60.5077,-222.0623 60.5077,-205.4722 60.5077,-190.6289"/>
<polygon fill="#000000" stroke="#000000" points="64.0078,-190.2821 60.5077,-180.2821 57.0078,-190.2821 64.0078,-190.2821"/>
</g>
<!-- bit -->
<g id="node7" class="node">
<title>bit</title>
<polygon fill="none" stroke="#000000" points="84.5077,-108 57.5077,-90 84.5077,-72 111.5077,-90 84.5077,-108"/>
<text text-anchor="middle" x="84.5077" y="-85" font-family="Helvetica,sans-Serif" font-size="20.00" fill="#00bfff">&gt;</text>
</g>
<!-- B_top&#45;&gt;bit -->
<g id="edge5" class="edge">
<title>B_top&#45;&gt;bit:nw</title>
<path fill="none" stroke="#000000" d="M59.4587,-143.8022C59.6546,-133.1734 61.3431,-119.8039 67.3663,-109.1695"/>
<polygon fill="#000000" stroke="#000000" points="70.2963,-111.0964 73.5077,-101 64.701,-106.8901 70.2963,-111.0964"/>
</g>
<!-- B_bot -->
<g id="node3" class="node">
<title>B_bot</title>
<ellipse fill="none" stroke="#000000" cx="73.5077" cy="-18" rx="18" ry="18"/>
<text text-anchor="middle" x="73.5077" y="-14.9" font-family="Helvetica,sans-Serif" font-size="12.00" fill="#0000ff">B</text>
</g>
<!-- B_bot&#45;&gt;B_top -->
<g id="edge1" class="edge">
<title>B_bot:w&#45;&gt;B_top:w</title>
<path fill="none" stroke="#0000ff" stroke-dasharray="1,5" d="M55.5077,-18C-8.7526,-18 -21.7526,-162 42.5077,-162"/>
</g>
<!-- R_bot -->
<g id="node5" class="node">
<title>R_bot</title>
<ellipse fill="none" stroke="#000000" cx="127.5077" cy="-18" rx="18" ry="18"/>
<text text-anchor="middle" x="127.5077" y="-14.9" font-family="Helvetica,sans-Serif" font-size="12.00" fill="#ff0000">R</text>
</g>
<!-- B_bot&#45;&gt;R_bot -->
<!-- R_top -->
<g id="node4" class="node">
<title>R_top</title>
<ellipse fill="none" stroke="#000000" cx="149.5077" cy="-162" rx="18" ry="18"/>
<text text-anchor="middle" x="149.5077" y="-158.9" font-family="Helvetica,sans-Serif" font-size="12.00" fill="#ff0000">R</text>
</g>
<!-- R_top&#45;&gt;B_bot -->
<g id="edge6" class="edge">
<title>R_top&#45;&gt;B_bot:ne</title>
<path fill="none" stroke="#000000" d="M145.9047,-144.2839C141.6199,-125.5296 133.3839,-95.4566 120.5077,-72 110.9853,-54.6529 105.3214,-49.3547 93.9412,-38.305"/>
<polygon fill="#000000" stroke="#000000" points="96.0934,-35.5129 86.5077,-31 91.1869,-40.5056 96.0934,-35.5129"/>
</g>
<!-- R_bot&#45;&gt;R_top -->
<g id="edge2" class="edge">
<title>R_bot:e&#45;&gt;R_top:e</title>
<path fill="none" stroke="#ff0000" stroke-dasharray="1,5" d="M145.5077,-18C210.2503,-18 232.2503,-162 167.5077,-162"/>
</g>
<!-- objective -->
<g id="node6" class="node">
<title>objective</title>
<text text-anchor="start" x="90.5077" y="-237" font-family="Times" font-size="10.00" fill="#000000">Make the pattern blue, blue, red,</text>
<text text-anchor="middle" x="156.5077" y="-226" font-family="Times" font-size="10.00" fill="#000000">blue, blue, red…</text>
</g>
<!-- bit&#45;&gt;B_bot -->
<g id="edge7" class="edge">
<title>bit:sw&#45;&gt;B_bot</title>
<path fill="none" stroke="#000000" d="M73.5077,-79C64.8778,-70.3701 64.0177,-57.1484 65.6808,-45.2179"/>
<polygon fill="#000000" stroke="#000000" points="69.1526,-45.7029 67.66,-35.2138 62.2857,-44.3443 69.1526,-45.7029"/>
</g>
<!-- bit&#45;&gt;R_bot -->
<g id="edge8" class="edge">
<title>bit:se&#45;&gt;R_bot</title>
<path fill="none" stroke="#000000" d="M95.5077,-79C105.1532,-69.3545 112.5561,-56.1945 117.8,-44.5666"/>
<polygon fill="#000000" stroke="#000000" points="121.0588,-45.8458 121.6989,-35.2703 114.6036,-43.1384 121.0588,-45.8458"/>
</g>
</g>
</svg>
