<?xml version="1.0" encoding="UTF-8" standalone="no"?>
<!DOCTYPE svg PUBLIC "-//W3C//DTD SVG 1.1//EN"
 "http://www.w3.org/Graphics/SVG/1.1/DTD/svg11.dtd">
<!-- Generated by graphviz version 2.40.1 (0)
 -->
<!-- Title: Challenge30 Pages: 1 -->
<svg width="282pt" height="574pt"
 viewBox="0.00 0.00 282.43 574.00" xmlns="http://www.w3.org/2000/svg" xmlns:xlink="http://www.w3.org/1999/xlink">
<g id="graph0" class="graph" transform="scale(1 1) rotate(0) translate(4 570)">
<title>Challenge30</title>
<polygon fill="#ffffff" stroke="transparent" points="-4,4 -4,-570 278.4347,-570 278.4347,4 -4,4"/>
<text text-anchor="middle" x="137.2173" y="-552.4" font-family="Helvetica,sans-Serif" font-weight="bold" font-size="12.00" fill="#000000">Challenge #30: Overflow</text>
<g id="clust3" class="cluster">
<title>cluster_Register_A</title>
<polygon fill="none" stroke="#c0c0c0" points="64.4347,-208 64.4347,-404 134.4347,-404 134.4347,-208 64.4347,-208"/>
</g>
<!-- start -->
<g id="node1" class="node">
<title>start</title>
<ellipse fill="#000000" stroke="#000000" cx="62.4347" cy="-524.5" rx="3.96" ry="3.96"/>
</g>
<!-- B_top -->
<g id="node2" class="node">
<title>B_top</title>
<ellipse fill="none" stroke="#000000" cx="62.4347" cy="-450" rx="18" ry="18"/>
<text text-anchor="middle" x="62.4347" y="-446.9" font-family="Helvetica,sans-Serif" font-size="12.00" fill="#0000ff">B</text>
</g>
<!-- start&#45;&gt;B_top -->
<g id="edge1" class="edge">
<title>start&#45;&gt;B_top</title>
<path fill="none" stroke="#000000" d="M62.4347,-520.4946C62.4347,-512.5609 62.4347,-494.2324 62.4347,-478.2532"/>
<polygon fill="#000000" stroke="#000000" points="65.9348,-478.2247 62.4347,-468.2248 58.9348,-478.2248 65.9348,-478.2247"/>
</g>
<!-- bit_A0 -->
<g id="node7" class="node">
<title>bit_A0</title>
<polygon fill="none" stroke="#000000" points="99.4347,-396 72.4347,-378 99.4347,-360 126.4347,-378 99.4347,-396"/>
<text text-anchor="middle" x="99.4347" y="-373" font-family="Helvetica,sans-Serif" font-size="20.00" fill="#00bfff">&lt;</text>
</g>
<!-- B_top&#45;&gt;bit_A0 -->
<g id="edge2" class="edge">
<title>B_top&#45;&gt;bit_A0:n</title>
<path fill="none" stroke="#000000" d="M76.634,-438.2572C84.9488,-430.2746 94.4905,-418.8611 98.0238,-406.0427"/>
<polygon fill="#000000" stroke="#000000" points="101.5093,-406.3897 99.4347,-396 94.5774,-405.4158 101.5093,-406.3897"/>
</g>
<!-- B_bot -->
<g id="node3" class="node">
<title>B_bot</title>
<ellipse fill="none" stroke="#000000" cx="116.4347" cy="-18" rx="18" ry="18"/>
<text text-anchor="middle" x="116.4347" y="-14.9" font-family="Helvetica,sans-Serif" font-size="12.00" fill="#0000ff">%</text>
</g>
<!-- B_bot&#45;&gt;B_top -->
<g id="edge13" class="edge">
<title>B_bot:w&#45;&gt;B_top:w</title>
<path fill="none" stroke="#0000ff" stroke-dasharray="1,5" d="M98.4347,-18C22.488,-18 6.4347,-86.0533 6.4347,-162 6.4347,-306 6.4347,-306 6.4347,-306 6.4347,-372.1909 -21.7562,-450 44.4347,-450"/>
</g>
<!-- R_bot -->
<g id="node5" class="node">
<title>R_bot</title>
<ellipse fill="none" stroke="#000000" cx="172.4347" cy="-18" rx="18" ry="18"/>
<text text-anchor="middle" x="172.4347" y="-14.9" font-family="Helvetica,sans-Serif" font-size="12.00" fill="#ff0000">%</text>
</g>
<!-- B_bot&#45;&gt;R_bot -->
<!-- R_top -->
<g id="node4" class="node">
<title>R_top</title>
<ellipse fill="none" stroke="#000000" cx="174.4347" cy="-450" rx="18" ry="18"/>
<text text-anchor="middle" x="174.4347" y="-446.9" font-family="Helvetica,sans-Serif" font-size="12.00" fill="#ff0000">R</text>
</g>
<!-- R_bot&#45;&gt;R_top -->
<g id="edge14" class="edge">
<title>R_bot:e&#45;&gt;R_top:e</title>
<path fill="none" stroke="#ff0000" stroke-dasharray="1,5" d="M190.4347,-18C254.4408,-18 192.4347,-97.9938 192.4347,-162 192.4347,-306 192.4347,-306 192.4347,-306 192.4347,-370 256.4347,-450 192.4347,-450"/>
</g>
<!-- objective -->
<g id="node6" class="node">
<title>objective</title>
<text text-anchor="start" x="92.4347" y="-532.5" font-family="Times" font-size="10.00" fill="#000000">Count the blue balls in register A. If there</text>
<text text-anchor="start" x="92.4347" y="-521.5" font-family="Times" font-size="10.00" fill="#000000">are more than 7, gear bit OV must flip right</text>
<text text-anchor="start" x="92.4347" y="-510.5" font-family="Times" font-size="10.00" fill="#000000">(and stay right) to indicate the overflow.</text>
</g>
<!-- bit_A0&#45;&gt;B_bot -->
<g id="edge4" class="edge">
<title>bit_A0:se&#45;&gt;B_bot:ne</title>
<path fill="none" stroke="#000000" d="M110.4347,-367C154.4605,-322.9742 143.1396,-295.2288 154.4347,-234"/>
</g>
<!-- bit_A1 -->
<g id="node8" class="node">
<title>bit_A1</title>
<polygon fill="none" stroke="#000000" points="99.4347,-324 72.4347,-306 99.4347,-288 126.4347,-306 99.4347,-324"/>
<text text-anchor="middle" x="99.4347" y="-301" font-family="Helvetica,sans-Serif" font-size="20.00" fill="#00bfff">&lt;</text>
</g>
<!-- bit_A0&#45;&gt;bit_A1 -->
<g id="edge3" class="edge">
<title>bit_A0:sw&#45;&gt;bit_A1:nw</title>
<path fill="none" stroke="#000000" d="M88.4347,-367C75.2992,-353.8645 73.1441,-338.7308 81.9695,-324.9396"/>
<polygon fill="#000000" stroke="#000000" points="84.8344,-326.9644 88.4347,-317 79.4063,-322.5444 84.8344,-326.9644"/>
</g>
<!-- bit_A1&#45;&gt;B_bot -->
<g id="edge6" class="edge">
<title>bit_A1:se&#45;&gt;B_bot:ne</title>
<path fill="none" stroke="#000000" d="M110.4347,-295C134.0718,-271.3628 148.3704,-266.8733 154.4347,-234"/>
<path fill="none" stroke="#000000" d="M154.4347,-234C160.2399,-202.531 147.5422,-193.2489 154.4347,-162"/>
</g>
<!-- bit_A2 -->
<g id="node9" class="node">
<title>bit_A2</title>
<polygon fill="none" stroke="#000000" points="99.4347,-252 72.4347,-234 99.4347,-216 126.4347,-234 99.4347,-252"/>
<text text-anchor="middle" x="99.4347" y="-229" font-family="Helvetica,sans-Serif" font-size="20.00" fill="#00bfff">&lt;</text>
</g>
<!-- bit_A1&#45;&gt;bit_A2 -->
<g id="edge5" class="edge">
<title>bit_A1:sw&#45;&gt;bit_A2:nw</title>
<path fill="none" stroke="#000000" d="M88.4347,-295C75.2992,-281.8645 73.1441,-266.7308 81.9695,-252.9396"/>
<polygon fill="#000000" stroke="#000000" points="84.8344,-254.9644 88.4347,-245 79.4063,-250.5444 84.8344,-254.9644"/>
</g>
<!-- bit_A2&#45;&gt;B_bot -->
<g id="edge8" class="edge">
<title>bit_A2:se&#45;&gt;B_bot:ne</title>
<path fill="none" stroke="#000000" d="M110.4347,-223C134.0718,-199.3628 148.3704,-194.8733 154.4347,-162"/>
<path fill="none" stroke="#000000" d="M154.4347,-162C164.5575,-107.1259 170.6094,-76.6159 136.3157,-38.2607"/>
<polygon fill="#000000" stroke="#000000" points="138.8538,-35.8507 129.4347,-31 133.773,-40.6659 138.8538,-35.8507"/>
</g>
<!-- gbit_U -->
<g id="node10" class="node">
<title>gbit_U</title>
<polygon fill="none" stroke="#000000" stroke-width="2" points="85.4347,-180 58.4347,-162 85.4347,-144 112.4347,-162 85.4347,-180"/>
<text text-anchor="middle" x="85.4347" y="-157" font-family="Helvetica,sans-Serif" font-size="20.00" fill="#1874cd">{</text>
</g>
<!-- bit_A2&#45;&gt;gbit_U -->
<g id="edge7" class="edge">
<title>bit_A2:sw&#45;&gt;gbit_U</title>
<path fill="none" stroke="#000000" d="M88.4347,-223C79.3884,-213.9538 78.203,-199.8845 79.4781,-187.5364"/>
<polygon fill="#000000" stroke="#000000" points="82.9922,-187.7216 81.0963,-177.2978 76.078,-186.6288 82.9922,-187.7216"/>
</g>
<!-- gbit_U&#45;&gt;B_bot -->
<g id="edge10" class="edge">
<title>gbit_U:e&#45;&gt;B_bot</title>
<path fill="none" stroke="#000000" d="M112.4347,-162C135.3841,-162 127.4847,-87.9934 121.1726,-46.0898"/>
<polygon fill="#000000" stroke="#000000" points="124.589,-45.2834 119.5817,-35.9465 117.6735,-46.3681 124.589,-45.2834"/>
</g>
<!-- gbit_D -->
<g id="node11" class="node">
<title>gbit_D</title>
<polygon fill="none" stroke="#000000" stroke-width="2" points="61.4347,-108 34.4347,-90 61.4347,-72 88.4347,-90 61.4347,-108"/>
<text text-anchor="middle" x="61.4347" y="-85" font-family="Helvetica,sans-Serif" font-size="20.00" fill="#1874cd">{</text>
</g>
<!-- gbit_U&#45;&gt;gbit_D -->
<g id="edge9" class="edge">
<title>gbit_U:w&#45;&gt;gbit_D:nw</title>
<path fill="none" stroke="#000000" d="M58.4347,-162C34.4025,-162 31.499,-129.8145 44.2752,-108.8926"/>
<polygon fill="#000000" stroke="#000000" points="47.0415,-111.0368 50.4347,-101 41.5231,-106.7301 47.0415,-111.0368"/>
</g>
<!-- gbit_U&#45;&gt;gbit_D -->
<g id="edge11" class="edge">
<title>gbit_U:sw&#45;&gt;gbit_D:ne</title>
<path fill="none" stroke="#dc143c" stroke-width="2" d="M74.4347,-151C58.7086,-135.274 88.1607,-116.726 72.4347,-101"/>
<text text-anchor="start" x="50.4347" y="-130" font-family="Helvetica,sans-Serif" font-size="10.00" fill="#000000"> </text>
<text text-anchor="start" x="54.4347" y="-130" font-family="Helvetica,sans-Serif" font-size="10.00" fill="#000000">OV</text>
<text text-anchor="start" x="69.4347" y="-130" font-family="Helvetica,sans-Serif" font-size="10.00" fill="#000000"> </text>
</g>
<!-- gbit_D&#45;&gt;B_bot -->
<g id="edge12" class="edge">
<title>gbit_D:se&#45;&gt;B_bot</title>
<path fill="none" stroke="#000000" d="M72.4347,-79C83.4713,-67.9634 93.7941,-53.9343 101.6635,-42.1135"/>
<polygon fill="#000000" stroke="#000000" points="104.6837,-43.8885 107.1743,-33.5905 98.8054,-40.0877 104.6837,-43.8885"/>
</g>
</g>
</svg>
