<?xml version="1.0" encoding="UTF-8" standalone="no"?>
<!DOCTYPE svg PUBLIC "-//W3C//DTD SVG 1.1//EN"
 "http://www.w3.org/Graphics/SVG/1.1/DTD/svg11.dtd">
<!-- Generated by graphviz version 2.40.1 (20161225.0304)
 -->
<!-- Title: Challenge08 Pages: 1 -->
<svg width="220pt" height="281pt"
 viewBox="0.00 0.00 220.00 281.00" xmlns="http://www.w3.org/2000/svg" xmlns:xlink="http://www.w3.org/1999/xlink">
<g id="graph0" class="graph" transform="scale(1 1) rotate(0) translate(4 277)">
<title>Challenge08</title>
<polygon fill="#ffffff" stroke="transparent" points="-4,4 -4,-277 216,-277 216,4 -4,4"/>
<text text-anchor="middle" x="106" y="-259.4" font-family="Helvetica,sans-Serif" font-weight="bold" font-size="12.00" fill="#000000">Challenge #8: Depolarization</text>
<!-- start -->
<g id="node1" class="node">
<title>start</title>
<ellipse fill="#000000" stroke="#000000" cx="64.6707" cy="-234" rx="3.96" ry="3.96"/>
</g>
<!-- B_top -->
<g id="node2" class="node">
<title>B_top</title>
<ellipse fill="none" stroke="#000000" cx="64.6707" cy="-162" rx="18" ry="18"/>
<text text-anchor="middle" x="64.6707" y="-158.9" font-family="Helvetica,sans-Serif" font-size="12.00" fill="#0000ff">B</text>
</g>
<!-- start&#45;&gt;B_top -->
<g id="edge1" class="edge">
<title>start&#45;&gt;B_top</title>
<path fill="none" stroke="#000000" d="M64.6707,-229.7117C64.6707,-222.0623 64.6707,-205.4722 64.6707,-190.6289"/>
<polygon fill="#000000" stroke="#000000" points="68.1708,-190.2821 64.6707,-180.2821 61.1708,-190.2821 68.1708,-190.2821"/>
</g>
<!-- bit -->
<g id="node7" class="node">
<title>bit</title>
<polygon fill="none" stroke="#000000" points="96.6707,-108 69.6707,-90 96.6707,-72 123.6707,-90 96.6707,-108"/>
<text text-anchor="middle" x="96.6707" y="-85" font-family="Helvetica,sans-Serif" font-size="20.00" fill="#00bfff">&lt;</text>
</g>
<!-- B_top&#45;&gt;bit -->
<g id="edge2" class="edge">
<title>B_top&#45;&gt;bit:nw</title>
<path fill="none" stroke="#000000" d="M66.6143,-144.0174C68.4771,-133.3736 72.1151,-119.8936 79.2088,-109.0385"/>
<polygon fill="#000000" stroke="#000000" points="82.1332,-110.9868 85.6707,-101 76.6774,-106.601 82.1332,-110.9868"/>
</g>
<!-- B_bot -->
<g id="node3" class="node">
<title>B_bot</title>
<ellipse fill="none" stroke="#000000" cx="69.6707" cy="-18" rx="18" ry="18"/>
<text text-anchor="middle" x="69.6707" y="-14.9" font-family="Helvetica,sans-Serif" font-size="12.00" fill="#0000ff">B</text>
</g>
<!-- B_bot&#45;&gt;B_top -->
<g id="edge6" class="edge">
<title>B_bot:w&#45;&gt;B_top:w</title>
<path fill="none" stroke="#0000ff" stroke-dasharray="1,5" d="M51.6707,-18C-12.3679,-18 -17.3679,-162 46.6707,-162"/>
</g>
<!-- R_bot -->
<g id="node5" class="node">
<title>R_bot</title>
<ellipse fill="none" stroke="#000000" cx="123.6707" cy="-18" rx="18" ry="18"/>
<text text-anchor="middle" x="123.6707" y="-14.9" font-family="Helvetica,sans-Serif" font-size="12.00" fill="#ff0000">R</text>
</g>
<!-- B_bot&#45;&gt;R_bot -->
<!-- R_top -->
<g id="node4" class="node">
<title>R_top</title>
<ellipse fill="none" stroke="#000000" cx="128.6707" cy="-162" rx="18" ry="18"/>
<text text-anchor="middle" x="128.6707" y="-158.9" font-family="Helvetica,sans-Serif" font-size="12.00" fill="#ff0000">R</text>
</g>
<!-- R_top&#45;&gt;bit -->
<g id="edge3" class="edge">
<title>R_top&#45;&gt;bit:ne</title>
<path fill="none" stroke="#000000" d="M126.7271,-144.0174C124.8643,-133.3736 121.2263,-119.8936 114.1327,-109.0385"/>
<polygon fill="#000000" stroke="#000000" points="116.664,-106.601 107.6707,-101 111.2082,-110.9868 116.664,-106.601"/>
</g>
<!-- R_bot&#45;&gt;R_top -->
<g id="edge7" class="edge">
<title>R_bot:e&#45;&gt;R_top:e</title>
<path fill="none" stroke="#ff0000" stroke-dasharray="1,5" d="M141.6707,-18C205.7093,-18 210.7093,-162 146.6707,-162"/>
</g>
<!-- objective -->
<g id="node6" class="node">
<title>objective</title>
<text text-anchor="start" x="94.1707" y="-237" font-family="Times" font-size="10.00" fill="#000000">Make the pattern blue, red,</text>
<text text-anchor="middle" x="148.6707" y="-226" font-family="Times" font-size="10.00" fill="#000000">blue, red, blue, red…</text>
</g>
<!-- bit&#45;&gt;B_bot -->
<g id="edge4" class="edge">
<title>bit:sw&#45;&gt;B_bot</title>
<path fill="none" stroke="#000000" d="M85.6707,-79C77.0761,-70.4054 72.9268,-57.7936 70.9836,-46.2649"/>
<polygon fill="#000000" stroke="#000000" points="74.4329,-45.6344 69.755,-36.1282 67.4837,-46.4767 74.4329,-45.6344"/>
</g>
<!-- bit&#45;&gt;R_bot -->
<g id="edge5" class="edge">
<title>bit:se&#45;&gt;R_bot</title>
<path fill="none" stroke="#000000" d="M107.6707,-79C116.2653,-70.4054 120.4146,-57.7936 122.3578,-46.2649"/>
<polygon fill="#000000" stroke="#000000" points="125.8577,-46.4767 123.5864,-36.1282 118.9085,-45.6344 125.8577,-46.4767"/>
</g>
</g>
</svg>
