<?xml version="1.0" encoding="UTF-8" standalone="no"?>
<!DOCTYPE svg PUBLIC "-//W3C//DTD SVG 1.1//EN"
 "http://www.w3.org/Graphics/SVG/1.1/DTD/svg11.dtd">
<!-- Generated by graphviz version 2.40.1 (0)
 -->
<!-- Title: Challenge12 Pages: 1 -->
<svg width="244pt" height="347pt"
 viewBox="0.00 0.00 243.70 347.00" xmlns="http://www.w3.org/2000/svg" xmlns:xlink="http://www.w3.org/1999/xlink">
<g id="graph0" class="graph" transform="scale(1 1) rotate(0) translate(4 343)">
<title>Challenge12</title>
<polygon fill="#ffffff" stroke="transparent" points="-4,4 -4,-343 239.7043,-343 239.7043,4 -4,4"/>
<text text-anchor="middle" x="117.8522" y="-325.4" font-family="Helvetica,sans-Serif" font-weight="bold" font-size="12.00" fill="#000000">Challenge #12: Duality &#45; Part 1</text>
<!-- start -->
<g id="node1" class="node">
<title>start</title>
<ellipse fill="#000000" stroke="#000000" cx="83.7043" cy="-300" rx="3.96" ry="3.96"/>
</g>
<!-- B_top -->
<g id="node2" class="node">
<title>B_top</title>
<ellipse fill="none" stroke="#000000" cx="83.7043" cy="-228" rx="18" ry="18"/>
<text text-anchor="middle" x="83.7043" y="-224.9" font-family="Helvetica,sans-Serif" font-size="12.00" fill="#0000ff">B</text>
</g>
<!-- start&#45;&gt;B_top -->
<g id="edge1" class="edge">
<title>start&#45;&gt;B_top</title>
<path fill="none" stroke="#000000" d="M83.7043,-295.7117C83.7043,-288.0623 83.7043,-271.4722 83.7043,-256.6289"/>
<polygon fill="#000000" stroke="#000000" points="87.2044,-256.2821 83.7043,-246.2821 80.2044,-256.2821 87.2044,-256.2821"/>
</g>
<!-- bit -->
<g id="node7" class="node">
<title>bit</title>
<polygon fill="none" stroke="#000000" points="97.7043,-174 70.7043,-156 97.7043,-138 124.7043,-156 97.7043,-174"/>
<text text-anchor="middle" x="97.7043" y="-151" font-family="Helvetica,sans-Serif" font-size="20.00" fill="#00bfff">&lt;</text>
</g>
<!-- B_top&#45;&gt;bit -->
<g id="edge2" class="edge">
<title>B_top&#45;&gt;bit</title>
<path fill="none" stroke="#000000" d="M87.165,-210.2022C88.8123,-201.7305 90.8144,-191.4337 92.6294,-182.0997"/>
<polygon fill="#000000" stroke="#000000" points="96.097,-182.6032 94.5701,-172.119 89.2256,-181.2671 96.097,-182.6032"/>
</g>
<!-- B_bot -->
<g id="node3" class="node">
<title>B_bot</title>
<ellipse fill="none" stroke="#000000" cx="93.7043" cy="-18" rx="18" ry="18"/>
<text text-anchor="middle" x="93.7043" y="-14.9" font-family="Helvetica,sans-Serif" font-size="12.00" fill="#0000ff">%</text>
</g>
<!-- B_bot&#45;&gt;B_top -->
<g id="edge5" class="edge">
<title>B_bot:w&#45;&gt;B_top:w</title>
<path fill="none" stroke="#0000ff" stroke-dasharray="1,5" d="M75.7043,-18C-17.7348,-18 -27.7348,-228 65.7043,-228"/>
</g>
<!-- R_bot -->
<g id="node5" class="node">
<title>R_bot</title>
<ellipse fill="none" stroke="#000000" cx="147.7043" cy="-18" rx="18" ry="18"/>
<text text-anchor="middle" x="147.7043" y="-14.9" font-family="Helvetica,sans-Serif" font-size="12.00" fill="#ff0000">%</text>
</g>
<!-- B_bot&#45;&gt;R_bot -->
<!-- R_top -->
<g id="node4" class="node">
<title>R_top</title>
<ellipse fill="none" stroke="#000000" cx="147.7043" cy="-228" rx="18" ry="18"/>
<text text-anchor="middle" x="147.7043" y="-224.9" font-family="Helvetica,sans-Serif" font-size="12.00" fill="#ff0000">R</text>
</g>
<!-- R_bot&#45;&gt;R_top -->
<g id="edge6" class="edge">
<title>R_bot:e&#45;&gt;R_top:e</title>
<path fill="none" stroke="#ff0000" stroke-dasharray="1,5" d="M165.7043,-18C259.0377,-18 259.0377,-228 165.7043,-228"/>
</g>
<!-- objective -->
<g id="node6" class="node">
<title>objective</title>
<text text-anchor="start" x="113.7043" y="-297" font-family="Times" font-size="10.00" fill="#000000">Intercept a blue ball.</text>
</g>
<!-- halt -->
<g id="node8" class="node">
<title>halt</title>
<ellipse fill="none" stroke="#000000" cx="101.7043" cy="-87" rx="11" ry="11"/>
<ellipse fill="none" stroke="#000000" cx="101.7043" cy="-87" rx="15" ry="15"/>
</g>
<!-- bit&#45;&gt;halt -->
<g id="edge3" class="edge">
<title>bit:se&#45;&gt;halt</title>
<path fill="none" stroke="#000000" d="M108.7043,-145C117.6691,-136.0352 116.2103,-121.9968 112.3698,-109.9769"/>
<polygon fill="#000000" stroke="#000000" points="115.5935,-108.6073 108.7602,-100.5106 109.0528,-111.1014 115.5935,-108.6073"/>
</g>
<!-- halt&#45;&gt;B_bot -->
</g>
</svg>
