<?xml version="1.0" encoding="UTF-8" standalone="no"?>
<!DOCTYPE svg PUBLIC "-//W3C//DTD SVG 1.1//EN"
 "http://www.w3.org/Graphics/SVG/1.1/DTD/svg11.dtd">
<!-- Generated by graphviz version 2.40.1 (0)
 -->
<!-- Title: Challenge06 Pages: 1 -->
<svg width="239pt" height="209pt"
 viewBox="0.00 0.00 239.00 209.00" xmlns="http://www.w3.org/2000/svg" xmlns:xlink="http://www.w3.org/1999/xlink">
<g id="graph0" class="graph" transform="scale(1 1) rotate(0) translate(4 205)">
<title>Challenge06</title>
<polygon fill="#ffffff" stroke="transparent" points="-4,4 -4,-205 235,-205 235,4 -4,4"/>
<text text-anchor="middle" x="115.5" y="-187.4" font-family="Helvetica,sans-Serif" font-weight="bold" font-size="12.00" fill="#000000">Challenge #6: Total Internal Reflection</text>
<!-- start -->
<g id="node1" class="node">
<title>start</title>
<ellipse fill="#000000" stroke="#000000" cx="63.25" cy="-162" rx="3.96" ry="3.96"/>
</g>
<!-- B_top -->
<g id="node2" class="node">
<title>B_top</title>
<ellipse fill="none" stroke="#000000" cx="63.25" cy="-90" rx="18" ry="18"/>
<text text-anchor="middle" x="63.25" y="-86.9" font-family="Helvetica,sans-Serif" font-size="12.00" fill="#0000ff">B</text>
</g>
<!-- start&#45;&gt;B_top -->
<g id="edge1" class="edge">
<title>start&#45;&gt;B_top</title>
<path fill="none" stroke="#000000" d="M63.25,-157.7117C63.25,-150.0623 63.25,-133.4722 63.25,-118.6289"/>
<polygon fill="#000000" stroke="#000000" points="66.7501,-118.2821 63.25,-108.2821 59.7501,-118.2821 66.7501,-118.2821"/>
</g>
<!-- R_bot -->
<g id="node5" class="node">
<title>R_bot</title>
<ellipse fill="none" stroke="#000000" cx="117.25" cy="-18" rx="18" ry="18"/>
<text text-anchor="middle" x="117.25" y="-14.9" font-family="Helvetica,sans-Serif" font-size="12.00" fill="#ff0000">%</text>
</g>
<!-- B_top&#45;&gt;R_bot -->
<g id="edge2" class="edge">
<title>B_top&#45;&gt;R_bot</title>
<path fill="none" stroke="#000000" d="M74.1777,-75.4297C81.6434,-65.4754 91.6868,-52.0842 100.1974,-40.7368"/>
<polygon fill="#000000" stroke="#000000" points="103.1385,-42.6486 106.3385,-32.5486 97.5385,-38.4486 103.1385,-42.6486"/>
</g>
<!-- B_bot -->
<g id="node3" class="node">
<title>B_bot</title>
<ellipse fill="none" stroke="#000000" cx="63.25" cy="-18" rx="18" ry="18"/>
<text text-anchor="middle" x="63.25" y="-14.9" font-family="Helvetica,sans-Serif" font-size="12.00" fill="#0000ff">%</text>
</g>
<!-- B_bot&#45;&gt;B_top -->
<g id="edge4" class="edge">
<title>B_bot:w&#45;&gt;B_top:w</title>
<path fill="none" stroke="#0000ff" stroke-dasharray="1,5" d="M45.25,-18C13.25,-18 13.25,-90 45.25,-90"/>
</g>
<!-- B_bot&#45;&gt;R_bot -->
<!-- R_top -->
<g id="node4" class="node">
<title>R_top</title>
<ellipse fill="none" stroke="#000000" cx="117.25" cy="-90" rx="18" ry="18"/>
<text text-anchor="middle" x="117.25" y="-86.9" font-family="Helvetica,sans-Serif" font-size="12.00" fill="#ff0000">R</text>
</g>
<!-- R_top&#45;&gt;B_bot -->
<g id="edge3" class="edge">
<title>R_top&#45;&gt;B_bot</title>
<path fill="none" stroke="#000000" d="M106.3223,-75.4297C98.8566,-65.4754 88.8132,-52.0842 80.3026,-40.7368"/>
<polygon fill="#000000" stroke="#000000" points="82.9615,-38.4486 74.1615,-32.5486 77.3615,-42.6486 82.9615,-38.4486"/>
</g>
<!-- R_bot&#45;&gt;R_top -->
<g id="edge5" class="edge">
<title>R_bot:e&#45;&gt;R_top:e</title>
<path fill="none" stroke="#ff0000" stroke-dasharray="1,5" d="M135.25,-18C167.25,-18 167.25,-90 135.25,-90"/>
</g>
<!-- objective -->
<g id="node6" class="node">
<title>objective</title>
<text text-anchor="start" x="93.25" y="-165" font-family="Times" font-size="10.00" fill="#000000">Make the pattern blue, red,</text>
<text text-anchor="start" x="93.25" y="-154" font-family="Times" font-size="10.00" fill="#000000">blue, red, blue, red…</text>
</g>
</g>
</svg>
