<?xml version="1.0" encoding="UTF-8" standalone="no"?>
<!DOCTYPE svg PUBLIC "-//W3C//DTD SVG 1.1//EN"
 "http://www.w3.org/Graphics/SVG/1.1/DTD/svg11.dtd">
<!-- Generated by graphviz version 2.40.1 (0)
 -->
<!-- Title: Challenge15 Pages: 1 -->
<svg width="265pt" height="358pt"
 viewBox="0.00 0.00 264.65 358.00" xmlns="http://www.w3.org/2000/svg" xmlns:xlink="http://www.w3.org/1999/xlink">
<g id="graph0" class="graph" transform="scale(1 1) rotate(0) translate(4 354)">
<title>Challenge15</title>
<polygon fill="#ffffff" stroke="transparent" points="-4,4 -4,-354 260.6518,-354 260.6518,4 -4,4"/>
<text text-anchor="middle" x="128.3259" y="-336.4" font-family="Helvetica,sans-Serif" font-weight="bold" font-size="12.00" fill="#000000">Challenge #15: Inversion</text>
<!-- start -->
<g id="node1" class="node">
<title>start</title>
<ellipse fill="#000000" stroke="#000000" cx="75.6518" cy="-308.5" rx="3.96" ry="3.96"/>
</g>
<!-- B_top -->
<g id="node2" class="node">
<title>B_top</title>
<ellipse fill="none" stroke="#000000" cx="75.6518" cy="-234" rx="18" ry="18"/>
<text text-anchor="middle" x="75.6518" y="-230.9" font-family="Helvetica,sans-Serif" font-size="12.00" fill="#0000ff">B</text>
</g>
<!-- start&#45;&gt;B_top -->
<g id="edge1" class="edge">
<title>start&#45;&gt;B_top</title>
<path fill="none" stroke="#000000" d="M75.6518,-304.4946C75.6518,-296.5609 75.6518,-278.2324 75.6518,-262.2532"/>
<polygon fill="#000000" stroke="#000000" points="79.1519,-262.2247 75.6518,-252.2248 72.1519,-262.2248 79.1519,-262.2247"/>
</g>
<!-- bit_T -->
<g id="node7" class="node">
<title>bit_T</title>
<polygon fill="none" stroke="#000000" points="99.6518,-180 72.6518,-162 99.6518,-144 126.6518,-162 99.6518,-180"/>
<text text-anchor="middle" x="99.6518" y="-157" font-family="Helvetica,sans-Serif" font-size="20.00" fill="#00bfff">&gt;</text>
</g>
<!-- B_top&#45;&gt;bit_T -->
<g id="edge2" class="edge">
<title>B_top&#45;&gt;bit_T:n</title>
<path fill="none" stroke="#000000" d="M86.2485,-219.1816C91.1709,-211.1899 96.4127,-200.767 98.5993,-189.9663"/>
<polygon fill="#000000" stroke="#000000" points="102.0822,-190.3123 99.6518,-180 95.1209,-189.5771 102.0822,-190.3123"/>
</g>
<!-- B_bot -->
<g id="node3" class="node">
<title>B_bot</title>
<ellipse fill="none" stroke="#000000" cx="112.6518" cy="-18" rx="18" ry="18"/>
<text text-anchor="middle" x="112.6518" y="-14.9" font-family="Helvetica,sans-Serif" font-size="12.00" fill="#0000ff">%</text>
</g>
<!-- B_bot&#45;&gt;B_top -->
<g id="edge9" class="edge">
<title>B_bot:w&#45;&gt;B_top:w</title>
<path fill="none" stroke="#0000ff" stroke-dasharray="1,5" d="M94.6518,-18C-2.7464,-18 -39.7464,-234 57.6518,-234"/>
</g>
<!-- R_bot -->
<g id="node5" class="node">
<title>R_bot</title>
<ellipse fill="none" stroke="#000000" cx="166.6518" cy="-18" rx="18" ry="18"/>
<text text-anchor="middle" x="166.6518" y="-14.9" font-family="Helvetica,sans-Serif" font-size="12.00" fill="#ff0000">%</text>
</g>
<!-- B_bot&#45;&gt;R_bot -->
<!-- R_top -->
<g id="node4" class="node">
<title>R_top</title>
<ellipse fill="none" stroke="#000000" cx="166.6518" cy="-234" rx="18" ry="18"/>
<text text-anchor="middle" x="166.6518" y="-230.9" font-family="Helvetica,sans-Serif" font-size="12.00" fill="#ff0000">R</text>
</g>
<!-- halt -->
<g id="node9" class="node">
<title>halt</title>
<ellipse fill="none" stroke="#000000" cx="148.6518" cy="-90" rx="11" ry="11"/>
<ellipse fill="none" stroke="#000000" cx="148.6518" cy="-90" rx="15" ry="15"/>
</g>
<!-- R_top&#45;&gt;halt -->
<g id="edge7" class="edge">
<title>R_top&#45;&gt;halt:ne</title>
<path fill="none" stroke="#000000" d="M172.1892,-216.427C179.3391,-190.1857 188.4236,-140.4815 166.3419,-108.9794"/>
<polygon fill="#000000" stroke="#000000" points="168.7587,-106.4144 159.6518,-101 163.3946,-110.9118 168.7587,-106.4144"/>
</g>
<!-- R_bot&#45;&gt;R_top -->
<g id="edge10" class="edge">
<title>R_bot:e&#45;&gt;R_top:e</title>
<path fill="none" stroke="#ff0000" stroke-dasharray="1,5" d="M184.6518,-18C280.6518,-18 280.6518,-234 184.6518,-234"/>
</g>
<!-- objective -->
<g id="node6" class="node">
<title>objective</title>
<text text-anchor="start" x="105.6518" y="-316.5" font-family="Times" font-size="10.00" fill="#000000">If bit A starts to the left, intercept</text>
<text text-anchor="start" x="105.6518" y="-305.5" font-family="Times" font-size="10.00" fill="#000000">a blue ball. If bit A starts to the</text>
<text text-anchor="start" x="105.6518" y="-294.5" font-family="Times" font-size="10.00" fill="#000000">right, intercept a red ball.</text>
</g>
<!-- bit_A -->
<g id="node8" class="node">
<title>bit_A</title>
<polygon fill="none" stroke="#000000" points="88.6518,-108 61.6518,-90 88.6518,-72 115.6518,-90 88.6518,-108"/>
<text text-anchor="middle" x="88.6518" y="-85" font-family="Helvetica,sans-Serif" font-size="20.00" fill="#00bfff">^</text>
<text text-anchor="start" x="40.6518" y="-115" font-family="Helvetica,sans-Serif" font-size="20.00" fill="#00bfff"> </text>
<text text-anchor="start" x="47.6518" y="-115" font-family="Helvetica,sans-Serif" font-size="10.00" fill="#00bfff">A</text>
<text text-anchor="start" x="54.6518" y="-115" font-family="Helvetica,sans-Serif" font-size="20.00" fill="#00bfff"> </text>
</g>
<!-- bit_T&#45;&gt;bit_A -->
<g id="edge4" class="edge">
<title>bit_T:sw&#45;&gt;bit_A:n</title>
<path fill="none" stroke="#000000" d="M88.6518,-151C77.7776,-140.1258 84.4041,-131.2837 87.4074,-118.2867"/>
<polygon fill="#000000" stroke="#000000" points="90.9254,-118.348 88.6518,-108 83.9761,-117.5072 90.9254,-118.348"/>
</g>
<!-- bit_T&#45;&gt;halt -->
<g id="edge3" class="edge">
<title>bit_T:se&#45;&gt;halt:n</title>
<path fill="none" stroke="#000000" d="M110.6518,-151C126.6196,-135.0322 142.9483,-132.1321 147.4441,-115.2476"/>
<polygon fill="#000000" stroke="#000000" points="150.9572,-115.341 148.6518,-105 144.0053,-114.5216 150.9572,-115.341"/>
</g>
<!-- bit_A&#45;&gt;B_bot -->
<g id="edge6" class="edge">
<title>bit_A:se&#45;&gt;B_bot:nw</title>
<path fill="none" stroke="#000000" d="M99.6518,-79C111.7905,-66.8613 94.6257,-52.9451 95.3177,-40.1121"/>
<polygon fill="#000000" stroke="#000000" points="98.5171,-41.5339 99.6518,-31 92.1957,-38.5271 98.5171,-41.5339"/>
</g>
<!-- bit_A&#45;&gt;R_bot -->
<g id="edge5" class="edge">
<title>bit_A:sw&#45;&gt;R_bot:ne</title>
<path fill="none" stroke="#000000" d="M77.6518,-79C45.684,-47.0322 183.305,-62.5195 184.4599,-39.8202"/>
<polygon fill="#000000" stroke="#000000" points="187.5112,-38.105 179.6518,-31 181.3651,-41.4554 187.5112,-38.105"/>
</g>
<!-- halt&#45;&gt;B_bot -->
</g>
</svg>
