<?xml version="1.0" encoding="UTF-8" standalone="no"?>
<!DOCTYPE svg PUBLIC "-//W3C//DTD SVG 1.1//EN"
 "http://www.w3.org/Graphics/SVG/1.1/DTD/svg11.dtd">
<!-- Generated by graphviz version 2.40.1 (0)
 -->
<!-- Title: Challenge21 Pages: 1 -->
<svg width="201pt" height="448pt"
 viewBox="0.00 0.00 200.61 447.92" xmlns="http://www.w3.org/2000/svg" xmlns:xlink="http://www.w3.org/1999/xlink">
<g id="graph0" class="graph" transform="scale(1 1) rotate(0) translate(4 443.92)">
<title>Challenge21</title>
<polygon fill="#ffffff" stroke="transparent" points="-4,4 -4,-443.92 196.6133,-443.92 196.6133,4 -4,4"/>
<g id="clust3" class="cluster">
<title>cluster_RegA</title>
<polygon fill="none" stroke="#000000" points="35.8633,-64 35.8633,-351 105.8633,-351 105.8633,-64 35.8633,-64"/>
<text text-anchor="middle" x="94.3633" y="-339" font-family="Helvetica,sans-Serif" font-size="10.00" fill="#000000">A</text>
</g>
<!-- start -->
<g id="node1" class="node">
<title>start</title>
<ellipse fill="#000000" stroke="#000000" cx="52.8633" cy="-435.96" rx="3.96" ry="3.96"/>
</g>
<!-- B_top -->
<g id="node2" class="node">
<title>B_top</title>
<ellipse fill="none" stroke="#000000" cx="52.8633" cy="-378" rx="18" ry="18"/>
<text text-anchor="middle" x="52.8633" y="-374.9" font-family="Helvetica,sans-Serif" font-size="12.00" fill="#0000ff">B</text>
</g>
<!-- start&#45;&gt;B_top -->
<g id="edge1" class="edge">
<title>start&#45;&gt;B_top</title>
<path fill="none" stroke="#000000" d="M52.8633,-431.7917C52.8633,-426.3205 52.8633,-416.2374 52.8633,-406.2669"/>
<polygon fill="#000000" stroke="#000000" points="56.3634,-406.1153 52.8633,-396.1154 49.3634,-406.1154 56.3634,-406.1153"/>
</g>
<!-- bit_0 -->
<g id="node6" class="node">
<title>bit_0</title>
<polygon fill="none" stroke="#000000" points="70.8633,-324 43.8633,-306 70.8633,-288 97.8633,-306 70.8633,-324"/>
<text text-anchor="middle" x="70.8633" y="-301" font-family="Helvetica,sans-Serif" font-size="20.00" fill="#00bfff">&lt;</text>
</g>
<!-- B_top&#45;&gt;bit_0 -->
<g id="edge2" class="edge">
<title>B_top&#45;&gt;bit_0:n</title>
<path fill="none" stroke="#000000" d="M61.231,-361.9193C64.7564,-354.0423 68.4119,-344.0998 70.0193,-334.0344"/>
<polygon fill="#000000" stroke="#000000" points="73.5128,-334.2582 70.8633,-324 66.5374,-333.6714 73.5128,-334.2582"/>
</g>
<!-- B_bot -->
<g id="node3" class="node">
<title>B_bot</title>
<ellipse fill="none" stroke="#000000" cx="72.8633" cy="-18" rx="18" ry="18"/>
<text text-anchor="middle" x="72.8633" y="-14.9" font-family="Helvetica,sans-Serif" font-size="12.00" fill="#0000ff">B</text>
</g>
<!-- B_bot&#45;&gt;B_top -->
<g id="edge11" class="edge">
<title>B_bot:w&#45;&gt;B_top:w</title>
<path fill="none" stroke="#0000ff" stroke-dasharray="1,5" d="M54.8633,-18C-11.4423,-18 15.8633,-95.6943 15.8633,-162 15.8633,-234 15.8633,-234 15.8633,-234 15.8633,-298.5547 -29.6913,-378 34.8633,-378"/>
</g>
<!-- R_bot -->
<g id="node5" class="node">
<title>R_bot</title>
<ellipse fill="none" stroke="#000000" cx="135.8633" cy="-18" rx="18" ry="18"/>
<text text-anchor="middle" x="135.8633" y="-14.9" font-family="Helvetica,sans-Serif" font-size="12.00" fill="#ff0000">R</text>
</g>
<!-- B_bot&#45;&gt;R_bot -->
<!-- R_top -->
<g id="node4" class="node">
<title>R_top</title>
<ellipse fill="none" stroke="#000000" cx="145.8633" cy="-378" rx="18" ry="18"/>
<text text-anchor="middle" x="145.8633" y="-374.9" font-family="Helvetica,sans-Serif" font-size="12.00" fill="#ff0000">R</text>
</g>
<!-- R_bot&#45;&gt;R_top -->
<g id="edge12" class="edge">
<title>R_bot:e&#45;&gt;R_top:e</title>
<path fill="none" stroke="#ff0000" stroke-dasharray="1,5" d="M153.8633,-18C218.0175,-18 163.8633,-97.8459 163.8633,-162 163.8633,-234 163.8633,-234 163.8633,-234 163.8633,-298 227.8633,-378 163.8633,-378"/>
</g>
<!-- bit_0&#45;&gt;B_bot -->
<g id="edge7" class="edge">
<title>bit_0:se&#45;&gt;B_bot:ne</title>
<path fill="none" stroke="#000000" d="M81.8633,-295C125.8892,-250.9742 114.5683,-223.2288 125.8633,-162"/>
</g>
<!-- bit_1 -->
<g id="node7" class="node">
<title>bit_1</title>
<polygon fill="none" stroke="#000000" points="70.8633,-252 43.8633,-234 70.8633,-216 97.8633,-234 70.8633,-252"/>
<text text-anchor="middle" x="70.8633" y="-229" font-family="Helvetica,sans-Serif" font-size="20.00" fill="#00bfff">&lt;</text>
</g>
<!-- bit_0&#45;&gt;bit_1 -->
<g id="edge3" class="edge">
<title>bit_0:sw&#45;&gt;bit_1:nw</title>
<path fill="none" stroke="#000000" d="M59.8633,-295C46.7279,-281.8645 44.5728,-266.7308 53.3982,-252.9396"/>
<polygon fill="#000000" stroke="#000000" points="56.2631,-254.9644 59.8633,-245 50.835,-250.5444 56.2631,-254.9644"/>
</g>
<!-- bit_1&#45;&gt;B_bot -->
<g id="edge8" class="edge">
<title>bit_1:se&#45;&gt;B_bot:ne</title>
<path fill="none" stroke="#000000" d="M81.8633,-223C105.5005,-199.3628 119.7991,-194.8733 125.8633,-162"/>
<path fill="none" stroke="#000000" d="M125.8633,-162C131.6685,-130.531 130.1656,-121.7095 125.8633,-90"/>
</g>
<!-- bit_2 -->
<g id="node8" class="node">
<title>bit_2</title>
<polygon fill="none" stroke="#000000" points="70.8633,-180 43.8633,-162 70.8633,-144 97.8633,-162 70.8633,-180"/>
<text text-anchor="middle" x="70.8633" y="-157" font-family="Helvetica,sans-Serif" font-size="20.00" fill="#00bfff">&lt;</text>
</g>
<!-- bit_1&#45;&gt;bit_2 -->
<g id="edge4" class="edge">
<title>bit_1:sw&#45;&gt;bit_2:nw</title>
<path fill="none" stroke="#000000" d="M59.8633,-223C46.7279,-209.8645 44.5728,-194.7308 53.3982,-180.9396"/>
<polygon fill="#000000" stroke="#000000" points="56.2631,-182.9644 59.8633,-173 50.835,-178.5444 56.2631,-182.9644"/>
</g>
<!-- bit_2&#45;&gt;B_bot -->
<g id="edge9" class="edge">
<title>bit_2:se&#45;&gt;B_bot:ne</title>
<path fill="none" stroke="#000000" d="M125.8633,-90C122.1032,-62.286 111.2665,-54.9812 93.3655,-38.2369"/>
<polygon fill="#000000" stroke="#000000" points="95.4905,-35.4237 85.8633,-31 90.6306,-40.4617 95.4905,-35.4237"/>
<path fill="none" stroke="#000000" d="M81.8633,-151C105.5005,-127.3628 130.3576,-123.1245 125.8633,-90"/>
</g>
<!-- bit_3 -->
<g id="node9" class="node">
<title>bit_3</title>
<polygon fill="none" stroke="#000000" points="70.8633,-108 43.8633,-90 70.8633,-72 97.8633,-90 70.8633,-108"/>
<text text-anchor="middle" x="70.8633" y="-85" font-family="Helvetica,sans-Serif" font-size="20.00" fill="#00bfff">&lt;</text>
</g>
<!-- bit_2&#45;&gt;bit_3 -->
<g id="edge5" class="edge">
<title>bit_2:sw&#45;&gt;bit_3:nw</title>
<path fill="none" stroke="#000000" d="M59.8633,-151C46.7279,-137.8645 44.5728,-122.7308 53.3982,-108.9396"/>
<polygon fill="#000000" stroke="#000000" points="56.2631,-110.9644 59.8633,-101 50.835,-106.5444 56.2631,-110.9644"/>
</g>
<!-- bit_3&#45;&gt;B_bot -->
<g id="edge6" class="edge">
<title>bit_3:sw&#45;&gt;B_bot:nw</title>
<path fill="none" stroke="#000000" d="M59.8633,-79C47.3711,-66.5078 45.224,-52.133 53.422,-38.9936"/>
<polygon fill="#000000" stroke="#000000" points="56.3141,-40.9827 59.8633,-31 50.8635,-36.5905 56.3141,-40.9827"/>
</g>
<!-- bit_3&#45;&gt;B_bot -->
<g id="edge10" class="edge">
<title>bit_3:se&#45;&gt;B_bot:ne</title>
<path fill="none" stroke="#000000" d="M81.8633,-79C94.3989,-66.4645 99.2966,-52.1539 92.0131,-39.0082"/>
<polygon fill="#000000" stroke="#000000" points="94.7299,-36.7995 85.8633,-31 89.1781,-41.063 94.7299,-36.7995"/>
</g>
</g>
</svg>
