<?xml version="1.0" encoding="UTF-8" standalone="no"?>
<!DOCTYPE svg PUBLIC "-//W3C//DTD SVG 1.1//EN"
 "http://www.w3.org/Graphics/SVG/1.1/DTD/svg11.dtd">
<!-- Generated by graphviz version 2.40.1 (0)
 -->
<!-- Title: Challenge14 Pages: 1 -->
<svg width="274pt" height="352pt"
 viewBox="0.00 0.00 273.78 352.00" xmlns="http://www.w3.org/2000/svg" xmlns:xlink="http://www.w3.org/1999/xlink">
<g id="graph0" class="graph" transform="scale(1 1) rotate(0) translate(4 348)">
<title>Challenge14</title>
<polygon fill="#ffffff" stroke="transparent" points="-4,4 -4,-348 269.7835,-348 269.7835,4 -4,4"/>
<text text-anchor="middle" x="132.8917" y="-330.4" font-family="Helvetica,sans-Serif" font-weight="bold" font-size="12.00" fill="#000000">Challenge #14: Duality &#45; Part 3</text>
<!-- start -->
<g id="node1" class="node">
<title>start</title>
<ellipse fill="#000000" stroke="#000000" cx="83.2835" cy="-302.5" rx="3.96" ry="3.96"/>
</g>
<!-- B_top -->
<g id="node2" class="node">
<title>B_top</title>
<ellipse fill="none" stroke="#000000" cx="83.2835" cy="-228" rx="18" ry="18"/>
<text text-anchor="middle" x="83.2835" y="-224.9" font-family="Helvetica,sans-Serif" font-size="12.00" fill="#0000ff">B</text>
</g>
<!-- start&#45;&gt;B_top -->
<g id="edge1" class="edge">
<title>start&#45;&gt;B_top</title>
<path fill="none" stroke="#000000" d="M83.2835,-298.4946C83.2835,-290.5609 83.2835,-272.2324 83.2835,-256.2532"/>
<polygon fill="#000000" stroke="#000000" points="86.7836,-256.2247 83.2835,-246.2248 79.7836,-256.2248 86.7836,-256.2247"/>
</g>
<!-- bit_A -->
<g id="node7" class="node">
<title>bit_A</title>
<polygon fill="none" stroke="#000000" points="102.2835,-174 75.2835,-156 102.2835,-138 129.2835,-156 102.2835,-174"/>
<text text-anchor="middle" x="102.2835" y="-151" font-family="Helvetica,sans-Serif" font-size="20.00" fill="#00bfff">^</text>
<text text-anchor="start" x="54.2835" y="-181" font-family="Helvetica,sans-Serif" font-size="20.00" fill="#00bfff"> </text>
<text text-anchor="start" x="61.2835" y="-181" font-family="Helvetica,sans-Serif" font-size="10.00" fill="#00bfff">A</text>
<text text-anchor="start" x="68.2835" y="-181" font-family="Helvetica,sans-Serif" font-size="20.00" fill="#00bfff"> </text>
</g>
<!-- B_top&#45;&gt;bit_A -->
<g id="edge2" class="edge">
<title>B_top&#45;&gt;bit_A:n</title>
<path fill="none" stroke="#000000" d="M92.116,-211.9707C95.8373,-204.109 99.6958,-194.1724 101.3925,-184.0771"/>
<polygon fill="#000000" stroke="#000000" points="104.8891,-184.2694 102.2835,-174 97.9163,-183.6529 104.8891,-184.2694"/>
</g>
<!-- B_bot -->
<g id="node3" class="node">
<title>B_bot</title>
<ellipse fill="none" stroke="#000000" cx="94.2835" cy="-18" rx="18" ry="18"/>
<text text-anchor="middle" x="94.2835" y="-14.9" font-family="Helvetica,sans-Serif" font-size="12.00" fill="#0000ff">%</text>
</g>
<!-- B_bot&#45;&gt;B_top -->
<g id="edge7" class="edge">
<title>B_bot:w&#45;&gt;B_top:w</title>
<path fill="none" stroke="#0000ff" stroke-dasharray="1,5" d="M76.2835,-18C-17.1778,-18 -28.1778,-228 65.2835,-228"/>
</g>
<!-- R_bot -->
<g id="node5" class="node">
<title>R_bot</title>
<ellipse fill="none" stroke="#000000" cx="148.2835" cy="-18" rx="18" ry="18"/>
<text text-anchor="middle" x="148.2835" y="-14.9" font-family="Helvetica,sans-Serif" font-size="12.00" fill="#ff0000">%</text>
</g>
<!-- B_bot&#45;&gt;R_bot -->
<!-- R_top -->
<g id="node4" class="node">
<title>R_top</title>
<ellipse fill="none" stroke="#000000" cx="167.2835" cy="-228" rx="18" ry="18"/>
<text text-anchor="middle" x="167.2835" y="-224.9" font-family="Helvetica,sans-Serif" font-size="12.00" fill="#ff0000">R</text>
</g>
<!-- halt -->
<g id="node8" class="node">
<title>halt</title>
<ellipse fill="none" stroke="#000000" cx="134.2835" cy="-87" rx="11" ry="11"/>
<ellipse fill="none" stroke="#000000" cx="134.2835" cy="-87" rx="15" ry="15"/>
</g>
<!-- R_top&#45;&gt;halt -->
<g id="edge5" class="edge">
<title>R_top&#45;&gt;halt:ne</title>
<path fill="none" stroke="#000000" d="M170.1091,-210.0021C173.1311,-184.215 174.7815,-136.4873 151.9943,-105.7929"/>
<polygon fill="#000000" stroke="#000000" points="154.461,-103.2937 145.2835,-98 149.1568,-107.8615 154.461,-103.2937"/>
</g>
<!-- R_bot&#45;&gt;R_top -->
<g id="edge8" class="edge">
<title>R_bot:e&#45;&gt;R_top:e</title>
<path fill="none" stroke="#ff0000" stroke-dasharray="1,5" d="M166.2835,-18C259.998,-18 278.998,-228 185.2835,-228"/>
</g>
<!-- objective -->
<g id="node6" class="node">
<title>objective</title>
<text text-anchor="start" x="113.2835" y="-310.5" font-family="Times" font-size="10.00" fill="#000000">If the machine starts with bit A</text>
<text text-anchor="start" x="113.2835" y="-299.5" font-family="Times" font-size="10.00" fill="#000000">pointing to the left, intercept a blue</text>
<text text-anchor="start" x="113.2835" y="-288.5" font-family="Times" font-size="10.00" fill="#000000">ball. Otherwise, intercept a red ball.</text>
</g>
<!-- bit_A&#45;&gt;R_bot -->
<g id="edge4" class="edge">
<title>bit_A:sw&#45;&gt;R_bot</title>
<path fill="none" stroke="#000000" d="M91.2835,-145C60.6674,-114.384 100.8197,-64.4203 127.6834,-37.1836"/>
<polygon fill="#000000" stroke="#000000" points="130.168,-39.6491 134.8381,-30.1391 125.2568,-34.6611 130.168,-39.6491"/>
</g>
<!-- bit_A&#45;&gt;halt -->
<g id="edge3" class="edge">
<title>bit_A:se&#45;&gt;halt:n</title>
<path fill="none" stroke="#000000" d="M113.2835,-145C125.6202,-132.6633 131.8481,-125.943 133.688,-112.1861"/>
<polygon fill="#000000" stroke="#000000" points="137.1938,-112.1872 134.2835,-102 130.2057,-111.7787 137.1938,-112.1872"/>
</g>
<!-- halt&#45;&gt;B_bot -->
</g>
</svg>
