<?xml version="1.0" encoding="UTF-8" standalone="no"?>
<!DOCTYPE svg PUBLIC "-//W3C//DTD SVG 1.1//EN"
 "http://www.w3.org/Graphics/SVG/1.1/DTD/svg11.dtd">
<!-- Generated by graphviz version 2.40.1 (0)
 -->
<!-- Title: Challenge12 Pages: 1 -->
<svg width="248pt" height="353pt"
 viewBox="0.00 0.00 247.70 353.00" xmlns="http://www.w3.org/2000/svg" xmlns:xlink="http://www.w3.org/1999/xlink">
<g id="graph0" class="graph" transform="scale(1 1) rotate(0) translate(4 349)">
<title>Challenge12</title>
<polygon fill="#ffffff" stroke="transparent" points="-4,4 -4,-349 243.7021,-349 243.7021,4 -4,4"/>
<text text-anchor="middle" x="119.8511" y="-331.4" font-family="Helvetica,sans-Serif" font-weight="bold" font-size="12.00" fill="#000000">Challenge #12: Duality &#45; Part 1</text>
<!-- start -->
<g id="node1" class="node">
<title>start</title>
<ellipse fill="#000000" stroke="#000000" cx="85.7021" cy="-306" rx="3.96" ry="3.96"/>
</g>
<!-- B_top -->
<g id="node2" class="node">
<title>B_top</title>
<ellipse fill="none" stroke="#000000" cx="85.7021" cy="-234" rx="18" ry="18"/>
<text text-anchor="middle" x="85.7021" y="-230.9" font-family="Helvetica,sans-Serif" font-size="12.00" fill="#0000ff">B</text>
</g>
<!-- start&#45;&gt;B_top -->
<g id="edge1" class="edge">
<title>start&#45;&gt;B_top</title>
<path fill="none" stroke="#000000" d="M85.7021,-301.7117C85.7021,-294.0623 85.7021,-277.4722 85.7021,-262.6289"/>
<polygon fill="#000000" stroke="#000000" points="89.2022,-262.2821 85.7021,-252.2821 82.2022,-262.2821 89.2022,-262.2821"/>
</g>
<!-- bit -->
<g id="node7" class="node">
<title>bit</title>
<polygon fill="none" stroke="#000000" points="111.7021,-180 84.7021,-162 111.7021,-144 138.7021,-162 111.7021,-180"/>
<text text-anchor="middle" x="111.7021" y="-157" font-family="Helvetica,sans-Serif" font-size="20.00" fill="#00bfff">&lt;</text>
</g>
<!-- B_top&#45;&gt;bit -->
<g id="edge2" class="edge">
<title>B_top&#45;&gt;bit</title>
<path fill="none" stroke="#000000" d="M91.8638,-216.937C95.1975,-207.7052 99.3699,-196.1507 103.027,-186.0234"/>
<polygon fill="#000000" stroke="#000000" points="106.3576,-187.105 106.4621,-176.5107 99.7737,-184.7275 106.3576,-187.105"/>
</g>
<!-- B_bot -->
<g id="node3" class="node">
<title>B_bot</title>
<ellipse fill="none" stroke="#000000" cx="95.7021" cy="-18" rx="18" ry="18"/>
<text text-anchor="middle" x="95.7021" y="-14.9" font-family="Helvetica,sans-Serif" font-size="12.00" fill="#0000ff">%</text>
</g>
<!-- B_bot&#45;&gt;B_top -->
<g id="edge5" class="edge">
<title>B_bot:w&#45;&gt;B_top:w</title>
<path fill="none" stroke="#0000ff" stroke-dasharray="1,5" d="M77.7021,-18C-18.4007,-18 -28.4007,-234 67.7021,-234"/>
</g>
<!-- R_bot -->
<g id="node5" class="node">
<title>R_bot</title>
<ellipse fill="none" stroke="#000000" cx="149.7021" cy="-18" rx="18" ry="18"/>
<text text-anchor="middle" x="149.7021" y="-14.9" font-family="Helvetica,sans-Serif" font-size="12.00" fill="#ff0000">%</text>
</g>
<!-- B_bot&#45;&gt;R_bot -->
<!-- R_top -->
<g id="node4" class="node">
<title>R_top</title>
<ellipse fill="none" stroke="#000000" cx="149.7021" cy="-234" rx="18" ry="18"/>
<text text-anchor="middle" x="149.7021" y="-230.9" font-family="Helvetica,sans-Serif" font-size="12.00" fill="#ff0000">R</text>
</g>
<!-- R_bot&#45;&gt;R_top -->
<g id="edge6" class="edge">
<title>R_bot:e&#45;&gt;R_top:e</title>
<path fill="none" stroke="#ff0000" stroke-dasharray="1,5" d="M167.7021,-18C263.7021,-18 263.7021,-234 167.7021,-234"/>
</g>
<!-- objective -->
<g id="node6" class="node">
<title>objective</title>
<text text-anchor="start" x="115.7021" y="-303" font-family="Times" font-size="10.00" fill="#000000">Intercept a blue ball.</text>
</g>
<!-- halt -->
<g id="node8" class="node">
<title>halt</title>
<ellipse fill="none" stroke="#000000" cx="112.7021" cy="-90" rx="18" ry="18"/>
</g>
<!-- bit&#45;&gt;halt -->
<g id="edge3" class="edge">
<title>bit:se&#45;&gt;halt</title>
<path fill="none" stroke="#000000" d="M122.7021,-151C131.9232,-141.7789 130.1372,-127.5677 125.716,-115.1814"/>
<polygon fill="#000000" stroke="#000000" points="128.8629,-113.6352 121.7653,-105.7692 122.4085,-116.3445 128.8629,-113.6352"/>
</g>
<!-- halt&#45;&gt;B_bot -->
</g>
</svg>
