<?xml version="1.0" encoding="UTF-8" standalone="no"?>
<!DOCTYPE svg PUBLIC "-//W3C//DTD SVG 1.1//EN"
 "http://www.w3.org/Graphics/SVG/1.1/DTD/svg11.dtd">
<!-- Generated by graphviz version 2.40.1 (20161225.0304)
 -->
<!-- Title: Challenge01 Pages: 1 -->
<svg width="318pt" height="497pt"
 viewBox="0.00 0.00 317.52 497.00" xmlns="http://www.w3.org/2000/svg" xmlns:xlink="http://www.w3.org/1999/xlink">
<g id="graph0" class="graph" transform="scale(1 1) rotate(0) translate(4 493)">
<title>Challenge01</title>
<polygon fill="#ffffff" stroke="transparent" points="-4,4 -4,-493 313.5214,-493 313.5214,4 -4,4"/>
<text text-anchor="middle" x="154.7607" y="-475.4" font-family="Helvetica,sans-Serif" font-weight="bold" font-size="12.00" fill="#000000">Challenge #21: Quantum Number</text>
<!-- start -->
<g id="node1" class="node">
<title>start</title>
<ellipse fill="#000000" stroke="#000000" cx="75.0214" cy="-450" rx="3.96" ry="3.96"/>
</g>
<!-- B_top -->
<g id="node2" class="node">
<title>B_top</title>
<ellipse fill="none" stroke="#000000" cx="75.0214" cy="-378" rx="18" ry="18"/>
<text text-anchor="middle" x="75.0214" y="-374.9" font-family="Helvetica,sans-Serif" font-size="12.00" fill="#0000ff">B</text>
</g>
<!-- start&#45;&gt;B_top -->
<g id="edge1" class="edge">
<title>start&#45;&gt;B_top</title>
<path fill="none" stroke="#000000" d="M75.0214,-445.7117C75.0214,-438.0623 75.0214,-421.4722 75.0214,-406.6289"/>
<polygon fill="#000000" stroke="#000000" points="78.5215,-406.2821 75.0214,-396.2821 71.5215,-406.2821 78.5215,-406.2821"/>
</g>
<!-- bit_0 -->
<g id="node7" class="node">
<title>bit_0</title>
<polygon fill="none" stroke="#000000" points="113.0214,-324 86.0214,-306 113.0214,-288 140.0214,-306 113.0214,-324"/>
<text text-anchor="middle" x="113.0214" y="-299.8" font-family="Helvetica,sans-Serif" font-size="24.00" fill="#00bfff">&lt;</text>
</g>
<!-- B_top&#45;&gt;bit_0 -->
<g id="edge2" class="edge">
<title>B_top&#45;&gt;bit_0</title>
<path fill="none" stroke="#000000" d="M83.4548,-362.0209C88.6636,-352.1516 95.4258,-339.3389 101.1685,-328.4582"/>
<polygon fill="#000000" stroke="#000000" points="104.3155,-329.9938 105.8878,-319.5162 98.1248,-326.7264 104.3155,-329.9938"/>
</g>
<!-- B_bot -->
<g id="node3" class="node">
<title>B_bot</title>
<ellipse fill="none" stroke="#000000" cx="98.0214" cy="-18" rx="18" ry="18"/>
<text text-anchor="middle" x="98.0214" y="-14.9" font-family="Helvetica,sans-Serif" font-size="12.00" fill="#0000ff">B</text>
</g>
<!-- B_bot&#45;&gt;B_top -->
<g id="edge11" class="edge">
<title>B_bot:w&#45;&gt;B_top:w</title>
<path fill="none" stroke="#0000ff" stroke-dasharray="1,5" d="M80.0214,-18C7.0228,-18 1.0214,-89.0014 1.0214,-162 1.0214,-234 1.0214,-234 1.0214,-234 1.0214,-302.6692 -11.6478,-378 57.0214,-378"/>
</g>
<!-- R_bot -->
<g id="node5" class="node">
<title>R_bot</title>
<ellipse fill="none" stroke="#000000" cx="179.0214" cy="-18" rx="18" ry="18"/>
<text text-anchor="middle" x="179.0214" y="-14.9" font-family="Helvetica,sans-Serif" font-size="12.00" fill="#ff0000">R</text>
</g>
<!-- B_bot&#45;&gt;R_bot -->
<!-- R_top -->
<g id="node4" class="node">
<title>R_top</title>
<ellipse fill="none" stroke="#000000" cx="207.0214" cy="-378" rx="18" ry="18"/>
<text text-anchor="middle" x="207.0214" y="-374.9" font-family="Helvetica,sans-Serif" font-size="12.00" fill="#ff0000">R</text>
</g>
<!-- R_bot&#45;&gt;R_top -->
<g id="edge12" class="edge">
<title>R_bot:e&#45;&gt;R_top:e</title>
<path fill="none" stroke="#ff0000" stroke-dasharray="1,5" d="M197.0214,-18C262.22,-18 225.0214,-96.8013 225.0214,-162 225.0214,-234 225.0214,-234 225.0214,-234 225.0214,-298 289.0214,-378 225.0214,-378"/>
</g>
<!-- objective -->
<g id="node6" class="node">
<title>objective</title>
<text text-anchor="start" x="104.5214" y="-453" font-family="Times" font-size="10.00" fill="#000000">Use register A to count the number of blue balls.</text>
<text text-anchor="middle" x="203.0214" y="-442" font-family="Times" font-size="10.00" fill="#000000">Use 15 or fewer balls.</text>
</g>
<!-- bit_0&#45;&gt;B_bot -->
<g id="edge4" class="edge">
<title>bit_0:se&#45;&gt;B_bot:ne</title>
<path fill="none" stroke="#000000" d="M124.0214,-295C195.2782,-223.7432 214.7453,-159.6504 165.0214,-72 152.0111,-49.0662 136.7389,-51.1898 118.8495,-37.8044"/>
<polygon fill="#000000" stroke="#000000" points="120.8649,-34.9188 111.0214,-31 116.2726,-40.2019 120.8649,-34.9188"/>
</g>
<!-- bit_1 -->
<g id="node8" class="node">
<title>bit_1</title>
<polygon fill="none" stroke="#000000" points="113.0214,-252 86.0214,-234 113.0214,-216 140.0214,-234 113.0214,-252"/>
<text text-anchor="middle" x="113.0214" y="-227.8" font-family="Helvetica,sans-Serif" font-size="24.00" fill="#00bfff">&lt;</text>
</g>
<!-- bit_0&#45;&gt;bit_1 -->
<g id="edge3" class="edge">
<title>bit_0:sw&#45;&gt;bit_1:nw</title>
<path fill="none" stroke="#000000" d="M102.0214,-295C88.8859,-281.8645 86.7309,-266.7308 95.5563,-252.9396"/>
<polygon fill="#000000" stroke="#000000" points="98.4211,-254.9644 102.0214,-245 92.9931,-250.5444 98.4211,-254.9644"/>
</g>
<!-- bit_1&#45;&gt;B_bot -->
<g id="edge6" class="edge">
<title>bit_1:se&#45;&gt;B_bot:ne</title>
<path fill="none" stroke="#000000" d="M124.0214,-223C182.0188,-165.0026 172.4421,-97.288 118.2216,-38.4935"/>
<polygon fill="#000000" stroke="#000000" points="120.4737,-35.7858 111.0214,-31 115.4262,-40.6358 120.4737,-35.7858"/>
</g>
<!-- bit_2 -->
<g id="node9" class="node">
<title>bit_2</title>
<polygon fill="none" stroke="#000000" points="94.0214,-180 67.0214,-162 94.0214,-144 121.0214,-162 94.0214,-180"/>
<text text-anchor="middle" x="94.0214" y="-155.8" font-family="Helvetica,sans-Serif" font-size="24.00" fill="#00bfff">&lt;</text>
</g>
<!-- bit_1&#45;&gt;bit_2 -->
<g id="edge5" class="edge">
<title>bit_1:sw&#45;&gt;bit_2:nw</title>
<path fill="none" stroke="#000000" d="M102.0214,-223C88.1008,-209.0794 72.6782,-195.4532 77.3345,-181.6338"/>
<polygon fill="#000000" stroke="#000000" points="80.4435,-183.2765 83.0214,-173 74.5977,-179.4259 80.4435,-183.2765"/>
</g>
<!-- bit_2&#45;&gt;B_bot -->
<g id="edge8" class="edge">
<title>bit_2:se&#45;&gt;B_bot:ne</title>
<path fill="none" stroke="#000000" d="M105.0214,-151C121.7624,-134.259 128.3765,-67.6993 116.4972,-39.6712"/>
<polygon fill="#000000" stroke="#000000" points="119.3202,-37.5864 111.0214,-31 113.4015,-41.324 119.3202,-37.5864"/>
</g>
<!-- bit_3 -->
<g id="node10" class="node">
<title>bit_3</title>
<polygon fill="none" stroke="#000000" points="56.0214,-108 29.0214,-90 56.0214,-72 83.0214,-90 56.0214,-108"/>
<text text-anchor="middle" x="56.0214" y="-83.8" font-family="Helvetica,sans-Serif" font-size="24.00" fill="#00bfff">&lt;</text>
</g>
<!-- bit_2&#45;&gt;bit_3 -->
<g id="edge7" class="edge">
<title>bit_2:sw&#45;&gt;bit_3:nw</title>
<path fill="none" stroke="#000000" d="M83.0214,-151C66.3687,-134.3473 36.714,-124.251 39.7087,-109.6472"/>
<polygon fill="#000000" stroke="#000000" points="42.7687,-111.3526 45.0214,-101 36.8044,-107.6882 42.7687,-111.3526"/>
</g>
<!-- bit_3&#45;&gt;B_bot -->
<g id="edge9" class="edge">
<title>bit_3:sw&#45;&gt;B_bot:nw</title>
<path fill="none" stroke="#000000" d="M45.0214,-79C27.6863,-61.6649 56.8292,-52.8315 77.4078,-37.489"/>
<polygon fill="#000000" stroke="#000000" points="79.6809,-40.1504 85.0214,-31 75.1403,-34.8229 79.6809,-40.1504"/>
</g>
<!-- bit_3&#45;&gt;B_bot -->
<g id="edge10" class="edge">
<title>bit_3:se&#45;&gt;B_bot:ne</title>
<path fill="none" stroke="#000000" d="M67.0214,-79C84.2877,-61.7337 118.3098,-54.0008 116.228,-39.7137"/>
<polygon fill="#000000" stroke="#000000" points="119.1552,-37.7891 111.0214,-31 113.1462,-41.3796 119.1552,-37.7891"/>
</g>
</g>
</svg>
