<?xml version="1.0" encoding="UTF-8" standalone="no"?>
<!DOCTYPE svg PUBLIC "-//W3C//DTD SVG 1.1//EN"
 "http://www.w3.org/Graphics/SVG/1.1/DTD/svg11.dtd">
<!-- Generated by graphviz version 2.40.1 (0)
 -->
<!-- Title: Challenge24 Pages: 1 -->
<svg width="223pt" height="563pt"
 viewBox="0.00 0.00 223.21 563.00" xmlns="http://www.w3.org/2000/svg" xmlns:xlink="http://www.w3.org/1999/xlink">
<g id="graph0" class="graph" transform="scale(1 1) rotate(0) translate(4 559)">
<title>Challenge24</title>
<polygon fill="#ffffff" stroke="transparent" points="-4,4 -4,-559 219.2095,-559 219.2095,4 -4,4"/>
<text text-anchor="middle" x="107.6048" y="-541.4" font-family="Helvetica,sans-Serif" font-weight="bold" font-size="12.00" fill="#000000">Challenge #24: Ennead</text>
<g id="clust3" class="cluster">
<title>cluster_Register_A</title>
<polygon fill="none" stroke="#c0c0c0" points="68.2095,-130 68.2095,-398 138.2095,-398 138.2095,-130 68.2095,-130"/>
</g>
<!-- start -->
<g id="node1" class="node">
<title>start</title>
<ellipse fill="#000000" stroke="#000000" cx="57.2095" cy="-516" rx="3.96" ry="3.96"/>
</g>
<!-- B_top -->
<g id="node2" class="node">
<title>B_top</title>
<ellipse fill="none" stroke="#000000" cx="57.2095" cy="-444" rx="18" ry="18"/>
<text text-anchor="middle" x="57.2095" y="-440.9" font-family="Helvetica,sans-Serif" font-size="12.00" fill="#0000ff">B</text>
</g>
<!-- start&#45;&gt;B_top -->
<g id="edge1" class="edge">
<title>start&#45;&gt;B_top</title>
<path fill="none" stroke="#000000" d="M57.2095,-511.7117C57.2095,-504.0623 57.2095,-487.4722 57.2095,-472.6289"/>
<polygon fill="#000000" stroke="#000000" points="60.7096,-472.2821 57.2095,-462.2821 53.7096,-472.2821 60.7096,-472.2821"/>
</g>
<!-- bit_0 -->
<g id="node7" class="node">
<title>bit_0</title>
<polygon fill="none" stroke="#000000" points="103.2095,-390 76.2095,-372 103.2095,-354 130.2095,-372 103.2095,-390"/>
<text text-anchor="middle" x="103.2095" y="-367" font-family="Helvetica,sans-Serif" font-size="20.00" fill="#00bfff">&gt;</text>
</g>
<!-- B_top&#45;&gt;bit_0 -->
<g id="edge2" class="edge">
<title>B_top&#45;&gt;bit_0:n</title>
<path fill="none" stroke="#000000" d="M72.783,-434.5126C83.73,-426.7598 97.1915,-414.7014 101.6757,-400.0132"/>
<polygon fill="#000000" stroke="#000000" points="105.155,-400.4147 103.2095,-390 98.2357,-399.3547 105.155,-400.4147"/>
</g>
<!-- B_bot -->
<g id="node3" class="node">
<title>B_bot</title>
<ellipse fill="none" stroke="#000000" cx="60.2095" cy="-18" rx="18" ry="18"/>
<text text-anchor="middle" x="60.2095" y="-14.9" font-family="Helvetica,sans-Serif" font-size="12.00" fill="#0000ff">%</text>
</g>
<!-- B_bot&#45;&gt;B_top -->
<g id="edge12" class="edge">
<title>B_bot:w&#45;&gt;B_top:w</title>
<path fill="none" stroke="#0000ff" stroke-dasharray="1,5" d="M42.2095,-18C-20.7512,-18 10.2095,-93.0393 10.2095,-156 10.2095,-300 10.2095,-300 10.2095,-300 10.2095,-365.2849 -26.0754,-444 39.2095,-444"/>
</g>
<!-- R_bot -->
<g id="node5" class="node">
<title>R_bot</title>
<ellipse fill="none" stroke="#000000" cx="114.2095" cy="-18" rx="18" ry="18"/>
<text text-anchor="middle" x="114.2095" y="-14.9" font-family="Helvetica,sans-Serif" font-size="12.00" fill="#ff0000">%</text>
</g>
<!-- B_bot&#45;&gt;R_bot -->
<!-- R_top -->
<g id="node4" class="node">
<title>R_top</title>
<ellipse fill="none" stroke="#000000" cx="140.2095" cy="-444" rx="18" ry="18"/>
<text text-anchor="middle" x="140.2095" y="-440.9" font-family="Helvetica,sans-Serif" font-size="12.00" fill="#ff0000">R</text>
</g>
<!-- R_bot&#45;&gt;R_top -->
<g id="edge13" class="edge">
<title>R_bot:e&#45;&gt;R_top:e</title>
<path fill="none" stroke="#ff0000" stroke-dasharray="1,5" d="M132.2095,-18C194.6219,-18 158.2095,-93.5876 158.2095,-156 158.2095,-300 158.2095,-300 158.2095,-300 158.2095,-364 222.2095,-444 158.2095,-444"/>
</g>
<!-- objective -->
<g id="node6" class="node">
<title>objective</title>
<text text-anchor="start" x="87.2095" y="-519" font-family="Times" font-size="10.00" fill="#000000">Let exactly 9 blue balls reach</text>
<text text-anchor="start" x="87.2095" y="-508" font-family="Times" font-size="10.00" fill="#000000">the end. (Intercept the 10th.)</text>
</g>
<!-- bit_0&#45;&gt;B_bot -->
<g id="edge7" class="edge">
<title>bit_0:sw&#45;&gt;B_bot:nw</title>
<path fill="none" stroke="#000000" d="M48.2095,-87C46.059,-66.3026 34.505,-53.3764 41.0538,-39.41"/>
<polygon fill="#000000" stroke="#000000" points="44.1274,-41.1366 47.2095,-31 38.4788,-37.0022 44.1274,-41.1366"/>
<path fill="none" stroke="#000000" d="M92.2095,-361C48.1837,-316.9742 59.5046,-289.2288 48.2095,-228"/>
<path fill="none" stroke="#000000" d="M48.2095,-228C41.4761,-196.7164 54.0147,-187.469 48.2095,-156"/>
<path fill="none" stroke="#000000" d="M48.2095,-156C42.6462,-125.8422 51.3788,-117.5025 48.2095,-87"/>
</g>
<!-- bit_1 -->
<g id="node8" class="node">
<title>bit_1</title>
<polygon fill="none" stroke="#000000" points="103.2095,-318 76.2095,-300 103.2095,-282 130.2095,-300 103.2095,-318"/>
<text text-anchor="middle" x="103.2095" y="-295" font-family="Helvetica,sans-Serif" font-size="20.00" fill="#00bfff">&lt;</text>
</g>
<!-- bit_0&#45;&gt;bit_1 -->
<g id="edge3" class="edge">
<title>bit_0:se&#45;&gt;bit_1:ne</title>
<path fill="none" stroke="#000000" d="M114.2095,-361C127.345,-347.8645 129.5,-332.7308 120.6746,-318.9396"/>
<polygon fill="#000000" stroke="#000000" points="123.2378,-316.5444 114.2095,-311 117.8098,-320.9644 123.2378,-316.5444"/>
</g>
<!-- bit_1&#45;&gt;B_bot -->
<g id="edge8" class="edge">
<title>bit_1:sw&#45;&gt;B_bot:nw</title>
<path fill="none" stroke="#000000" d="M92.2095,-289C68.5723,-265.3628 54.2738,-260.8733 48.2095,-228"/>
</g>
<!-- bit_2 -->
<g id="node9" class="node">
<title>bit_2</title>
<polygon fill="none" stroke="#000000" points="103.2095,-246 76.2095,-228 103.2095,-210 130.2095,-228 103.2095,-246"/>
<text text-anchor="middle" x="103.2095" y="-223" font-family="Helvetica,sans-Serif" font-size="20.00" fill="#00bfff">&lt;</text>
</g>
<!-- bit_1&#45;&gt;bit_2 -->
<g id="edge4" class="edge">
<title>bit_1:se&#45;&gt;bit_2:ne</title>
<path fill="none" stroke="#000000" d="M114.2095,-289C127.345,-275.8645 129.5,-260.7308 120.6746,-246.9396"/>
<polygon fill="#000000" stroke="#000000" points="123.2378,-244.5444 114.2095,-239 117.8098,-248.9644 123.2378,-244.5444"/>
</g>
<!-- bit_2&#45;&gt;B_bot -->
<g id="edge9" class="edge">
<title>bit_2:sw&#45;&gt;B_bot:nw</title>
<path fill="none" stroke="#000000" d="M92.2095,-217C68.5723,-193.3628 54.2738,-188.8733 48.2095,-156"/>
</g>
<!-- bit_3 -->
<g id="node10" class="node">
<title>bit_3</title>
<polygon fill="none" stroke="#000000" points="103.2095,-174 76.2095,-156 103.2095,-138 130.2095,-156 103.2095,-174"/>
<text text-anchor="middle" x="103.2095" y="-151" font-family="Helvetica,sans-Serif" font-size="20.00" fill="#00bfff">&gt;</text>
</g>
<!-- bit_2&#45;&gt;bit_3 -->
<g id="edge5" class="edge">
<title>bit_2:se&#45;&gt;bit_3:ne</title>
<path fill="none" stroke="#000000" d="M114.2095,-217C127.345,-203.8645 129.5,-188.7308 120.6746,-174.9396"/>
<polygon fill="#000000" stroke="#000000" points="123.2378,-172.5444 114.2095,-167 117.8098,-176.9644 123.2378,-172.5444"/>
</g>
<!-- bit_3&#45;&gt;B_bot -->
<g id="edge10" class="edge">
<title>bit_3:sw&#45;&gt;B_bot:nw</title>
<path fill="none" stroke="#000000" d="M92.2095,-145C69.3303,-122.1208 51.5534,-119.1828 48.2095,-87"/>
</g>
<!-- halt -->
<g id="node11" class="node">
<title>halt</title>
<ellipse fill="none" stroke="#000000" cx="114.2095" cy="-87" rx="11" ry="11"/>
<ellipse fill="none" stroke="#000000" cx="114.2095" cy="-87" rx="15" ry="15"/>
</g>
<!-- bit_3&#45;&gt;halt -->
<g id="edge6" class="edge">
<title>bit_3:se&#45;&gt;halt</title>
<path fill="none" stroke="#000000" d="M114.2095,-145C122.8555,-136.354 123.2993,-122.8606 121.3768,-111.0636"/>
<polygon fill="#000000" stroke="#000000" points="124.7949,-110.3103 119.2249,-101.2978 117.9589,-111.8167 124.7949,-110.3103"/>
</g>
<!-- halt&#45;&gt;R_bot -->
</g>
</svg>
