<?xml version="1.0" encoding="UTF-8" standalone="no"?>
<!DOCTYPE svg PUBLIC "-//W3C//DTD SVG 1.1//EN"
 "http://www.w3.org/Graphics/SVG/1.1/DTD/svg11.dtd">
<!-- Generated by graphviz version 2.40.1 (0)
 -->
<!-- Title: Challenge20 Pages: 1 -->
<svg width="295pt" height="424pt"
 viewBox="0.00 0.00 294.78 424.00" xmlns="http://www.w3.org/2000/svg" xmlns:xlink="http://www.w3.org/1999/xlink">
<g id="graph0" class="graph" transform="scale(1 1) rotate(0) translate(4 420)">
<title>Challenge20</title>
<polygon fill="#ffffff" stroke="transparent" points="-4,4 -4,-420 290.7804,-420 290.7804,4 -4,4"/>
<text text-anchor="middle" x="143.3902" y="-402.4" font-family="Helvetica,sans-Serif" font-weight="bold" font-size="12.00" fill="#000000">Challenge #20: Symbiosis</text>
<!-- start -->
<g id="node1" class="node">
<title>start</title>
<ellipse fill="#000000" stroke="#000000" cx="97.4319" cy="-374.5" rx="3.96" ry="3.96"/>
</g>
<!-- B_top -->
<g id="node2" class="node">
<title>B_top</title>
<ellipse fill="none" stroke="#000000" cx="97.4319" cy="-300" rx="18" ry="18"/>
<text text-anchor="middle" x="97.4319" y="-296.9" font-family="Helvetica,sans-Serif" font-size="12.00" fill="#0000ff">B</text>
</g>
<!-- start&#45;&gt;B_top -->
<g id="edge1" class="edge">
<title>start&#45;&gt;B_top</title>
<path fill="none" stroke="#000000" d="M97.4319,-370.4946C97.4319,-362.5609 97.4319,-344.2324 97.4319,-328.2532"/>
<polygon fill="#000000" stroke="#000000" points="100.932,-328.2247 97.4319,-318.2248 93.932,-328.2248 100.932,-328.2247"/>
</g>
<!-- bit_0 -->
<g id="node7" class="node">
<title>bit_0</title>
<polygon fill="none" stroke="#000000" points="140.4319,-246 113.4319,-228 140.4319,-210 167.4319,-228 140.4319,-246"/>
<text text-anchor="middle" x="140.4319" y="-223" font-family="Helvetica,sans-Serif" font-size="20.00" fill="#00bfff">^</text>
</g>
<!-- B_top&#45;&gt;bit_0 -->
<g id="edge2" class="edge">
<title>B_top&#45;&gt;bit_0:nw</title>
<path fill="none" stroke="#000000" d="M103.2407,-282.7297C107.4033,-272.0442 113.8317,-258.2342 122.617,-246.8142"/>
<polygon fill="#000000" stroke="#000000" points="125.4969,-248.837 129.4319,-239 120.2213,-244.2361 125.4969,-248.837"/>
</g>
<!-- B_bot -->
<g id="node3" class="node">
<title>B_bot</title>
<ellipse fill="none" stroke="#000000" cx="131.4319" cy="-18" rx="18" ry="18"/>
<text text-anchor="middle" x="131.4319" y="-14.9" font-family="Helvetica,sans-Serif" font-size="12.00" fill="#0000ff">%</text>
</g>
<!-- B_bot&#45;&gt;B_top -->
<g id="edge9" class="edge">
<title>B_bot:w&#45;&gt;B_top:w</title>
<path fill="none" stroke="#0000ff" stroke-dasharray="1,5" d="M113.4319,-18C-12.8091,-18 -46.8091,-300 79.4319,-300"/>
</g>
<!-- R_bot -->
<g id="node5" class="node">
<title>R_bot</title>
<ellipse fill="none" stroke="#000000" cx="185.4319" cy="-18" rx="18" ry="18"/>
<text text-anchor="middle" x="185.4319" y="-14.9" font-family="Helvetica,sans-Serif" font-size="12.00" fill="#ff0000">%</text>
</g>
<!-- B_bot&#45;&gt;R_bot -->
<!-- R_top -->
<g id="node4" class="node">
<title>R_top</title>
<ellipse fill="none" stroke="#000000" cx="161.4319" cy="-300" rx="18" ry="18"/>
<text text-anchor="middle" x="161.4319" y="-296.9" font-family="Helvetica,sans-Serif" font-size="12.00" fill="#ff0000">R</text>
</g>
<!-- R_top&#45;&gt;bit_0 -->
<g id="edge3" class="edge">
<title>R_top&#45;&gt;bit_0:ne</title>
<path fill="none" stroke="#000000" d="M163.6163,-282.0278C164.0767,-271.3512 163.1431,-257.8568 157.4297,-247.181"/>
<polygon fill="#000000" stroke="#000000" points="160.1672,-244.9954 151.4319,-239 154.5218,-249.1343 160.1672,-244.9954"/>
</g>
<!-- R_bot&#45;&gt;R_top -->
<g id="edge10" class="edge">
<title>R_bot:e&#45;&gt;R_top:e</title>
<path fill="none" stroke="#ff0000" stroke-dasharray="1,5" d="M203.4319,-18C329.2183,-18 305.2183,-300 179.4319,-300"/>
</g>
<!-- objective -->
<g id="node6" class="node">
<title>objective</title>
<text text-anchor="start" x="127.4319" y="-382.5" font-family="Times" font-size="10.00" fill="#000000">If the top bit OR the bottom bit start</text>
<text text-anchor="start" x="127.4319" y="-371.5" font-family="Times" font-size="10.00" fill="#000000">pointed to the right, intercept a blue</text>
<text text-anchor="start" x="127.4319" y="-360.5" font-family="Times" font-size="10.00" fill="#000000">ball. Otherwise, intercept a red ball.</text>
</g>
<!-- bit_1 -->
<g id="node8" class="node">
<title>bit_1</title>
<polygon fill="none" stroke="#000000" points="167.4319,-174 140.4319,-156 167.4319,-138 194.4319,-156 167.4319,-174"/>
<text text-anchor="middle" x="167.4319" y="-151" font-family="Helvetica,sans-Serif" font-size="20.00" fill="#00bfff">^</text>
</g>
<!-- bit_0&#45;&gt;bit_1 -->
<g id="edge5" class="edge">
<title>bit_0:se&#45;&gt;bit_1:n</title>
<path fill="none" stroke="#000000" d="M151.4319,-217C163.1472,-205.2847 166.3876,-197.6815 167.1909,-184.3047"/>
<polygon fill="#000000" stroke="#000000" points="170.6971,-184.0791 167.4319,-174 163.699,-183.9154 170.6971,-184.0791"/>
</g>
<!-- halt -->
<g id="node9" class="node">
<title>halt</title>
<ellipse fill="none" stroke="#000000" cx="117.4319" cy="-87" rx="11" ry="11"/>
<ellipse fill="none" stroke="#000000" cx="117.4319" cy="-87" rx="15" ry="15"/>
</g>
<!-- bit_0&#45;&gt;halt -->
<g id="edge4" class="edge">
<title>bit_0:sw&#45;&gt;halt</title>
<path fill="none" stroke="#000000" d="M129.4319,-217C102.026,-189.5941 105.8785,-140.7971 111.4581,-111.4142"/>
<polygon fill="#000000" stroke="#000000" points="114.901,-112.0495 113.5372,-101.5428 108.0513,-110.6068 114.901,-112.0495"/>
</g>
<!-- bit_1&#45;&gt;R_bot -->
<g id="edge7" class="edge">
<title>bit_1:se&#45;&gt;R_bot:n</title>
<path fill="none" stroke="#000000" d="M178.4319,-145C210.2773,-113.1546 189.0594,-88.3636 185.8264,-46.1846"/>
<polygon fill="#000000" stroke="#000000" points="189.3165,-45.857 185.4319,-36 182.3217,-46.128 189.3165,-45.857"/>
</g>
<!-- bit_1&#45;&gt;halt -->
<g id="edge6" class="edge">
<title>bit_1:sw&#45;&gt;halt</title>
<path fill="none" stroke="#000000" d="M156.4319,-145C145.9748,-134.5429 136.6352,-120.8971 129.7192,-109.4686"/>
<polygon fill="#000000" stroke="#000000" points="132.5614,-107.3937 124.5083,-100.509 126.5103,-110.913 132.5614,-107.3937"/>
</g>
<!-- halt&#45;&gt;B_bot -->
</g>
</svg>
