<?xml version="1.0" encoding="UTF-8" standalone="no"?>
<!DOCTYPE svg PUBLIC "-//W3C//DTD SVG 1.1//EN"
 "http://www.w3.org/Graphics/SVG/1.1/DTD/svg11.dtd">
<!-- Generated by graphviz version 2.40.1 (0)
 -->
<!-- Title: Challenge14 Pages: 1 -->
<svg width="276pt" height="358pt"
 viewBox="0.00 0.00 275.78 358.00" xmlns="http://www.w3.org/2000/svg" xmlns:xlink="http://www.w3.org/1999/xlink">
<g id="graph0" class="graph" transform="scale(1 1) rotate(0) translate(4 354)">
<title>Challenge14</title>
<polygon fill="#ffffff" stroke="transparent" points="-4,4 -4,-354 271.7808,-354 271.7808,4 -4,4"/>
<text text-anchor="middle" x="133.8904" y="-336.4" font-family="Helvetica,sans-Serif" font-weight="bold" font-size="12.00" fill="#000000">Challenge #14: Duality &#45; Part 3</text>
<!-- start -->
<g id="node1" class="node">
<title>start</title>
<ellipse fill="#000000" stroke="#000000" cx="85.2808" cy="-308.5" rx="3.96" ry="3.96"/>
</g>
<!-- B_top -->
<g id="node2" class="node">
<title>B_top</title>
<ellipse fill="none" stroke="#000000" cx="85.2808" cy="-234" rx="18" ry="18"/>
<text text-anchor="middle" x="85.2808" y="-230.9" font-family="Helvetica,sans-Serif" font-size="12.00" fill="#0000ff">B</text>
</g>
<!-- start&#45;&gt;B_top -->
<g id="edge1" class="edge">
<title>start&#45;&gt;B_top</title>
<path fill="none" stroke="#000000" d="M85.2808,-304.4946C85.2808,-296.5609 85.2808,-278.2324 85.2808,-262.2532"/>
<polygon fill="#000000" stroke="#000000" points="88.7809,-262.2247 85.2808,-252.2248 81.7809,-262.2248 88.7809,-262.2247"/>
</g>
<!-- bit -->
<g id="node7" class="node">
<title>bit</title>
<polygon fill="none" stroke="#000000" points="104.2808,-180 77.2808,-162 104.2808,-144 131.2808,-162 104.2808,-180"/>
<text text-anchor="middle" x="104.2808" y="-157" font-family="Helvetica,sans-Serif" font-size="20.00" fill="#00bfff">^</text>
<text text-anchor="start" x="56.2808" y="-187" font-family="Helvetica,sans-Serif" font-size="20.00" fill="#00bfff"> </text>
<text text-anchor="start" x="63.2808" y="-187" font-family="Helvetica,sans-Serif" font-size="10.00" fill="#00bfff">A</text>
<text text-anchor="start" x="70.2808" y="-187" font-family="Helvetica,sans-Serif" font-size="20.00" fill="#00bfff"> </text>
</g>
<!-- B_top&#45;&gt;bit -->
<g id="edge2" class="edge">
<title>B_top&#45;&gt;bit:n</title>
<path fill="none" stroke="#000000" d="M94.1133,-217.9707C97.8346,-210.109 101.6932,-200.1724 103.3899,-190.0771"/>
<polygon fill="#000000" stroke="#000000" points="106.8864,-190.2694 104.2808,-180 99.9136,-189.6529 106.8864,-190.2694"/>
</g>
<!-- B_bot -->
<g id="node3" class="node">
<title>B_bot</title>
<ellipse fill="none" stroke="#000000" cx="96.2808" cy="-18" rx="18" ry="18"/>
<text text-anchor="middle" x="96.2808" y="-14.9" font-family="Helvetica,sans-Serif" font-size="12.00" fill="#0000ff">%</text>
</g>
<!-- B_bot&#45;&gt;B_top -->
<g id="edge7" class="edge">
<title>B_bot:w&#45;&gt;B_top:w</title>
<path fill="none" stroke="#0000ff" stroke-dasharray="1,5" d="M78.2808,-18C-17.8436,-18 -28.8436,-234 67.2808,-234"/>
</g>
<!-- R_bot -->
<g id="node5" class="node">
<title>R_bot</title>
<ellipse fill="none" stroke="#000000" cx="150.2808" cy="-18" rx="18" ry="18"/>
<text text-anchor="middle" x="150.2808" y="-14.9" font-family="Helvetica,sans-Serif" font-size="12.00" fill="#ff0000">%</text>
</g>
<!-- B_bot&#45;&gt;R_bot -->
<!-- R_top -->
<g id="node4" class="node">
<title>R_top</title>
<ellipse fill="none" stroke="#000000" cx="169.2808" cy="-234" rx="18" ry="18"/>
<text text-anchor="middle" x="169.2808" y="-230.9" font-family="Helvetica,sans-Serif" font-size="12.00" fill="#ff0000">R</text>
</g>
<!-- halt -->
<g id="node8" class="node">
<title>halt</title>
<ellipse fill="none" stroke="#000000" cx="139.2808" cy="-90" rx="18" ry="18"/>
</g>
<!-- R_top&#45;&gt;halt -->
<g id="edge5" class="edge">
<title>R_top&#45;&gt;halt:ne</title>
<path fill="none" stroke="#000000" d="M173.0062,-216.2828C177.4066,-190.3691 181.5442,-141.8523 158.9865,-110.8601"/>
<polygon fill="#000000" stroke="#000000" points="161.4338,-108.336 152.2808,-103 156.1085,-112.8793 161.4338,-108.336"/>
</g>
<!-- R_bot&#45;&gt;R_top -->
<g id="edge8" class="edge">
<title>R_bot:e&#45;&gt;R_top:e</title>
<path fill="none" stroke="#ff0000" stroke-dasharray="1,5" d="M168.2808,-18C264.6515,-18 283.6515,-234 187.2808,-234"/>
</g>
<!-- objective -->
<g id="node6" class="node">
<title>objective</title>
<text text-anchor="start" x="115.2808" y="-316.5" font-family="Times" font-size="10.00" fill="#000000">If the machine starts with bit A</text>
<text text-anchor="start" x="115.2808" y="-305.5" font-family="Times" font-size="10.00" fill="#000000">pointing to the left, intercept a blue</text>
<text text-anchor="start" x="115.2808" y="-294.5" font-family="Times" font-size="10.00" fill="#000000">ball. Otherwise, intercept a red ball.</text>
</g>
<!-- bit&#45;&gt;R_bot -->
<g id="edge4" class="edge">
<title>bit:sw&#45;&gt;R_bot</title>
<path fill="none" stroke="#000000" d="M93.2808,-151C61.2939,-119.0131 102.5081,-66.2208 129.7703,-37.7183"/>
<polygon fill="#000000" stroke="#000000" points="132.4935,-39.9412 137.0173,-30.3607 127.5064,-35.0291 132.4935,-39.9412"/>
</g>
<!-- bit&#45;&gt;halt -->
<g id="edge3" class="edge">
<title>bit:se&#45;&gt;halt:n</title>
<path fill="none" stroke="#000000" d="M115.2808,-151C128.0969,-138.1839 136.1453,-132.1149 138.5334,-117.9776"/>
<polygon fill="#000000" stroke="#000000" points="142.0239,-118.2336 139.2808,-108 135.0435,-117.7106 142.0239,-118.2336"/>
</g>
<!-- halt&#45;&gt;B_bot -->
</g>
</svg>
