<?xml version="1.0" encoding="UTF-8" standalone="no"?>
<!DOCTYPE svg PUBLIC "-//W3C//DTD SVG 1.1//EN"
 "http://www.w3.org/Graphics/SVG/1.1/DTD/svg11.dtd">
<!-- Generated by graphviz version 2.40.1 (0)
 -->
<!-- Title: Challenge19 Pages: 1 -->
<svg width="337pt" height="435pt"
 viewBox="0.00 0.00 336.69 435.00" xmlns="http://www.w3.org/2000/svg" xmlns:xlink="http://www.w3.org/1999/xlink">
<g id="graph0" class="graph" transform="scale(1 1) rotate(0) translate(4 431)">
<title>Challenge19</title>
<polygon fill="#ffffff" stroke="transparent" points="-4,4 -4,-431 332.6894,-431 332.6894,4 -4,4"/>
<text text-anchor="middle" x="164.3447" y="-413.4" font-family="Helvetica,sans-Serif" font-weight="bold" font-size="12.00" fill="#000000">Challenge #19: Entanglement</text>
<!-- start -->
<g id="node1" class="node">
<title>start</title>
<ellipse fill="#000000" stroke="#000000" cx="111.5318" cy="-380" rx="3.96" ry="3.96"/>
</g>
<!-- B_top -->
<g id="node2" class="node">
<title>B_top</title>
<ellipse fill="none" stroke="#000000" cx="111.5318" cy="-300" rx="18" ry="18"/>
<text text-anchor="middle" x="111.5318" y="-296.9" font-family="Helvetica,sans-Serif" font-size="12.00" fill="#0000ff">B</text>
</g>
<!-- start&#45;&gt;B_top -->
<g id="edge1" class="edge">
<title>start&#45;&gt;B_top</title>
<path fill="none" stroke="#000000" d="M111.5318,-375.6989C111.5318,-366.8833 111.5318,-346.116 111.5318,-328.5593"/>
<polygon fill="#000000" stroke="#000000" points="115.0319,-328.1782 111.5318,-318.1782 108.0319,-328.1783 115.0319,-328.1782"/>
</g>
<!-- bit_0 -->
<g id="node7" class="node">
<title>bit_0</title>
<polygon fill="none" stroke="#000000" points="142.5318,-246 115.5318,-228 142.5318,-210 169.5318,-228 142.5318,-246"/>
<text text-anchor="middle" x="142.5318" y="-223" font-family="Helvetica,sans-Serif" font-size="20.00" fill="#00bfff">^</text>
</g>
<!-- B_top&#45;&gt;bit_0 -->
<g id="edge2" class="edge">
<title>B_top&#45;&gt;bit_0:n</title>
<path fill="none" stroke="#000000" d="M124.1407,-286.9746C130.8458,-278.9527 138.2993,-267.9571 141.2393,-256.1077"/>
<polygon fill="#000000" stroke="#000000" points="144.735,-256.3632 142.5318,-246 137.7916,-255.4752 144.735,-256.3632"/>
</g>
<!-- B_bot -->
<g id="node3" class="node">
<title>B_bot</title>
<ellipse fill="none" stroke="#000000" cx="112.5318" cy="-18" rx="18" ry="18"/>
<text text-anchor="middle" x="112.5318" y="-14.9" font-family="Helvetica,sans-Serif" font-size="12.00" fill="#0000ff">%</text>
</g>
<!-- B_bot&#45;&gt;B_top -->
<g id="edge9" class="edge">
<title>B_bot:w&#45;&gt;B_top:w</title>
<path fill="none" stroke="#0000ff" stroke-dasharray="1,5" d="M94.5318,-18C-30.8023,-18 -31.8023,-300 93.5318,-300"/>
</g>
<!-- R_bot -->
<g id="node5" class="node">
<title>R_bot</title>
<ellipse fill="none" stroke="#000000" cx="173.5318" cy="-18" rx="18" ry="18"/>
<text text-anchor="middle" x="173.5318" y="-14.9" font-family="Helvetica,sans-Serif" font-size="12.00" fill="#ff0000">%</text>
</g>
<!-- B_bot&#45;&gt;R_bot -->
<!-- R_top -->
<g id="node4" class="node">
<title>R_top</title>
<ellipse fill="none" stroke="#000000" cx="241.5318" cy="-300" rx="18" ry="18"/>
<text text-anchor="middle" x="241.5318" y="-296.9" font-family="Helvetica,sans-Serif" font-size="12.00" fill="#ff0000">R</text>
</g>
<!-- halt -->
<g id="node9" class="node">
<title>halt</title>
<ellipse fill="none" stroke="#000000" cx="112.5318" cy="-87" rx="11" ry="11"/>
<ellipse fill="none" stroke="#000000" cx="112.5318" cy="-87" rx="15" ry="15"/>
</g>
<!-- R_top&#45;&gt;halt -->
<g id="edge7" class="edge">
<title>R_top&#45;&gt;halt:ne</title>
<path fill="none" stroke="#000000" d="M236.2208,-282.7096C226.1587,-251.7003 202.1781,-185.4451 167.5318,-138 154.1377,-119.6579 145.071,-117.1017 130.9253,-104.8849"/>
<polygon fill="#000000" stroke="#000000" points="133.2354,-102.2535 123.5318,-98 128.465,-107.3763 133.2354,-102.2535"/>
</g>
<!-- R_bot&#45;&gt;R_top -->
<g id="edge10" class="edge">
<title>R_bot:e&#45;&gt;R_top:e</title>
<path fill="none" stroke="#ff0000" stroke-dasharray="1,5" d="M191.5318,-18C320.4575,-18 388.4575,-300 259.5318,-300"/>
</g>
<!-- objective -->
<g id="node6" class="node">
<title>objective</title>
<text text-anchor="start" x="141.5318" y="-394" font-family="Times" font-size="10.00" fill="#000000">If the top bit AND the bottom bit</text>
<text text-anchor="start" x="141.5318" y="-383" font-family="Times" font-size="10.00" fill="#000000">start pointed to the right,</text>
<text text-anchor="start" x="141.5318" y="-372" font-family="Times" font-size="10.00" fill="#000000">intercept a blue ball. Otherwise,</text>
<text text-anchor="start" x="141.5318" y="-361" font-family="Times" font-size="10.00" fill="#000000">intercept a red ball.</text>
</g>
<!-- bit_0&#45;&gt;R_bot -->
<g id="edge4" class="edge">
<title>bit_0:se&#45;&gt;R_bot:ne</title>
<path fill="none" stroke="#000000" d="M153.5318,-217C210.4639,-160.0679 243.1475,-95.8717 193.3752,-38.3437"/>
<polygon fill="#000000" stroke="#000000" points="195.9099,-35.9298 186.5318,-31 190.7887,-40.7021 195.9099,-35.9298"/>
</g>
<!-- bit_1 -->
<g id="node8" class="node">
<title>bit_1</title>
<polygon fill="none" stroke="#000000" points="131.5318,-174 104.5318,-156 131.5318,-138 158.5318,-156 131.5318,-174"/>
<text text-anchor="middle" x="131.5318" y="-151" font-family="Helvetica,sans-Serif" font-size="20.00" fill="#00bfff">^</text>
</g>
<!-- bit_0&#45;&gt;bit_1 -->
<g id="edge3" class="edge">
<title>bit_0:sw&#45;&gt;bit_1:n</title>
<path fill="none" stroke="#000000" d="M131.5318,-217C120.6576,-206.1258 127.2841,-197.2837 130.2874,-184.2867"/>
<polygon fill="#000000" stroke="#000000" points="133.8054,-184.348 131.5318,-174 126.8561,-183.5072 133.8054,-184.348"/>
</g>
<!-- bit_1&#45;&gt;R_bot -->
<g id="edge6" class="edge">
<title>bit_1:se&#45;&gt;R_bot:n</title>
<path fill="none" stroke="#000000" d="M142.5318,-145C175.6416,-111.8903 173.9818,-89.6651 173.5847,-46.2323"/>
<polygon fill="#000000" stroke="#000000" points="177.0835,-45.9818 173.5318,-36 170.0836,-46.018 177.0835,-45.9818"/>
</g>
<!-- bit_1&#45;&gt;halt -->
<g id="edge5" class="edge">
<title>bit_1:sw&#45;&gt;halt</title>
<path fill="none" stroke="#000000" d="M120.5318,-145C112.0572,-136.5254 109.6919,-123.5538 109.6061,-112.0253"/>
<polygon fill="#000000" stroke="#000000" points="113.1034,-112.1617 110.0582,-102.014 106.1105,-111.8458 113.1034,-112.1617"/>
</g>
<!-- halt&#45;&gt;B_bot -->
</g>
</svg>
