<?xml version="1.0" encoding="UTF-8" standalone="no"?>
<!DOCTYPE svg PUBLIC "-//W3C//DTD SVG 1.1//EN"
 "http://www.w3.org/Graphics/SVG/1.1/DTD/svg11.dtd">
<!-- Generated by graphviz version 2.40.1 (0)
 -->
<!-- Title: Challenge18 Pages: 1 -->
<svg width="306pt" height="435pt"
 viewBox="0.00 0.00 306.38 435.00" xmlns="http://www.w3.org/2000/svg" xmlns:xlink="http://www.w3.org/1999/xlink">
<g id="graph0" class="graph" transform="scale(1 1) rotate(0) translate(4 431)">
<title>Challenge18</title>
<polygon fill="#ffffff" stroke="transparent" points="-4,4 -4,-431 302.3809,-431 302.3809,4 -4,4"/>
<text text-anchor="middle" x="149.1905" y="-413.4" font-family="Helvetica,sans-Serif" font-weight="bold" font-size="12.00" fill="#000000">Challenge #18: Entanglement</text>
<!-- start -->
<g id="node1" class="node">
<title>start</title>
<ellipse fill="#000000" stroke="#000000" cx="111.0649" cy="-380" rx="3.96" ry="3.96"/>
</g>
<!-- B_top -->
<g id="node2" class="node">
<title>B_top</title>
<ellipse fill="none" stroke="#000000" cx="111.0649" cy="-300" rx="18" ry="18"/>
<text text-anchor="middle" x="111.0649" y="-296.9" font-family="Helvetica,sans-Serif" font-size="12.00" fill="#0000ff">B</text>
</g>
<!-- start&#45;&gt;B_top -->
<g id="edge1" class="edge">
<title>start&#45;&gt;B_top</title>
<path fill="none" stroke="#000000" d="M111.0649,-375.6989C111.0649,-366.8833 111.0649,-346.116 111.0649,-328.5593"/>
<polygon fill="#000000" stroke="#000000" points="114.565,-328.1782 111.0649,-318.1782 107.565,-328.1783 114.565,-328.1782"/>
</g>
<!-- bit_0 -->
<g id="node7" class="node">
<title>bit_0</title>
<polygon fill="none" stroke="#000000" points="135.0649,-246 108.0649,-228 135.0649,-210 162.0649,-228 135.0649,-246"/>
<text text-anchor="middle" x="135.0649" y="-223" font-family="Helvetica,sans-Serif" font-size="20.00" fill="#00bfff">^</text>
</g>
<!-- B_top&#45;&gt;bit_0 -->
<g id="edge2" class="edge">
<title>B_top&#45;&gt;bit_0:n</title>
<path fill="none" stroke="#000000" d="M121.6615,-285.1816C126.5839,-277.1899 131.8257,-266.767 134.0124,-255.9663"/>
<polygon fill="#000000" stroke="#000000" points="137.4952,-256.3123 135.0649,-246 130.5339,-255.5771 137.4952,-256.3123"/>
</g>
<!-- B_bot -->
<g id="node3" class="node">
<title>B_bot</title>
<ellipse fill="none" stroke="#000000" cx="113.0649" cy="-18" rx="18" ry="18"/>
<text text-anchor="middle" x="113.0649" y="-14.9" font-family="Helvetica,sans-Serif" font-size="12.00" fill="#0000ff">%</text>
</g>
<!-- B_bot&#45;&gt;B_top -->
<g id="edge9" class="edge">
<title>B_bot:w&#45;&gt;B_top:w</title>
<path fill="none" stroke="#0000ff" stroke-dasharray="1,5" d="M95.0649,-18C-30.2716,-18 -32.2716,-300 93.0649,-300"/>
</g>
<!-- R_bot -->
<g id="node5" class="node">
<title>R_bot</title>
<ellipse fill="none" stroke="#000000" cx="170.0649" cy="-18" rx="18" ry="18"/>
<text text-anchor="middle" x="170.0649" y="-14.9" font-family="Helvetica,sans-Serif" font-size="12.00" fill="#ff0000">%</text>
</g>
<!-- B_bot&#45;&gt;R_bot -->
<!-- R_top -->
<g id="node4" class="node">
<title>R_top</title>
<ellipse fill="none" stroke="#000000" cx="199.0649" cy="-300" rx="18" ry="18"/>
<text text-anchor="middle" x="199.0649" y="-296.9" font-family="Helvetica,sans-Serif" font-size="12.00" fill="#ff0000">R</text>
</g>
<!-- R_bot&#45;&gt;R_top -->
<g id="edge10" class="edge">
<title>R_bot:e&#45;&gt;R_top:e</title>
<path fill="none" stroke="#ff0000" stroke-dasharray="1,5" d="M188.0649,-18C314.0592,-18 343.0592,-300 217.0649,-300"/>
</g>
<!-- objective -->
<g id="node6" class="node">
<title>objective</title>
<text text-anchor="start" x="141.0649" y="-394" font-family="Times" font-size="10.00" fill="#000000">If the top bit AND the bottom bit</text>
<text text-anchor="start" x="141.0649" y="-383" font-family="Times" font-size="10.00" fill="#000000">start pointed to the right, put a</text>
<text text-anchor="start" x="141.0649" y="-372" font-family="Times" font-size="10.00" fill="#000000">ball in interceptor left. Otherwise</text>
<text text-anchor="start" x="141.0649" y="-361" font-family="Times" font-size="10.00" fill="#000000">put a ball in interceptor right.</text>
</g>
<!-- bit_1 -->
<g id="node8" class="node">
<title>bit_1</title>
<polygon fill="none" stroke="#000000" points="124.0649,-174 97.0649,-156 124.0649,-138 151.0649,-156 124.0649,-174"/>
<text text-anchor="middle" x="124.0649" y="-151" font-family="Helvetica,sans-Serif" font-size="20.00" fill="#00bfff">^</text>
</g>
<!-- bit_0&#45;&gt;bit_1 -->
<g id="edge4" class="edge">
<title>bit_0:sw&#45;&gt;bit_1:n</title>
<path fill="none" stroke="#000000" d="M124.0649,-217C113.1906,-206.1258 119.8171,-197.2837 122.8204,-184.2867"/>
<polygon fill="#000000" stroke="#000000" points="126.3384,-184.348 124.0649,-174 119.3891,-183.5072 126.3384,-184.348"/>
</g>
<!-- halt_right -->
<g id="node10" class="node">
<title>halt_right</title>
<ellipse fill="none" stroke="#000000" cx="170.0649" cy="-87" rx="11" ry="11"/>
<ellipse fill="none" stroke="#000000" cx="170.0649" cy="-87" rx="15" ry="15"/>
</g>
<!-- bit_0&#45;&gt;halt_right -->
<g id="edge3" class="edge">
<title>bit_0:se&#45;&gt;halt_right</title>
<path fill="none" stroke="#000000" d="M146.0649,-217C173.5503,-189.5146 175.1727,-141.4978 173.1229,-112.1457"/>
<polygon fill="#000000" stroke="#000000" points="176.5827,-111.5394 172.2038,-101.8918 169.6107,-112.1644 176.5827,-111.5394"/>
</g>
<!-- halt_left -->
<g id="node9" class="node">
<title>halt_left</title>
<ellipse fill="none" stroke="#000000" cx="113.0649" cy="-87" rx="11" ry="11"/>
<ellipse fill="none" stroke="#000000" cx="113.0649" cy="-87" rx="15" ry="15"/>
</g>
<!-- bit_1&#45;&gt;halt_left -->
<g id="edge5" class="edge">
<title>bit_1:sw&#45;&gt;halt_left</title>
<path fill="none" stroke="#000000" d="M113.0649,-145C104.4189,-136.354 103.9751,-122.8606 105.8976,-111.0636"/>
<polygon fill="#000000" stroke="#000000" points="109.3155,-111.8167 108.0495,-101.2978 102.4795,-110.3103 109.3155,-111.8167"/>
</g>
<!-- bit_1&#45;&gt;halt_right -->
<g id="edge6" class="edge">
<title>bit_1:se&#45;&gt;halt_right</title>
<path fill="none" stroke="#000000" d="M135.0649,-145C145.0702,-134.9946 153.4017,-121.5831 159.4227,-110.177"/>
<polygon fill="#000000" stroke="#000000" points="162.5767,-111.6952 163.9229,-101.1862 156.317,-108.5619 162.5767,-111.6952"/>
</g>
<!-- halt_left&#45;&gt;B_bot -->
<!-- halt_right&#45;&gt;R_bot -->
</g>
</svg>
